<svg xmlns="http://www.w3.org/2000/svg" width="321.584" height="132.177" viewBox="0 0 321.584 132.177">
  <defs>
    <style>
      .cls-1, .cls-2 {
        fill: #504a4a;
      }

      .cls-1 {
        fill-rule: evenodd;
      }
    </style>
  </defs>
  <g id="Group_211" data-name="Group 211" transform="translate(-611.65 -954.671)">
    <g id="Group_205" data-name="Group 205">
      <path id="Path_1542" data-name="Path 1542" class="cls-1" d="M758.376,1068.057l5.323-3.644h1.9v13.952h2.863v1.979h-8.185v-1.979h2.863V1067.4a28.036,28.036,0,0,1-4.231,2.011Z"/>
      <path id="Path_1543" data-name="Path 1543" class="cls-1" d="M775.371,1085.685a13.305,13.305,0,0,1-3.735,1.162l-1.247-1.508a10.232,10.232,0,0,0,2.99-.881,18.19,18.19,0,0,0,4.076-2.607,12.437,12.437,0,0,0,3.61-5.342,6.5,6.5,0,0,1-3.984,1.319,5.934,5.934,0,0,1-4.48-1.854,6.6,6.6,0,0,1-1.743-4.713,6.81,6.81,0,0,1,1.992-5,6.73,6.73,0,0,1,4.978-2.043,6.126,6.126,0,0,1,4.731,2.043,8.06,8.06,0,0,1,1.93,5.624,14.871,14.871,0,0,1-3.921,10.024A15.178,15.178,0,0,1,775.371,1085.685Zm2.022-9.743a6.387,6.387,0,0,0,4.171-1.726,11.327,11.327,0,0,0,.247-2.295,6.865,6.865,0,0,0-1.15-4.147,3.479,3.479,0,0,0-2.99-1.6,3.67,3.67,0,0,0-2.986,1.416,5.55,5.55,0,0,0-1.122,3.612,5.358,5.358,0,0,0,1.028,3.488A3.421,3.421,0,0,0,777.393,1075.943Z"/>
      <path id="Path_1544" data-name="Path 1544" class="cls-1" d="M790.62,1064.066a17.1,17.1,0,0,1,8.4-5.469l.592,1.573a13.952,13.952,0,0,0-4.45,2.325,11.542,11.542,0,0,0-2.958,3.111,12.452,12.452,0,0,0-1.462,3.866,6.806,6.806,0,0,1,8.777-.064,5.915,5.915,0,0,1,1.96,4.62,6.681,6.681,0,0,1-6.847,6.85,6.306,6.306,0,0,1-5.106-2.327,9.623,9.623,0,0,1-1.9-6.221A12.451,12.451,0,0,1,790.62,1064.066Zm4.17,5.656a6.721,6.721,0,0,0-4.2,1.665,12.7,12.7,0,0,0-.094,1.6q0,5.972,4.14,5.971a3.627,3.627,0,0,0,2.956-1.321,5.4,5.4,0,0,0,1.09-3.55,4.481,4.481,0,0,0-1.09-3.236A3.714,3.714,0,0,0,794.79,1069.722Z"/>
      <path id="Path_1545" data-name="Path 1545" class="cls-1" d="M808.671,1085.685a13.276,13.276,0,0,1-3.733,1.162l-1.247-1.508a10.232,10.232,0,0,0,2.99-.881,18.187,18.187,0,0,0,4.076-2.607,12.438,12.438,0,0,0,3.61-5.342,6.5,6.5,0,0,1-3.982,1.319,5.938,5.938,0,0,1-4.482-1.854,6.6,6.6,0,0,1-1.743-4.713,6.816,6.816,0,0,1,1.99-5,6.738,6.738,0,0,1,4.982-2.043,6.125,6.125,0,0,1,4.729,2.043,8.069,8.069,0,0,1,1.93,5.624,14.871,14.871,0,0,1-3.921,10.024A15.168,15.168,0,0,1,808.671,1085.685Zm2.024-9.743a6.39,6.39,0,0,0,4.171-1.726,11.193,11.193,0,0,0,.247-2.295,6.853,6.853,0,0,0-1.151-4.147,3.473,3.473,0,0,0-2.988-1.6,3.674,3.674,0,0,0-2.988,1.416,5.549,5.549,0,0,0-1.12,3.612,5.358,5.358,0,0,0,1.028,3.488A3.424,3.424,0,0,0,810.694,1075.943Z"/>
    </g>
    <g id="Group_210" data-name="Group 210">
      <g id="Group_206" data-name="Group 206">
        <path id="Path_1546" data-name="Path 1546" class="cls-2" d="M904.622,955.559c.26-.41.453-.7.569-.873-.073.106-.271.4-.58.875Zm.021-.006-65.959,15.164-.013-.739,66.521-15.292C905.108,954.847,904.912,955.142,904.642,955.554Zm-65.92,113.9,27.85,14.3c0,1.03.015,2.06.034,3.1l-27.938-15.307Zm27.85,13-27.829-13.841.06-2.546,27.8,13.27Q866.576,1080.886,866.572,1082.449Zm.06-4.438-27.809-12.9.051-2.454,27.855,12.315Q866.67,1076.488,866.632,1078.011Zm.155-4.378-27.893-12.013.043-2.367,28.007,11.425C866.884,1071.659,866.832,1072.646,866.787,1073.633Zm.243-4.325-28.073-11.187.037-2.282,28.247,10.588C867.165,1067.384,867.1,1068.342,867.03,1069.308Zm.331-4.293-28.348-10.4.034-2.2,28.576,9.788Q867.484,1063.6,867.362,1065.015Zm.414-4.263-28.711-9.646.028-2.112,28.994,9.019Q867.921,1059.377,867.776,1060.752Zm.494-4.238-29.16-8.915.026-2.034,29.49,8.274Q868.44,1055.172,868.27,1056.514Zm.577-4.227-29.694-8.2.021-1.954,30.07,7.544Q869.038,1050.976,868.847,1052.288Zm.657-4.219-30.314-7.491.021-1.879,30.729,6.82C869.792,1046.365,869.644,1047.214,869.5,1048.069Zm.74-4.221-31.018-6.782.017-1.8,31.474,6.1C870.554,1042.184,870.4,1043.016,870.243,1043.848Zm.82-4.225-31.8-6.068.015-1.733,32.3,5.37Q871.312,1038.4,871.063,1039.623Zm.9-4.234-32.674-5.342.015-1.663,33.2,4.633Q872.23,1034.193,871.966,1035.388Zm.987-4.257-33.631-4.6.009-1.1.006-.492,34.187,3.877Q873.234,1029.967,872.952,1031.131Zm1.075-4.278-34.678-3.83.007-1.529,35.27,3.1Q874.323,1025.72,874.027,1026.854Zm1.163-4.3-35.827-3.036,0-1.465,36.449,2.3Q875.5,1021.445,875.19,1022.55Zm1.256-4.34-37.082-2.2,0-1.4,37.733,1.469Q876.767,1017.135,876.446,1018.209Zm1.352-4.38-38.443-1.335-.008-1.34,39.123.6Q878.13,1012.784,877.8,1013.83Zm1.453-4.423-39.918-.414-.009-1.282,40.617-.316Q879.594,1008.393,879.251,1009.406Zm1.56-4.478-41.51.561-.013-1.223,42.229-1.282Zm1.672-4.531-43.223,1.6-.015-1.166,43.955-2.3Zm1.792-4.6-45.063,2.7-.019-1.112L885,994Zm1.921-4.669-47.042,3.881-.019-1.059,47.791-4.537Zm2.058-4.748-49.163,5.147-.019-1.007,49.912-5.765Zm2.211-4.839-51.442,6.506-.019-.956,52.183-7.077Zm2.38-4.939-53.893,7.971-.019-.911,54.619-8.482Zm2.565-5.047-56.529,9.55-.017-.866,57.233-9.99Zm-56.615,5.263L898.834,965.2l-.653,1.176L838.81,977.638Zm-.065-3.418,63.1-13.368-.612,1.032-62.473,13.115Z"/>
        <path id="Path_1547" data-name="Path 1547" class="cls-2" d="M932.316,1020.122l-54.026-5.072q.4-1.3.8-2.573l53.226,6.336,0,1.293Zm-54.687-2.879,54.687,5.072v1.244l-55.43-3.767Q877.254,1018.507,877.629,1017.244Zm55.383-41.694L902,959.884c.393-.673.751-1.289,1.082-1.839l30.007,15.412Zm-66.281,110.679.017,0,66.379-15.259.1.448.006.127-66.51,15.3Zm38.512-131.557,27.96,15.342,0,.333-.062,1.569-.116.216-28.911-15.735C904.678,955.518,905.063,954.936,905.243,954.671Zm-4.229,6.924,31.954,15.317-.064,2.017-32.974-15.4Q900.494,962.5,901.014,961.6Zm-2.039,3.673,33.886,15.107-.054,1.945-34.914-15.03Q898.449,966.239,898.975,965.268Zm-2.009,3.794,35.8,14.784-.045,1.877-36.835-14.55Q896.436,970.084,896.966,969.062Zm-1.983,3.911,37.7,14.355-.039,1.811-38.735-13.969Q894.453,974.044,894.983,972.973Zm-1.949,4.019,39.574,13.824-.034,1.745-40.607-13.291Q892.506,978.107,893.034,976.992Zm-1.913,4.121L932.544,994.3l-.028,1.682-42.45-12.521Q890.6,982.266,891.121,981.112Zm-1.874,4.223L932.488,997.8l-.022,1.622-44.256-11.669Q888.732,986.524,889.247,985.335Zm-1.831,4.319,45.026,11.646-.019,1.561L886.4,992.129Q886.911,990.873,887.416,989.655Zm-1.782,4.408L932.4,1004.8l-.013,1.5-47.737-9.722Q885.141,995.306,885.633,994.063Zm-1.728,4.491,48.465,9.75-.009,1.448-49.4-8.642Q883.431,999.817,883.905,998.554Zm-1.67,4.569,50.113,8.682-.009,1.4-51-7.5Q881.784,1004.4,882.235,1003.123Zm-1.606,4.644,51.7,7.544,0,1.342-52.55-6.3Q880.2,1009.048,880.629,1007.767Zm-4.385,14.3,56.076,3.748,0,1.2-56.761-2.44Q875.9,1023.31,876.244,1022.066Zm-1.3,4.867,57.39,2.382.006,1.153-58.017-1.083Q874.625,1028.151,874.941,1026.933Zm-1.217,4.9,58.628.974.009,1.11-59.191.295Q873.442,1033.018,873.724,1031.837Zm-1.127,4.936,59.785-.469.011,1.066-60.285,1.692C872.267,1038.3,872.432,1037.532,872.6,1036.772Zm-1.034,4.958,60.856-1.938.013,1.025-61.292,3.1Q871.345,1042.818,871.563,1041.73Zm-.938,4.977,61.84-3.429.017.987-62.219,4.51Q870.441,1047.738,870.625,1046.708Zm-.841,4.985,62.739-4.932.017.949-63.056,5.918Zm-.74,4.983,63.544-6.44.019.913-63.8,7.319Zm-.638,4.979,64.259-7.949.021.879-64.467,8.707Zm-.535,4.968,64.881-9.451.024.847-65.046,10.077Zm-.434,4.945,65.413-10.941.024.817-65.534,11.425Zm-.331,4.921,65.853-12.414.026.788-65.941,12.744Zm-.228,4.886,66.2-13.86.028.76-66.263,14.034Z"/>
      </g>
      <g id="Group_209" data-name="Group 209">
        <g id="Group_207" data-name="Group 207">
          <path id="Path_1548" data-name="Path 1548" class="cls-2" d="M727.4,1040.464c-.328.212-.577.391-.917.582a33.347,33.347,0,0,1-9.6,4.032c-.376.1-.747.2-1.12.3a33.533,33.533,0,0,1-3.346.7c-.807.125-1.646.227-2.507.3a39.557,39.557,0,0,1-5.229.163,37.679,37.679,0,0,1-4.265-.295,20.44,20.44,0,0,1-7.236-2.21,13.807,13.807,0,0,1-5.278-4.805c-2.752-4.8-2.705-12.68-2.778-18.135-.169-12.589,2.185-26.071,22.373-26.071.341,0,.676,0,1.005.013.348-.008.7-.013,1.065-.013,12.934,0,18.912,6.365,18.983,15.474l.008.331c.163,8.614-6.452,13.344-14.441,16.1-1.839.684-6.92,1.783-8.552,2.136l-.062-.319a66.427,66.427,0,0,0-2.3-9.155,21.918,21.918,0,0,0,9.1-3.537,12.134,12.134,0,0,0,1.556-1.523c1.17-1.488,1.243-3.191,1.1-5.055a6.108,6.108,0,0,0-.195-1.159,4.784,4.784,0,0,0-2.275-3.225,6.576,6.576,0,0,0-2.423-.894l-.358-.053-.116-.019c-5.368-.535-9.771,1.108-10.808,7.2-.125.885-.232,1.692-.331,2.433l-.161,4.476a55.119,55.119,0,0,0,.2,9.2,19.289,19.289,0,0,0,1.55,6.469,5.359,5.359,0,0,0,2.421,2.166l.6.206.165.04a11.56,11.56,0,0,0,1.869.391c.307.042.616.07.925.093a4.63,4.63,0,0,0,.919.04l.326,0a32.214,32.214,0,0,0,15.105-3.97c.307-.168.612-.34.93-.527.983-.656,1.962-1.331,2.881-2.074,0,0,.809,7.255,1.395,9.95l.026.117Z"/>
          <path id="Path_1549" data-name="Path 1549" class="cls-2" d="M732.292,1041.39l-.12-.068a88.031,88.031,0,0,0,1.348-10.281,62.619,62.619,0,0,0,7.294,3.932,25.249,25.249,0,0,0,2.924.991,28.208,28.208,0,0,0,6.9,1.072l.18,0c.286,0,.554-.019.807-.046,2.346-.321,4.518-1.4,5.37-2.873a5.647,5.647,0,0,0,.417-3.82c-.427-1.647-1.634-3.045-5.306-4.034l-5.562-1.41c-7.845-1.824-13.173-5.987-13.066-14.572a13.184,13.184,0,0,1,.738-4.4,14.526,14.526,0,0,1,4.469-6.8,10.419,10.419,0,0,1,1.11-.926l.165-.117a17.868,17.868,0,0,1,7.65-2.782,38.463,38.463,0,0,1,5.617-.27,32.914,32.914,0,0,1,15.553,4.055,65.721,65.721,0,0,0-1.953,9.692c-.579-.4-1.153-.807-1.762-1.159-4.1-2.284-5.991-3.331-10.717-3.637-.35-.013-.8.017-1.15.017-3.318,0-5.776,2.387-5.765,4.968.006,1.881.388,3.353,2.737,4.385l.137.058a11.347,11.347,0,0,0,2.046.6l.183.034a70.069,70.069,0,0,1,7.133,1.658c11.205,3.741,11.179,13.13,11.155,15.136a15.427,15.427,0,0,1-5.489,11.308,18.242,18.242,0,0,1-9.573,4.193,29.591,29.591,0,0,1-4.332.265,42.13,42.13,0,0,1-6.613-.63,34.823,34.823,0,0,1-4.229-1.011A49.558,49.558,0,0,1,732.292,1041.39Z"/>
          <path id="Path_1550" data-name="Path 1550" class="cls-2" d="M777.282,1001.635c.341-.236.683-.473,1.039-.688a32.11,32.11,0,0,1,9.168-4.2c.359-.113.713-.217,1.071-.319a32.266,32.266,0,0,1,3.188-.766c.771-.142,1.575-.261,2.4-.352a36.676,36.676,0,0,1,4.991-.28h.8a34.507,34.507,0,0,1,4.072.2c4.742.514,9.288,2.384,11.79,6.711a22.377,22.377,0,0,1,1.986,9.937s-.024,3.244-.021,4.414c.028,5.223.021,23.812.021,23.812-7.981,4.989-20.892,7.4-30.138,5.915-9.462-1.44-13.7-7.251-13.482-15.073l0-.331c.14-8.576,6.89-13.283,14.944-16.026,1.861-.682,6.946-1.771,8.609-2.13a70.073,70.073,0,0,0,1.985,9.331l-.758.119a21.665,21.665,0,0,0-8.869,3.486,12.278,12.278,0,0,0-1.548,1.518c-1.166,1.482-1.24,3.179-1.1,5.034a6.076,6.076,0,0,0,.195,1.155,4.766,4.766,0,0,0,2.264,3.21,5.256,5.256,0,0,0,.751.4,6.142,6.142,0,0,0,.68.265l.122.025a8,8,0,0,0,.861.2c.06.01.429.053.708.062a24.8,24.8,0,0,0,12.052-2.187l0-3.877.013-18.285-.011-.758a13.556,13.556,0,0,0-.695-3.76,3.313,3.313,0,0,0-.283-.667,5.581,5.581,0,0,0-.947-1.168,6.412,6.412,0,0,0-2.468-1.425,11.431,11.431,0,0,0-1.921-.374c-.294-.034-.59-.055-.884-.07a.692.692,0,0,0-.152-.019l-.236,0a3.193,3.193,0,0,1-.358-.009l-.131.006-.311,0a33.2,33.2,0,0,0-9.891,2.055,34.264,34.264,0,0,0-4.521,2.206c-.292.172-.582.348-.886.539a25.838,25.838,0,0,0-2.747,2.109c-.077-1.257-.916-8.247-1.318-9.671Z"/>
          <path id="Path_1551" data-name="Path 1551" class="cls-2" d="M624.51,1046.071c-1.011-.134-1.994-.206-3.016-.24a84.3,84.3,0,0,0-9.844.212l.037-42.464.008-2.41c6.955-3.926,16.716-6.612,24.613-6.2a16.882,16.882,0,0,1,9.3,2.845,46.376,46.376,0,0,1,17.154-2.845c9.313.406,14,5.6,14.564,13.2l.03.319a15.138,15.138,0,0,1,.041,1.987l.011,35.589c-1-.132-1.977-.2-2.99-.236a83.916,83.916,0,0,0-9.871.215l.032-37.77c-.427-3.6-2.741-4.191-6.2-4.191-2.417,0-5.664,1.314-7.706,2.272.1.588.176,1.193.223,1.815l.03.319a15.045,15.045,0,0,1,.034,2.28l0,35.294c-1-.13-1.968-.2-2.975-.234a83.792,83.792,0,0,0-9.887.217l.032-36.73c-.088-4.544-2.518-5.2-6.263-5.166-2.279.023-5.3,1.223-7.35,2.183Z"/>
        </g>
        <g id="Group_208" data-name="Group 208">
          <path id="Path_1552" data-name="Path 1552" class="cls-2" d="M815.456,993.386a2.429,2.429,0,1,0,2.43-2.454A2.442,2.442,0,0,0,815.456,993.386Zm-.59,0a3.019,3.019,0,1,1,3.02,3.049A3.034,3.034,0,0,1,814.866,993.386Z"/>
          <path id="Path_1553" data-name="Path 1553" class="cls-1" d="M817.371,992.382h.691c.279,0,.444.115.444.382a.389.389,0,0,1-.444.41h-.691Zm0,1.291h.831c.21,0,.251.238.268.4.028.272.058.542.111.811h.706a1.857,1.857,0,0,1-.174-.715c-.058-.418-.052-.722-.545-.775v-.009a.722.722,0,0,0,.62-.726c0-.611-.524-.781-1.035-.781h-1.419v3.006h.638Z"/>
        </g>
      </g>
    </g>
  </g>
</svg>
