<svg xmlns="http://www.w3.org/2000/svg" width="321.584" height="132.177"><defs><style>.cls-1,.cls-2{fill:#504a4a}.cls-1{fill-rule:evenodd}</style></defs><g id="Group_211" data-name="Group 211" transform="translate(-611.65 -954.671)"><g id="Group_205" data-name="Group 205"><path id="Path_1542" data-name="Path 1542" class="cls-1" d="M758.376 1068.057l5.323-3.644h1.9v13.952h2.863v1.979h-8.185v-1.979h2.863V1067.4a28.036 28.036 0 01-4.231 2.011z"/><path id="Path_1543" data-name="Path 1543" class="cls-1" d="M775.371 1085.685a13.305 13.305 0 01-3.735 1.162l-1.247-1.508a10.232 10.232 0 002.99-.881 18.19 18.19 0 004.076-2.607 12.437 12.437 0 003.61-5.342 6.5 6.5 0 01-3.984 1.319 5.934 5.934 0 01-4.48-1.854 6.6 6.6 0 01-1.743-4.713 6.81 6.81 0 011.992-5 6.73 6.73 0 014.978-2.043 6.126 6.126 0 014.731 2.043 8.06 8.06 0 011.93 5.624 14.871 14.871 0 01-3.921 10.024 15.178 15.178 0 01-5.197 3.776zm2.022-9.743a6.387 6.387 0 004.171-1.726 11.327 11.327 0 00.247-2.295 6.865 6.865 0 00-1.15-4.147 3.479 3.479 0 00-2.99-1.6 3.67 3.67 0 00-2.986 1.416 5.55 5.55 0 00-1.122 3.612 5.358 5.358 0 001.028 3.488 3.421 3.421 0 002.802 1.253z"/><path id="Path_1544" data-name="Path 1544" class="cls-1" d="M790.62 1064.066a17.1 17.1 0 018.4-5.469l.592 1.573a13.952 13.952 0 00-4.45 2.325 11.542 11.542 0 00-2.958 3.111 12.452 12.452 0 00-1.462 3.866 6.806 6.806 0 018.777-.064 5.915 5.915 0 011.96 4.62 6.681 6.681 0 01-6.847 6.85 6.306 6.306 0 01-5.106-2.327 9.623 9.623 0 01-1.9-6.221 12.451 12.451 0 012.994-8.264zm4.17 5.656a6.721 6.721 0 00-4.2 1.665 12.7 12.7 0 00-.094 1.6q0 5.972 4.14 5.971a3.627 3.627 0 002.956-1.321 5.4 5.4 0 001.09-3.55 4.481 4.481 0 00-1.09-3.236 3.714 3.714 0 00-2.802-1.129z"/><path id="Path_1545" data-name="Path 1545" class="cls-1" d="M808.671 1085.685a13.276 13.276 0 01-3.733 1.162l-1.247-1.508a10.232 10.232 0 002.99-.881 18.187 18.187 0 004.076-2.607 12.438 12.438 0 003.61-5.342 6.5 6.5 0 01-3.982 1.319 5.938 5.938 0 01-4.482-1.854 6.6 6.6 0 01-1.743-4.713 6.816 6.816 0 011.99-5 6.738 6.738 0 014.982-2.043 6.125 6.125 0 014.729 2.043 8.069 8.069 0 011.93 5.624 14.871 14.871 0 01-3.921 10.024 15.168 15.168 0 01-5.199 3.776zm2.024-9.743a6.39 6.39 0 004.171-1.726 11.193 11.193 0 00.247-2.295 6.853 6.853 0 00-1.151-4.147 3.473 3.473 0 00-2.988-1.6 3.674 3.674 0 00-2.988 1.416 5.549 5.549 0 00-1.12 3.612 5.358 5.358 0 001.028 3.488 3.424 3.424 0 002.8 1.253z"/></g><g id="Group_210" data-name="Group 210"><g id="Group_206" data-name="Group 206"><path id="Path_1546" data-name="Path 1546" class="cls-2" d="M904.622 955.559c.26-.41.453-.7.569-.873-.073.106-.271.4-.58.875zm.021-.006l-65.959 15.164-.013-.739 66.521-15.292c-.084.161-.28.456-.55.868zm-65.92 113.9l27.85 14.3c0 1.03.015 2.06.034 3.1l-27.938-15.307zm27.85 13l-27.829-13.841.06-2.546 27.8 13.27q-.028 1.55-.032 3.113zm.06-4.438l-27.809-12.9.051-2.454 27.855 12.315q-.06 1.512-.098 3.035zm.155-4.378l-27.893-12.013.043-2.367 28.007 11.425c-.061.977-.113 1.964-.158 2.951zm.243-4.325l-28.073-11.187.037-2.282 28.247 10.588c-.077.953-.142 1.911-.212 2.877zm.331-4.293l-28.348-10.4.034-2.2 28.576 9.788q-.14 1.393-.262 2.808zm.414-4.263l-28.711-9.646.028-2.112 28.994 9.019q-.166 1.36-.311 2.735zm.494-4.238l-29.16-8.915.026-2.034 29.49 8.274q-.186 1.329-.356 2.671zm.577-4.227l-29.694-8.2.021-1.954 30.07 7.544q-.206 1.295-.397 2.607zm.657-4.219l-30.314-7.491.021-1.879 30.729 6.82c-.148.843-.296 1.692-.44 2.547zm.74-4.221l-31.018-6.782.017-1.8 31.474 6.1c-.163.815-.317 1.647-.474 2.479zm.82-4.225l-31.8-6.068.015-1.733 32.3 5.37q-.267 1.205-.516 2.428zm.9-4.234l-32.674-5.342.015-1.663 33.2 4.633q-.275 1.173-.539 2.368zm.987-4.257l-33.631-4.6.009-1.1.006-.492 34.187 3.877q-.288 1.147-.57 2.311zm1.075-4.278l-34.678-3.83.007-1.529 35.27 3.1q-.302 1.122-.598 2.256zm1.163-4.3l-35.827-3.036v-1.465l36.449 2.3q-.311 1.089-.621 2.194zm1.256-4.34l-37.082-2.2v-1.4l37.733 1.469q-.329 1.049-.65 2.123zm1.352-4.38l-38.443-1.335-.008-1.34 39.123.6q-.339 1.022-.669 2.068zm1.453-4.423l-39.918-.414-.009-1.282 40.617-.316q-.346.991-.689 2.004zm1.56-4.478l-41.51.561-.013-1.223 42.229-1.282zm1.672-4.531l-43.223 1.6-.015-1.166 43.955-2.3zm1.792-4.6l-45.063 2.7-.019-1.112L885 994zm1.921-4.669l-47.042 3.881-.019-1.059 47.791-4.537zm2.058-4.748l-49.163 5.147-.019-1.007 49.912-5.765zm2.211-4.839l-51.442 6.506-.019-.956 52.183-7.077zm2.38-4.939l-53.893 7.971-.019-.911 54.619-8.482zm2.565-5.047l-56.529 9.55-.017-.866 57.233-9.99zm-56.615 5.263l60.04-11.626-.653 1.176-59.371 11.262zm-.065-3.418l63.1-13.368-.612 1.032-62.473 13.115z"/><path id="Path_1547" data-name="Path 1547" class="cls-2" d="M932.316 1020.122l-54.026-5.072q.4-1.3.8-2.573l53.226 6.336v1.293zm-54.687-2.879l54.687 5.072v1.244l-55.43-3.767q.368-1.285.743-2.548zm55.383-41.694L902 959.884c.393-.673.751-1.289 1.082-1.839l30.007 15.412zm-66.281 110.679h.017l66.379-15.259.1.448.006.127-66.51 15.3zm38.512-131.557l27.96 15.342v.333l-.062 1.569-.116.216-28.911-15.735a91.61 91.61 0 011.129-1.725zm-4.229 6.924l31.954 15.317-.064 2.017-32.974-15.4q.564-1.029 1.084-1.929zm-2.039 3.673l33.886 15.107-.054 1.945-34.914-15.03q.556-1.051 1.082-2.022zm-2.009 3.794l35.8 14.784-.045 1.877-36.835-14.55q.55-1.089 1.08-2.111zm-1.983 3.911l37.7 14.355-.039 1.811-38.735-13.969q.544-1.126 1.074-2.197zm-1.949 4.019l39.574 13.824-.034 1.745-40.607-13.291q.539-1.163 1.067-2.278zm-1.913 4.121l41.423 13.187-.028 1.682-42.45-12.521q.534-1.195 1.055-2.349zm-1.874 4.223l43.241 12.464-.022 1.622-44.256-11.669q.522-1.229 1.037-2.418zm-1.831 4.319l45.026 11.646-.019 1.561-46.023-10.733q.511-1.256 1.016-2.474zm-1.782 4.408L932.4 1004.8l-.013 1.5-47.737-9.722q.491-1.272.983-2.515zm-1.728 4.491l48.465 9.75-.009 1.448-49.4-8.642q.469-1.293.943-2.556zm-1.67 4.569l50.113 8.682-.009 1.4-51-7.5q.444-1.305.895-2.582zm-1.606 4.644l51.7 7.544v1.342l-52.55-6.3q.42-1.305.849-2.586zm-4.385 14.3l56.076 3.748v1.2l-56.761-2.44q.34-1.265.684-2.509zm-1.3 4.867l57.39 2.382.006 1.153-58.017-1.083q.301-1.235.617-2.453zm-1.217 4.9l58.628.974.009 1.11-59.191.295q.268-1.195.55-2.376zm-1.127 4.936l59.785-.469.011 1.066-60.285 1.692c.155-.759.32-1.527.488-2.287zm-1.034 4.958l60.856-1.938.013 1.025-61.292 3.1q.201-1.097.419-2.185zm-.938 4.977l61.84-3.429.017.987-62.219 4.51q.174-1.035.358-2.065zm-.841 4.985l62.739-4.932.017.949-63.056 5.918zm-.74 4.983l63.544-6.44.019.913-63.8 7.319zm-.638 4.979l64.259-7.949.021.879-64.467 8.707zm-.535 4.968l64.881-9.451.024.847-65.046 10.077zm-.434 4.945l65.413-10.941.024.817-65.534 11.425zm-.331 4.921l65.853-12.414.026.788-65.941 12.744zm-.228 4.886l66.2-13.86.028.76-66.263 14.034z"/></g><g id="Group_209" data-name="Group 209"><g id="Group_207" data-name="Group 207"><path id="Path_1548" data-name="Path 1548" class="cls-2" d="M727.4 1040.464c-.328.212-.577.391-.917.582a33.347 33.347 0 01-9.6 4.032l-1.12.3a33.533 33.533 0 01-3.346.7c-.807.125-1.646.227-2.507.3a39.557 39.557 0 01-5.229.163 37.679 37.679 0 01-4.265-.295 20.44 20.44 0 01-7.236-2.21 13.807 13.807 0 01-5.278-4.805c-2.752-4.8-2.705-12.68-2.778-18.135-.169-12.589 2.185-26.071 22.373-26.071.341 0 .676 0 1.005.013.348-.008.7-.013 1.065-.013 12.934 0 18.912 6.365 18.983 15.474l.008.331c.163 8.614-6.452 13.344-14.441 16.1-1.839.684-6.92 1.783-8.552 2.136l-.062-.319a66.427 66.427 0 00-2.3-9.155 21.918 21.918 0 009.1-3.537 12.134 12.134 0 001.556-1.523c1.17-1.488 1.243-3.191 1.1-5.055a6.108 6.108 0 00-.195-1.159 4.784 4.784 0 00-2.275-3.225 6.576 6.576 0 00-2.423-.894l-.358-.053-.116-.019c-5.368-.535-9.771 1.108-10.808 7.2-.125.885-.232 1.692-.331 2.433l-.161 4.476a55.119 55.119 0 00.2 9.2 19.289 19.289 0 001.55 6.469 5.359 5.359 0 002.421 2.166l.6.206.165.04a11.56 11.56 0 001.869.391c.307.042.616.07.925.093a4.63 4.63 0 00.919.04h.326a32.214 32.214 0 0015.105-3.97c.307-.168.612-.34.93-.527.983-.656 1.962-1.331 2.881-2.074 0 0 .809 7.255 1.395 9.95l.026.117z"/><path id="Path_1549" data-name="Path 1549" class="cls-2" d="M732.292 1041.39l-.12-.068a88.031 88.031 0 001.348-10.281 62.619 62.619 0 007.294 3.932 25.249 25.249 0 002.924.991 28.208 28.208 0 006.9 1.072h.18c.286 0 .554-.019.807-.046 2.346-.321 4.518-1.4 5.37-2.873a5.647 5.647 0 00.417-3.82c-.427-1.647-1.634-3.045-5.306-4.034l-5.562-1.41c-7.845-1.824-13.173-5.987-13.066-14.572a13.184 13.184 0 01.738-4.4 14.526 14.526 0 014.469-6.8 10.419 10.419 0 011.11-.926l.165-.117a17.868 17.868 0 017.65-2.782 38.463 38.463 0 015.617-.27 32.914 32.914 0 0115.553 4.055 65.721 65.721 0 00-1.953 9.692c-.579-.4-1.153-.807-1.762-1.159-4.1-2.284-5.991-3.331-10.717-3.637-.35-.013-.8.017-1.15.017-3.318 0-5.776 2.387-5.765 4.968.006 1.881.388 3.353 2.737 4.385l.137.058a11.347 11.347 0 002.046.6l.183.034a70.069 70.069 0 017.133 1.658c11.205 3.741 11.179 13.13 11.155 15.136a15.427 15.427 0 01-5.489 11.308 18.242 18.242 0 01-9.573 4.193 29.591 29.591 0 01-4.332.265 42.13 42.13 0 01-6.613-.63 34.823 34.823 0 01-4.229-1.011 49.558 49.558 0 01-8.296-3.528z"/><path id="Path_1550" data-name="Path 1550" class="cls-2" d="M777.282 1001.635c.341-.236.683-.473 1.039-.688a32.11 32.11 0 019.168-4.2c.359-.113.713-.217 1.071-.319a32.266 32.266 0 013.188-.766 33.648 33.648 0 012.4-.352 36.676 36.676 0 014.991-.28h.8a34.507 34.507 0 014.072.2c4.742.514 9.288 2.384 11.79 6.711a22.377 22.377 0 011.986 9.937s-.024 3.244-.021 4.414c.028 5.223.021 23.812.021 23.812-7.981 4.989-20.892 7.4-30.138 5.915-9.462-1.44-13.7-7.251-13.482-15.073v-.331c.14-8.576 6.89-13.283 14.944-16.026 1.861-.682 6.946-1.771 8.609-2.13a70.073 70.073 0 001.985 9.331l-.758.119a21.665 21.665 0 00-8.869 3.486 12.278 12.278 0 00-1.548 1.518c-1.166 1.482-1.24 3.179-1.1 5.034a6.076 6.076 0 00.195 1.155 4.766 4.766 0 002.264 3.21 5.256 5.256 0 00.751.4 6.142 6.142 0 00.68.265l.122.025a8 8 0 00.861.2c.06.01.429.053.708.062a24.8 24.8 0 0012.052-2.187v-3.877l.013-18.285-.011-.758a13.556 13.556 0 00-.695-3.76 3.313 3.313 0 00-.283-.667 5.581 5.581 0 00-.947-1.168 6.412 6.412 0 00-2.468-1.425 11.431 11.431 0 00-1.921-.374c-.294-.034-.59-.055-.884-.07a.692.692 0 00-.152-.019h-.236a3.193 3.193 0 01-.358-.009l-.131.006h-.311a33.2 33.2 0 00-9.891 2.055 34.264 34.264 0 00-4.521 2.206c-.292.172-.582.348-.886.539a25.838 25.838 0 00-2.747 2.109c-.077-1.257-.916-8.247-1.318-9.671z"/><path id="Path_1551" data-name="Path 1551" class="cls-2" d="M624.51 1046.071a30.363 30.363 0 00-3.016-.24 84.3 84.3 0 00-9.844.212l.037-42.464.008-2.41c6.955-3.926 16.716-6.612 24.613-6.2a16.882 16.882 0 019.3 2.845 46.376 46.376 0 0117.154-2.845c9.313.406 14 5.6 14.564 13.2l.03.319a15.138 15.138 0 01.041 1.987l.011 35.589c-1-.132-1.977-.2-2.99-.236a83.916 83.916 0 00-9.871.215l.032-37.77c-.427-3.6-2.741-4.191-6.2-4.191-2.417 0-5.664 1.314-7.706 2.272.1.588.176 1.193.223 1.815l.03.319a15.045 15.045 0 01.034 2.28v35.294c-1-.13-1.968-.2-2.975-.234a83.792 83.792 0 00-9.887.217l.032-36.73c-.088-4.544-2.518-5.2-6.263-5.166-2.279.023-5.3 1.223-7.35 2.183z"/></g><g id="Group_208" data-name="Group 208"><path id="Path_1552" data-name="Path 1552" class="cls-2" d="M815.456 993.386a2.429 2.429 0 102.43-2.454 2.442 2.442 0 00-2.43 2.454zm-.59 0a3.019 3.019 0 113.02 3.049 3.034 3.034 0 01-3.02-3.049z"/><path id="Path_1553" data-name="Path 1553" class="cls-1" d="M817.371 992.382h.691c.279 0 .444.115.444.382a.389.389 0 01-.444.41h-.691zm0 1.291h.831c.21 0 .251.238.268.4.028.272.058.542.111.811h.706a1.857 1.857 0 01-.174-.715c-.058-.418-.052-.722-.545-.775v-.009a.722.722 0 00.62-.726c0-.611-.524-.781-1.035-.781h-1.419v3.006h.638z"/></g></g></g></g></svg>