<svg id="Layer_1" data-name="Layer 1" xmlns="http://www.w3.org/2000/svg" viewBox="0 0 375.22 79.28"><defs><style>.cls-1,.cls-2{fill:#635d5d;}.cls-1{fill-rule:evenodd;}.cls-3{fill:#002d74;}.cls-4{fill:none;stroke:#635d5d;stroke-miterlimit:10;stroke-width:0.94px;}</style></defs><path class="cls-1" d="M405.06,565l2.84-1.93h1v7.38h1.53v1h-4.37v-1h1.52v-5.8a15.05,15.05,0,0,1-2.26,1.07Z" transform="translate(-326.69 -500.36)"/><path class="cls-1" d="M414.14,574.35a7.32,7.32,0,0,1-2,.61l-.66-.8a5.39,5.39,0,0,0,1.59-.46,9.85,9.85,0,0,0,2.18-1.38,6.61,6.61,0,0,0,1.93-2.83,3.47,3.47,0,0,1-2.13.7,3.2,3.2,0,0,1-2.39-1,3.46,3.46,0,0,1-.93-2.49,3.66,3.66,0,0,1,3.72-3.73,3.3,3.3,0,0,1,2.53,1.08,4.3,4.3,0,0,1,1,3,7.8,7.8,0,0,1-2.1,5.3A8.07,8.07,0,0,1,414.14,574.35Zm1.08-5.16a3.43,3.43,0,0,0,2.23-.91,6.57,6.57,0,0,0,.13-1.21,3.63,3.63,0,0,0-.62-2.2,1.87,1.87,0,0,0-1.59-.85,2,2,0,0,0-1.6.75,2.93,2.93,0,0,0-.6,1.91,2.85,2.85,0,0,0,.55,1.85A1.86,1.86,0,0,0,415.22,569.19Z" transform="translate(-326.69 -500.36)"/><path class="cls-1" d="M422.28,562.91a9.11,9.11,0,0,1,4.49-2.89l.32.83a7.2,7.2,0,0,0-2.38,1.23,6.25,6.25,0,0,0-1.58,1.64,6.66,6.66,0,0,0-.78,2,3.67,3.67,0,0,1,4.69,0,3.12,3.12,0,0,1,1,2.44,3.54,3.54,0,0,1-3.65,3.62,3.39,3.39,0,0,1-2.73-1.23,5,5,0,0,1-1-3.29A6.56,6.56,0,0,1,422.28,562.91Zm2.23,3a3.64,3.64,0,0,0-2.24.88,5.64,5.64,0,0,0,0,.85c0,2.11.73,3.16,2.21,3.16a2,2,0,0,0,1.58-.7,2.87,2.87,0,0,0,.58-1.88,2.39,2.39,0,0,0-.58-1.71A2,2,0,0,0,424.51,565.9Z" transform="translate(-326.69 -500.36)"/><path class="cls-1" d="M431.92,574.35a7.16,7.16,0,0,1-2,.61l-.67-.8a5.37,5.37,0,0,0,1.6-.46,9.85,9.85,0,0,0,2.18-1.38,6.61,6.61,0,0,0,1.93-2.83,3.49,3.49,0,0,1-2.13.7,3.23,3.23,0,0,1-2.4-1,3.46,3.46,0,0,1-.93-2.49,3.67,3.67,0,0,1,3.73-3.73,3.27,3.27,0,0,1,2.52,1.08,4.25,4.25,0,0,1,1,3,7.79,7.79,0,0,1-2.09,5.3A8,8,0,0,1,431.92,574.35Zm1.08-5.16a3.41,3.41,0,0,0,2.23-.91,5.8,5.8,0,0,0,.13-1.21,3.63,3.63,0,0,0-.61-2.2,1.88,1.88,0,0,0-1.6-.85,2,2,0,0,0-1.59.75,2.93,2.93,0,0,0-.6,1.91,2.8,2.8,0,0,0,.55,1.85A1.84,1.84,0,0,0,433,569.19Z" transform="translate(-326.69 -500.36)"/><path class="cls-2" d="M483.17,505.51c.14-.22.25-.37.31-.46s-.15.21-.31.46Zm0,0-35.23,8v-.39l35.53-8.09C483.43,505.13,483.33,505.29,483.18,505.5ZM448,565.76l14.87,7.56c0,.55,0,1.09,0,1.64L448,566.86Zm14.87,6.87L448,565.31l0-1.34,14.85,7C462.86,571.53,462.85,572.08,462.85,572.63Zm0-2.34L448,563.47l0-1.3,14.87,6.51C462.91,569.22,462.9,569.75,462.88,570.29ZM463,568l-14.9-6.35,0-1.26,15,6C463,566.93,463,567.45,463,568Zm.13-2.29-15-5.92,0-1.2,15.09,5.6C463.17,564.66,463.13,565.17,463.1,565.68Zm.17-2.27-15.14-5.5,0-1.16,15.26,5.18C463.36,562.42,463.32,562.91,463.27,563.41Zm.22-2.25-15.33-5.11v-1.11l15.49,4.77C463.6,560.19,463.54,560.67,463.49,561.16Zm.27-2.24-15.58-4.72,0-1.08L464,557.5C463.88,558,463.82,558.44,463.76,558.92Zm.31-2.24-15.87-4.34,0-1,16.06,4Q464.16,556,464.07,556.68Zm.35-2.23-16.19-4v-1l16.41,3.61C464.57,553.55,464.49,554,464.42,554.45Zm.39-2.24-16.57-3.58v-1l16.81,3.23C465,551.33,464.89,551.77,464.81,552.21Zm.44-2.23-17-3.21v-.92l17.25,2.84Zm.48-2.24-17.45-2.83V544L466,546.48C465.92,546.9,465.83,547.32,465.73,547.74Zm.53-2.25-18-2.44v-.84l18.26,2Zm.57-2.27-18.52-2v-.81L467.15,542Zm.62-2.27-19.13-1.61v-.77l19.47,1.21C467.67,540.17,467.56,540.56,467.45,541Zm.67-2.3-19.8-1.17v-.74l20.15.78Zm.73-2.32-20.54-.7v-.71l20.89.32C469.08,535.6,469,536,468.85,536.33Zm.77-2.34-21.32-.21v-.68l21.69-.17Zm.84-2.36-22.18.29v-.64l22.55-.68Zm.89-2.4-23.09.84v-.61l23.48-1.22Zm1-2.44-24.07,1.43v-.58l24.46-1.8Zm1-2.47-25.13,2.06v-.56l25.52-2.4Zm1.1-2.51-26.26,2.73V524l26.66-3Zm1.18-2.56-27.48,3.44v-.5L476,518.44Zm1.27-2.61-28.78,4.22v-.49l29.17-4.48Zm1.37-2.67-30.19,5v-.46l30.57-5.28ZM448,516.75l32.07-6.14-.35.62-31.71,6Zm0-1.81,33.7-7.07-.33.55L448,515.36Z" transform="translate(-326.69 -500.36)"/><path class="cls-2" d="M498,539.66,469.11,537c.14-.46.28-.91.43-1.36L498,539v.69Zm-29.21-1.52,29.2,2.68v.66l-29.6-2C468.49,539,468.62,538.59,468.76,538.14Zm29.58-22.06-16.57-8.28c.21-.36.4-.69.58-1l16,8.16Zm-35.4,58.55h0l35.46-8.07.05.24v.06L462.93,575ZM483.5,505l14.94,8.11v.18l0,.83-.07.11L482.9,506Zm-2.25,3.66,17.06,8.1,0,1.07-17.61-8.15C480.87,509.36,481.06,509,481.25,508.7Zm-1.09,1.94,18.1,8,0,1-18.65-8Zm-1.08,2,19.13,7.82,0,1-19.67-7.7C478.7,513.38,478.9,513,479.08,512.65ZM478,514.72l20.13,7.59,0,1-20.69-7.39Zm-1,2.13,21.14,7.31,0,.92-21.69-7Q476.71,517.43,477,516.85ZM476,519l22.13,7,0,.89-22.67-6.63Zm-1,2.23,23.1,6.59v.86l-23.64-6.17C474.59,522.11,474.78,521.68,475,521.26Zm-1,2.28,24,6.17v.82l-24.58-5.68Zm-1,2.34,25,5.68v.79l-25.49-5.14C472.68,526.76,472.86,526.32,473,525.88Zm-.92,2.37L498,533.41v.77L471.6,529.6Zm-.89,2.42L498,535.26V536l-27.25-4C470.89,531.57,471.05,531.12,471.22,530.67Zm-.86,2.46,27.61,4v.71l-28.07-3.34C470.05,534,470.21,533.58,470.36,533.13ZM468,540.69l30,2v.64L467.65,542C467.77,541.57,467.89,541.13,468,540.69Zm-.7,2.58L498,544.53v.61l-31-.58Zm-.65,2.59,31.31.51V547l-31.62.16Zm-.6,2.61,31.93-.25v.57l-32.2.89C465.89,549.28,466,548.87,466.07,548.47Zm-.55,2.62,32.5-1v.54l-32.74,1.64C465.36,551.86,465.44,551.48,465.52,551.09Zm-.51,2.64,33-1.82v.53l-33.23,2.38C464.89,554.45,465,554.09,465,553.73Zm-.44,2.63,33.51-2.61v.51l-33.67,3.13Zm-.4,2.64,33.94-3.41v.49L464,560Zm-.34,2.63,34.32-4.2v.46l-34.43,4.61Zm-.29,2.63,34.66-5v.45L463.47,565Zm-.23,2.62,34.94-5.79v.43l-35,6.05Zm-.18,2.6,35.18-6.57v.42l-35.22,6.74Zm-.12,2.59,35.36-7.34,0,.41L463,572.56Z" transform="translate(-326.69 -500.36)"/><path class="cls-2" d="M388.52,550.42c-.18.12-.31.21-.49.31a18.05,18.05,0,0,1-5.14,2.14l-.59.15a16.57,16.57,0,0,1-1.79.37c-.43.07-.88.12-1.34.16a23.65,23.65,0,0,1-2.79.09,20.52,20.52,0,0,1-2.28-.16,11,11,0,0,1-3.87-1.17,7.35,7.35,0,0,1-2.81-2.54c-1.47-2.54-1.45-6.71-1.49-9.59-.09-6.66,1.17-13.8,11.95-13.8H379c6.91,0,10.1,3.37,10.14,8.19v.17c.09,4.56-3.45,7.06-7.71,8.52-1,.36-3.7.94-4.57,1.13l0-.17a34.58,34.58,0,0,0-1.23-4.84,12,12,0,0,0,4.86-1.87,7,7,0,0,0,.83-.81,3.57,3.57,0,0,0,.58-2.67,3.09,3.09,0,0,0-.1-.62,2.51,2.51,0,0,0-1.21-1.7,3.75,3.75,0,0,0-1.3-.48l-.19,0H379c-2.87-.29-5.22.58-5.77,3.81-.07.46-.13.89-.18,1.28l-.09,2.37a29.44,29.44,0,0,0,.11,4.87,10.06,10.06,0,0,0,.83,3.42,2.85,2.85,0,0,0,1.29,1.15l.32.1.09,0a5.55,5.55,0,0,0,1,.21l.49.05a2.05,2.05,0,0,0,.49,0h.18a17.07,17.07,0,0,0,8.06-2.1l.5-.28c.52-.34,1.05-.7,1.54-1.09,0,0,.43,3.84.74,5.26l0,.06Z" transform="translate(-326.69 -500.36)"/><path class="cls-2" d="M391.13,550.91l-.07,0a45.46,45.46,0,0,0,.72-5.44,33.38,33.38,0,0,0,3.9,2.08,13.41,13.41,0,0,0,1.56.52,15.15,15.15,0,0,0,3.69.57h.1l.43,0a4,4,0,0,0,2.86-1.52,3,3,0,0,0,.23-2c-.23-.88-.88-1.62-2.84-2.14l-3-.74c-4.19-1-7-3.17-7-7.71a6.91,6.91,0,0,1,.4-2.33,7.69,7.69,0,0,1,2.38-3.6,7.11,7.11,0,0,1,.6-.49l.09-.06a9.5,9.5,0,0,1,4.08-1.47,21.65,21.65,0,0,1,3-.15,17.78,17.78,0,0,1,8.31,2.15,35.07,35.07,0,0,0-1.05,5.13,10.18,10.18,0,0,0-.94-.62,11.2,11.2,0,0,0-5.72-1.92c-.19,0-.43,0-.61,0a2.88,2.88,0,0,0-3.08,2.63,2.16,2.16,0,0,0,1.46,2.32l.07,0a6.11,6.11,0,0,0,1.1.31l.09,0a37.65,37.65,0,0,1,3.81.88c6,2,6,6.94,6,8a8.15,8.15,0,0,1-2.93,6,9.89,9.89,0,0,1-5.11,2.22,17.46,17.46,0,0,1-2.32.14,23.29,23.29,0,0,1-3.53-.34,17.53,17.53,0,0,1-2.26-.53A26,26,0,0,1,391.13,550.91Z" transform="translate(-326.69 -500.36)"/><path class="cls-2" d="M415.16,529.88c.18-.12.36-.25.55-.36a17.16,17.16,0,0,1,4.9-2.22l.57-.17a17.2,17.2,0,0,1,1.71-.41c.41-.07.84-.13,1.28-.18a18.17,18.17,0,0,1,2.66-.15h.43a20,20,0,0,1,2.18.1c2.53.28,5,1.27,6.29,3.55a11.6,11.6,0,0,1,1.06,5.26s0,1.72,0,2.34c0,2.76,0,12.59,0,12.59a26.28,26.28,0,0,1-16.09,3.13c-5.06-.76-7.32-3.83-7.2-8v-.18c.07-4.53,3.68-7,8-8.47,1-.37,3.71-.94,4.6-1.13a37,37,0,0,0,1.06,4.93l-.41.07a11.63,11.63,0,0,0-4.73,1.84,6.28,6.28,0,0,0-.83.8,3.62,3.62,0,0,0-.59,2.67,4.1,4.1,0,0,0,.11.61,2.51,2.51,0,0,0,1.21,1.7,3.72,3.72,0,0,0,.76.35h.07l.46.11s.22,0,.37,0a13.34,13.34,0,0,0,6.44-1.16V535.45a7.25,7.25,0,0,0-.37-2,2.17,2.17,0,0,0-.15-.35,3.12,3.12,0,0,0-.51-.62,3.41,3.41,0,0,0-1.32-.76,5.58,5.58,0,0,0-1-.19l-.47,0h-.64a16.52,16.52,0,0,0-7.69,2.25l-.48.29a12,12,0,0,0-1.46,1.12c-.05-.67-.49-4.37-.71-5.12Z" transform="translate(-326.69 -500.36)"/><path class="cls-2" d="M333.56,553.39c-.54-.07-1.06-.11-1.61-.13a46.19,46.19,0,0,0-5.26.12l0-22.47v-1.27a26.4,26.4,0,0,1,13.14-3.28,9.12,9.12,0,0,1,5,1.5,25,25,0,0,1,9.16-1.5c5,.21,7.48,3,7.78,7l0,.17a9.29,9.29,0,0,1,0,1v18.83c-.53-.07-1.05-.11-1.59-.13a46.54,46.54,0,0,0-5.28.12l0-20c-.23-1.91-1.46-2.22-3.31-2.22a11.3,11.3,0,0,0-4.11,1.2q.07.47.12,1v.17a7,7,0,0,1,0,1.21v18.67c-.54-.07-1.05-.11-1.59-.13a46.54,46.54,0,0,0-5.28.12l0-19.43c0-2.41-1.35-2.76-3.35-2.74a11.2,11.2,0,0,0-3.93,1.16Z" transform="translate(-326.69 -500.36)"/><path class="cls-2" d="M435.55,525.52a1.3,1.3,0,1,0,1.3-1.3A1.3,1.3,0,0,0,435.55,525.52Zm-.32,0a1.62,1.62,0,1,1,1.62,1.61A1.61,1.61,0,0,1,435.23,525.52Z" transform="translate(-326.69 -500.36)"/><path class="cls-1" d="M436.57,525h.37c.15,0,.24.06.24.2a.21.21,0,0,1-.24.22h-.37Zm0,.68H437c.12,0,.14.13.15.22a3,3,0,0,0,.06.42h.37a.92.92,0,0,1-.09-.37c0-.23,0-.39-.29-.41h0a.38.38,0,0,0,.33-.38c0-.33-.28-.42-.55-.42h-.76v1.59h.34Z" transform="translate(-326.69 -500.36)"/><path class="cls-3" d="M569.34,513.46c0,.55,0,1,0,1.44l.27.26.59,0q17.53,0,35.08,0a1.39,1.39,0,0,1,1.21.51c.25.31.55.58.83.87l0,.1H569.47a2.74,2.74,0,0,0,0,1.68h.72q19.1,0,38.18,0a1.54,1.54,0,0,1,1.32.54c.27.33.58.62,1,1H569.38v1.61l.43.06h.54q20.64,0,41.29,0a1.38,1.38,0,0,1,1.17.49c.26.31.56.59.87.91l-.54.07H569.39a5,5,0,0,0,0,1.68c.27,0,.51,0,.75,0h44.79a1.22,1.22,0,0,1,1.06.45c.27.31.58.59.87.88a.69.69,0,0,1,.25.61V527q0,13.07,0,26.12a1.37,1.37,0,0,1-.47,1.13c-.33.28-.63.61-.94.91l-.08,0,0,0V526.4l0-.11a4.88,4.88,0,0,0-1.58,0c0,.28,0,.53,0,.77q0,14.58,0,29.18a1.49,1.49,0,0,1-.54,1.3,7,7,0,0,0-.84.87l-.09-.36V527.07c0-.86.1-.85-.84-.85s-.88,0-.88.91q0,16.17,0,32.34a1.42,1.42,0,0,1-.51,1.22,13.26,13.26,0,0,0-1,.93V526.31a5.51,5.51,0,0,0-1.67-.06c0,.28-.06.52-.06.76v9.07q0,13.27,0,26.54a1.4,1.4,0,0,1-.5,1.22c-.3.25-.55.55-.93.92,0-.34,0-.53,0-.74V549.7q0-11.28,0-22.58v-.83a5.35,5.35,0,0,0-1.74,0v.77q0,19.38,0,38.78a1.33,1.33,0,0,1-.48,1.17c-.31.26-.58.57-1,1,0-.34,0-.54,0-.74V538.47q0-5.73,0-11.48c0-.77,0-.77-.76-.77l-1,0v.81q0,20.84,0,41.66v.6a.83.83,0,0,1-.28.71c-.37.34-.68.71-1,1.07l-.14-.05V547.55c0-6.85,0-13.69,0-20.54,0-.79,0-.79-.79-.79-.27,0-.52,0-.87,0v32.26c0,4.52,0,9,0,13.57a1.56,1.56,0,0,1-.59,1.34c-.31.26-.58.56-1,.93V526.27c-.24,0-.43,0-.63,0H570l-.59,0c0,.29,0,.55,0,.82q0,11.2,0,22.41,0,12,0,24a1.9,1.9,0,0,1-.09.68l-.41-.38a4,4,0,0,1-.92-1,3.61,3.61,0,0,1-.06-1.32q0-31.82,0-63.61a1.31,1.31,0,0,1,.46-1.12A4.5,4.5,0,0,0,569,506a1,1,0,0,1,.86-.35h15.65c3.29,0,6.58,0,9.87,0a1.85,1.85,0,0,1,1.72.7,7.13,7.13,0,0,0,.61.62l0,.15H569.4a4.39,4.39,0,0,0-.06,1.48l.23.22.64,0q14.34,0,28.65,0a1.52,1.52,0,0,1,1.3.55,11.59,11.59,0,0,0,.93.93c-.7,0-1.28,0-1.86,0H569.39V512h.82q16,0,31.91,0a1.36,1.36,0,0,1,1.16.5,10.29,10.29,0,0,1,.84,1l-.6,0H569.34Z" transform="translate(-326.69 -500.36)"/><path class="cls-3" d="M583,528.5a11.33,11.33,0,1,1-11.36,11.28A11.3,11.3,0,0,1,583,528.5" transform="translate(-326.69 -500.36)"/><path class="cls-3" d="M566.09,571.1l-1.31-1.31-.09-.35V510.8A.86.86,0,0,1,565,510c.36-.34.7-.7,1.06-1.07.12.41.14,61.48,0,62.13" transform="translate(-326.69 -500.36)"/><path class="cls-3" d="M563,512.22V567.9l-.38-.32a4.16,4.16,0,0,1-1-1.1,3.77,3.77,0,0,1-.06-1.43q0-25.39,0-50.79A1.45,1.45,0,0,1,562,513a10.83,10.83,0,0,0,.83-.83Z" transform="translate(-326.69 -500.36)"/><path class="cls-3" d="M559.71,564.73c-.45-.45-.9-.9-1.34-1.37l-.08-.35c0-.35,0-.71,0-1.07l0-44.12c0-1.1,0-1.1.79-1.9a4,4,0,0,1,.61-.52c.1,16.44.09,32.86.1,49.28Z" transform="translate(-326.69 -500.36)"/><path class="cls-3" d="M556.54,561.56c-.45-.46-.88-.88-1.29-1.32l-.1-.34v-.49q0-19.36,0-38.76a1.51,1.51,0,0,1,.55-1.31,9.82,9.82,0,0,0,.84-.86c.12.45.13,42.42,0,43.08" transform="translate(-326.69 -500.36)"/><path class="cls-3" d="M553.37,521.65c.12.67.12,36.23,0,36.72-.49-.47-.93-.92-1.35-1.39l-.06-.26v-.42q0-16.24,0-32.49a1.4,1.4,0,0,1,.52-1.21c.31-.26.57-.59.92-1" transform="translate(-326.69 -500.36)"/><path class="cls-3" d="M550.25,524.88v30.31l-.33-.26a4.52,4.52,0,0,1-1.07-1.17,3.87,3.87,0,0,1-.09-1.53q0-12.66,0-25.31a1.21,1.21,0,0,1,.43-1c.28-.24.53-.53.8-.79Z" transform="translate(-326.69 -500.36)"/><path class="cls-3" d="M632.76,551.18H627c-.26-.49-.53-1-.79-1.55a5.45,5.45,0,0,1-1-4.3c0-3.92,0-7.83,0-11.75a2.74,2.74,0,0,0-.33-1.34c-.39-.75-.77-1.53-1.15-2.3l-.27-.61.51-.05c1.54,0,3.07,0,4.61,0a.72.72,0,0,1,.75.46c.32.67.68,1.31,1,2l.35.59.39-.41c.58-.75,1.16-1.5,1.72-2.25a.79.79,0,0,1,.72-.36c1.6,0,3.2,0,4.79,0a.69.69,0,0,1,.72.43c.43.92.93,1.83,1.35,2.75a2.48,2.48,0,0,1,.2,1c0,4.53,0,9,0,13.58a2.61,2.61,0,0,0,.28,1.23c.45.93.89,1.88,1.36,2.88l-.38.07H637a.6.6,0,0,1-.62-.38c-.47-1-1-1.92-1.45-2.91a1.9,1.9,0,0,1-.15-.82c0-4.41,0-8.81,0-13.2a3.09,3.09,0,0,0-1-2.34l-.22.39c-.74,1.13-1.5,2.25-2.23,3.38l-.22.74c0,3.75,0,7.49,0,11.24l.21.75c.39.81.81,1.6,1.22,2.41.1.21.2.4.34.7" transform="translate(-326.69 -500.36)"/><path class="cls-3" d="M659.52,551.17l-.52.05c-1.55,0-3.11,0-4.66,0a.69.69,0,0,1-.71-.43c-.33-.75-.72-1.47-1.08-2.2l-.34-.6-.4.54c-.53.76-1,1.52-1.55,2.29-.16.21-.3.38-.59.38H644.1c-.27-.56-.49-1.17-.8-1.71a7.21,7.21,0,0,1-.85-3.87c.06-4,0-8,0-12a2.46,2.46,0,0,0-.29-1.24c-.4-.79-.79-1.61-1.2-2.41l-.26-.61.59-.06c1.49,0,3,0,4.48,0a.78.78,0,0,1,.82.48c.47.89,1,1.76,1.46,2.63a1.92,1.92,0,0,1,.24,1c0,4.47,0,9,0,13.44a2.76,2.76,0,0,0,.9,2l.35-.45c.74-1.09,1.46-2.17,2.21-3.26a1.62,1.62,0,0,0,.27-.91c0-3.64,0-7.29,0-10.94a2.12,2.12,0,0,0-.23-.92c-.43-.81-.9-1.6-1.36-2.41l-.33-.63.54-.06h4.79a.75.75,0,0,1,.77.46c.43.83.88,1.66,1.35,2.48a2.4,2.4,0,0,1,.3,1.22q0,5.36,0,10.69c0,.88,0,1.76,0,2.64a3.43,3.43,0,0,0,.39,1.7c.46.87.86,1.77,1.33,2.74" transform="translate(-326.69 -500.36)"/><path class="cls-3" d="M682.87,540.19h0c0,2.31,0,4.62,0,6.93a3,3,0,0,0,.56,1.58l.35.19c.64,0,1.27,0,1.9,0l.34-.21a2.62,2.62,0,0,0,.56-1.52q0-6.9,0-13.8a3.35,3.35,0,0,0-.53-1.61l-.41-.19c-.63,0-1.26,0-1.9,0l-.46.3a4,4,0,0,0-.39,1.6c0,2.25,0,4.5,0,6.75m-4.14-10.93h.7c3.52,0,7,0,10.56,0a.85.85,0,0,1,.93.57c.39.86.84,1.68,1.23,2.55a2.33,2.33,0,0,1,.24.93v13.75a2,2,0,0,1-.21.87c-.48,1-1,1.88-1.49,2.82a.68.68,0,0,1-.71.46q-5.4,0-10.81,0a.67.67,0,0,1-.69-.46c-.42-.93-.87-1.85-1.29-2.78l-.17-.77q0-6.93,0-13.88l.08-.6c.52-1.15,1.07-2.29,1.62-3.46" transform="translate(-326.69 -500.36)"/><path class="cls-3" d="M657.93,529.28l.64,0c1.47,0,2.95,0,4.42,0a.85.85,0,0,1,.9.53c.31.65.66,1.28,1,1.91l.35.61.38-.41c.58-.75,1.15-1.49,1.7-2.25a.86.86,0,0,1,.77-.39h4.49a.75.75,0,0,1,.74.42c.52,1,1.08,1.88,1.6,2.83l.18.62q0,3.75,0,7.5l0,.34a39.44,39.44,0,0,1-5.76,0l0-.64c0-2.19,0-4.38,0-6.57a2.87,2.87,0,0,0-.9-2.16l-.29.29c-.78,1.11-1.55,2.21-2.29,3.34a1.48,1.48,0,0,0-.24.8c0,3.69,0,7.41,0,11.11a2.38,2.38,0,0,0,.22.87c.37.82.78,1.62,1.17,2.44l.28.6a35.46,35.46,0,0,1-5.7.12c-.56-1.13-1.14-2.28-1.69-3.44a2,2,0,0,1-.09-.84c0-4.36,0-8.73,0-13.08a3.35,3.35,0,0,0-.39-1.7c-.42-.71-.77-1.45-1.13-2.18-.09-.18-.16-.37-.29-.65" transform="translate(-326.69 -500.36)"/><path class="cls-3" d="M692.33,519.85l.57,0c1.59,0,3.18,0,4.79,0a.72.72,0,0,1,.75.46c.46,1,.95,2,1.45,3a2.69,2.69,0,0,1,.29,1.24c0,7.29,0,14.58,0,21.86a5,5,0,0,0,.6,2.57c.42.7.76,1.45,1.16,2.24l-.52.06c-1.59,0-3.19,0-4.79,0a.72.72,0,0,1-.75-.48c-.39-.82-.81-1.64-1.25-2.45a2.5,2.5,0,0,1-.31-1.23q0-8.19,0-16.39v-6.21a2.16,2.16,0,0,0-.24-1.05c-.48-.95-.94-1.91-1.41-2.86-.1-.2-.18-.41-.32-.7" transform="translate(-326.69 -500.36)"/><line class="cls-4" x1="197.05" x2="197.05" y2="79.28"/></svg>