<svg xmlns="http://www.w3.org/2000/svg" width="286.791" height="129.916"><defs><style>.cls-1{fill:#002361}</style></defs><g id="Group_213" data-name="Group 213" transform="translate(-1027.359 -955.802)"><path id="Path_1554" data-name="Path 1554" class="cls-1" d="M1065.952 970.595c0 1.04-.017 1.881 0 2.711l.5.508 1.11.03q32.833.014 65.666 0a2.634 2.634 0 012.275.962c.466.58 1.034 1.091 1.56 1.635l-.092.2h-70.79a5.222 5.222 0 00-.049 3.166h1.348q35.739 0 71.484-.025a2.837 2.837 0 012.462 1.009c.507.624 1.1 1.17 1.79 1.888-2.23.013-4.342 0-6.454 0h-70.75v3.051l.822.112h1q38.64 0 77.307-.021a2.577 2.577 0 012.187.919c.492.6 1.056 1.119 1.631 1.73l-1.013.134q-15.46.017-30.93.015-24.7.025-49.411.025h-1.569a9.724 9.724 0 00-.024 3.176c.507.026.964.078 1.414.078h44.983q19.417.017 38.864 0a2.3 2.3 0 012 .856c.5.592 1.08 1.115 1.625 1.66a1.347 1.347 0 01.475 1.166l-.013.607q0 24.683.024 49.369a2.582 2.582 0 01-.887 2.128c-.62.537-1.182 1.159-1.753 1.733l-.161-.066-.051-.081-.013-.2-.015-.1v-53.725l-.006-.1-.022-.1-.092-.208a9.229 9.229 0 00-2.953-.051c-.034.531-.069 1-.069 1.446q0 27.572.026 55.159a2.834 2.834 0 01-1.007 2.459 16.2 16.2 0 00-1.573 1.645l-.159-.677-.024-1.023v-57.481c0-1.616.183-1.6-1.567-1.6-1.876 0-1.661-.064-1.661 1.728q-.028 30.557.015 61.128a2.649 2.649 0 01-.944 2.3c-.578.476-1.086 1.055-1.8 1.762v-66.76a10.666 10.666 0 00-3.13-.113c-.034.531-.1 1-.1 1.452v17.134q0 25.088.021 50.176a2.659 2.659 0 01-.931 2.312c-.558.459-1.037 1.023-1.743 1.722-.037-.626-.073-1-.073-1.391V1039.1q.023-21.337.024-42.683v-1.567a9.621 9.621 0 00-3.258-.015v1.465q0 36.628.008 73.291a2.57 2.57 0 01-.9 2.227c-.571.478-1.077 1.064-1.786 1.792-.023-.639-.056-1.026-.056-1.4q-.008-27.172-.011-54.346 0-10.84-.009-21.7c0-1.446 0-1.456-1.425-1.446-.549 0-1.112.015-1.811.036v1.522q0 39.384.006 78.755v1.125a1.521 1.521 0 01-.522 1.342c-.687.654-1.281 1.346-1.93 2.038l-.251-.1-.022-1.113q-.017-21.654-.011-43.3 0-19.417-.032-38.827c0-1.49 0-1.5-1.479-1.48-.5 0-.979.036-1.627.066v60.977c0 8.55-.007 17.094.052 25.649a2.975 2.975 0 01-1.107 2.539c-.577.484-1.084 1.066-1.8 1.767v-90.9c-.449-.034-.8-.094-1.172-.094q-24.228-.014-48.475 0c-.333 0-.672.026-1.1.045-.03.554-.084 1.045-.084 1.546q-.014 21.189-.041 42.377 0 22.72-.026 45.416a3.743 3.743 0 01-.167 1.291l-.764-.714a7.818 7.818 0 01-1.732-1.936 6.78 6.78 0 01-.1-2.5V960.013a2.443 2.443 0 01.858-2.117 10.172 10.172 0 001.427-1.433 1.916 1.916 0 011.6-.648q14.643.014 29.3.009c6.167 0 12.327.045 18.479-.021a3.452 3.452 0 013.222 1.331 13.331 13.331 0 001.135 1.17l.082.287h-53.137a8.206 8.206 0 00-.125 2.792l.44.427 1.2.053q26.823-.017 53.627-.053a2.809 2.809 0 012.443 1.036 20.66 20.66 0 001.732 1.756c-1.312.076-2.393.036-3.475.042-1.06.013-2.142 0-3.205 0h-52.667v3.174h1.537q29.873-.02 59.744-.044a2.562 2.562 0 012.174.943 18.425 18.425 0 011.58 1.822l-1.129.044q-22.543.014-45.073.011h-18.921z"/><path id="Path_1555" data-name="Path 1555" class="cls-1" d="M1091.455 999.019a21.419 21.419 0 11-21.273 21.326 21.27 21.27 0 0121.273-21.326"/><path id="Path_1556" data-name="Path 1556" class="cls-1" d="M1059.857 1079.544c-.857-.862-1.666-1.652-2.443-2.473l-.176-.66-.011-1.007V965.557a1.639 1.639 0 01.588-1.438c.685-.633 1.328-1.318 2-2.019.217.784.264 116.21.047 117.444"/><path id="Path_1557" data-name="Path 1557" class="cls-1" d="M1053.986 968.245V1073.5l-.721-.613a8.01 8.01 0 01-1.885-2.07 7.235 7.235 0 01-.12-2.7q0-48.007-.009-96.008a2.733 2.733 0 01.983-2.365 21.56 21.56 0 001.548-1.576z"/><path id="Path_1558" data-name="Path 1558" class="cls-1" d="M1047.909 1067.506c-.833-.856-1.683-1.7-2.492-2.59l-.161-.658c-.013-.663 0-1.34 0-2.025q.048-41.7.051-83.394c0-2.093 0-2.093 1.483-3.6a7.43 7.43 0 011.153-.987c.18 31.088.17 62.126.18 93.165z"/><path id="Path_1559" data-name="Path 1559" class="cls-1" d="M1041.983 1061.524c-.842-.871-1.642-1.667-2.41-2.5l-.2-.652-.007-.915q0-36.631-.019-73.281a2.875 2.875 0 011.017-2.465 19.445 19.445 0 001.575-1.633c.232.854.258 80.194.045 81.445"/><path id="Path_1560" data-name="Path 1560" class="cls-1" d="M1036.039 986.078c.243 1.259.232 68.484-.011 69.4a40.623 40.623 0 01-2.526-2.628l-.1-.48-.007-.807q0-30.7-.028-61.408a2.669 2.669 0 01.955-2.289c.584-.5 1.069-1.1 1.723-1.786"/><path id="Path_1561" data-name="Path 1561" class="cls-1" d="M1030.2 992.186v57.28l-.607-.474a8.709 8.709 0 01-2.016-2.225 7.571 7.571 0 01-.159-2.89q-.023-23.928-.054-47.834a2.32 2.32 0 01.8-1.957c.522-.456.994-1 1.5-1.491z"/><g id="Group_212" data-name="Group 212"><path id="Path_1562" data-name="Path 1562" class="cls-1" d="M1184.688 1041.891h-10.844a138.99 138.99 0 01-1.479-2.928 18.828 18.828 0 01-1.811-3.86 19.046 19.046 0 01-.109-4.278c-.013-7.4-.026-14.784.008-22.192a5.288 5.288 0 00-.607-2.535c-.747-1.423-1.447-2.9-2.166-4.357l-.5-1.148.959-.093c2.874-.008 5.752.019 8.622-.017a1.336 1.336 0 011.412.87c.594 1.265 1.264 2.474 1.913 3.716l.65 1.108.726-.773c1.09-1.41 2.17-2.828 3.228-4.244a1.44 1.44 0 011.348-.677q4.485.037 8.961 0a1.268 1.268 0 011.342.807c.818 1.745 1.749 3.454 2.543 5.2a4.714 4.714 0 01.365 1.888c.028 8.557.052 17.1.028 25.659a5.1 5.1 0 00.521 2.342c.85 1.756 1.664 3.548 2.544 5.433l-.721.132c-3.016.015-6.04 0-9.064.025a1.125 1.125 0 01-1.17-.716c-.884-1.83-1.846-3.639-2.715-5.5a3.738 3.738 0 01-.281-1.56c-.019-8.325-.071-16.65.024-24.956a5.85 5.85 0 00-1.968-4.412l-.408.737c-1.387 2.129-2.816 4.246-4.182 6.387l-.414 1.393q-.07 10.636-.073 21.251l.387 1.425c.73 1.531 1.533 3.025 2.286 4.55.2.387.373.762.644 1.319"/><path id="Path_1563" data-name="Path 1563" class="cls-1" d="M1234.8 1041.882l-.975.081c-2.913 0-5.828-.023-8.73.006a1.263 1.263 0 01-1.32-.822c-.637-1.406-1.356-2.773-2.039-4.159l-.625-1.125-.749 1.028c-.99 1.422-1.953 2.87-2.909 4.321-.29.4-.554.728-1.1.728-3.432-.034-6.888-.032-10.428-.032-.492-1.062-.906-2.2-1.492-3.227a13.7 13.7 0 01-1.6-7.321c.112-7.6.026-15.169.045-22.759a4.712 4.712 0 00-.537-2.336c-.751-1.5-1.489-3.043-2.247-4.561l-.492-1.159 1.11-.114c2.786-.008 5.587.021 8.386-.011a1.454 1.454 0 011.526.909c.878 1.684 1.811 3.334 2.739 4.971a3.6 3.6 0 01.451 1.885c-.028 8.459 0 16.948-.079 25.417a5.2 5.2 0 001.693 3.854l.651-.853c1.384-2.055 2.722-4.108 4.13-6.159a3.007 3.007 0 00.507-1.728c0-6.89.03-13.784.011-20.67a4.147 4.147 0 00-.445-1.747c-.8-1.541-1.683-3.028-2.539-4.556l-.614-1.2 1.005-.114c2.981-.008 5.982.006 8.97-.011a1.378 1.378 0 011.436.875 115.737 115.737 0 002.53 4.68 4.584 4.584 0 01.569 2.312q-.031 10.108-.043 20.2c0 1.671.043 3.327-.021 5a6.472 6.472 0 00.736 3.215c.857 1.641 1.614 3.331 2.494 5.177"/><path id="Path_1564" data-name="Path 1564" class="cls-1" d="M1278.51 1021.113h-.049c0 4.365.034 8.735-.021 13.1a5.787 5.787 0 001.058 2.994l.655.359c1.193.051 2.382.051 3.556 0l.636-.4a4.983 4.983 0 001.054-2.869q-.056-13.046 0-26.086a6.224 6.224 0 00-1-3.036l-.762-.376c-1.178-.032-2.372-.015-3.557-.032l-.878.577a7.812 7.812 0 00-.721 3.015c.041 4.253.024 8.5.024 12.758m-7.755-20.661h1.3c6.6 0 13.184.047 19.782.009a1.584 1.584 0 011.743 1.079c.715 1.62 1.575 3.172 2.3 4.809a4.708 4.708 0 01.438 1.758q.017 13 0 26a3.682 3.682 0 01-.393 1.643c-.889 1.815-1.87 3.554-2.782 5.344a1.284 1.284 0 01-1.331.854q-10.113-.051-20.241 0a1.257 1.257 0 01-1.294-.871c-.777-1.747-1.633-3.489-2.411-5.251l-.324-1.454q0-13.108.024-26.23l.144-1.132c.976-2.174 2-4.34 3.039-6.554"/><path id="Path_1565" data-name="Path 1565" class="cls-1" d="M1231.805 1000.5c.541-.034.869-.066 1.2-.066 2.76 0 5.521.03 8.277-.015a1.588 1.588 0 011.694 1c.569 1.244 1.219 2.419 1.848 3.618l.642 1.144.725-.764c1.073-1.418 2.144-2.826 3.187-4.255a1.561 1.561 0 011.442-.733q4.187.02 8.4 0a1.359 1.359 0 011.378.788c.975 1.8 2.027 3.546 3.007 5.348l.33 1.178q.025 7.086.017 14.17l-.069.654a74.874 74.874 0 01-10.792.028l-.056-1.206c-.006-4.144-.09-8.285.026-12.417a5.36 5.36 0 00-1.687-4.079l-.541.544c-1.453 2.093-2.908 4.181-4.293 6.312a2.752 2.752 0 00-.446 1.5c-.039 6.988-.039 14-.019 21.007a4.428 4.428 0 00.414 1.652c.689 1.55 1.457 3.06 2.185 4.6l.524 1.149a66.573 66.573 0 01-10.659.216c-1.054-2.129-2.147-4.3-3.17-6.5a3.623 3.623 0 01-.176-1.588c0-8.245-.013-16.493.013-24.717a6.467 6.467 0 00-.743-3.223c-.79-1.342-1.434-2.735-2.11-4.121-.172-.336-.309-.7-.548-1.219"/><path id="Path_1566" data-name="Path 1566" class="cls-1" d="M1296.218 982.668l1.067-.078c2.975 0 5.956.025 8.968-.011a1.331 1.331 0 011.4.873c.874 1.9 1.788 3.775 2.711 5.618a5 5 0 01.545 2.357c-.021 13.767 0 27.545-.058 41.312a9.444 9.444 0 001.138 4.868c.784 1.312 1.413 2.741 2.162 4.225l-.974.115c-2.982.011-5.978-.01-8.966.017a1.343 1.343 0 01-1.406-.9c-.732-1.561-1.524-3.1-2.34-4.641a4.8 4.8 0 01-.575-2.318q.034-15.5.022-30.98c0-3.92-.015-7.831 0-11.742a4.241 4.241 0 00-.449-1.994c-.908-1.788-1.767-3.6-2.646-5.4-.185-.384-.346-.767-.6-1.325"/></g></g></svg>