<svg id="Layer_1" data-name="Layer 1" xmlns="http://www.w3.org/2000/svg" viewBox="0 0 260.26 211.13"><defs><style>.cls-1{fill:#f7f7f7;stroke-miterlimit:10;stroke-width:2px;}.cls-1,.cls-3{stroke:#282828;}.cls-2{fill:#282828;}.cls-3{fill:none;stroke-linejoin:round;stroke-width:3.63px;}</style></defs><rect class="cls-1" x="7.34" y="7.93" width="245.58" height="195.26"/><path class="cls-2" d="M60.71,126.11a4.61,4.61,0,0,0-4,2.44L54.13,127a9.68,9.68,0,0,1,2.81-2.88,7.34,7.34,0,0,1,4-1,6.39,6.39,0,0,1,4.24,1.53A5.17,5.17,0,0,1,67,128.91a5.59,5.59,0,0,1-.77,2.84,18.72,18.72,0,0,1-2.84,3.48l-4.54,4.62h8.76V143H54.35v-2.76l5.86-5.89A31.58,31.58,0,0,0,63,131.2a3.82,3.82,0,0,0,.83-2.29,2.58,2.58,0,0,0-.88-2A3.2,3.2,0,0,0,60.71,126.11Z"/><path class="cls-2" d="M71.15,126.56v-2.9H82.46v2.54l-4.67,5.22a5.66,5.66,0,0,1,4.14,1.67,5.34,5.34,0,0,1,1.49,3.8,5.72,5.72,0,0,1-2,4.64,7.7,7.7,0,0,1-5.15,1.69,11,11,0,0,1-6.17-2l1.39-2.62a8.59,8.59,0,0,0,5,1.66,4.69,4.69,0,0,0,2.78-.79,2.62,2.62,0,0,0,1.09-2.27,2.79,2.79,0,0,0-1.22-2.36,5.62,5.62,0,0,0-3.37-.89,7.1,7.1,0,0,0-2.07.31v-2.49l4.48-5.19Z"/><path class="cls-2" d="M86.27,129.21v-5.55h13.6v2.9L91.69,143h-3.6l8-16.36H89.23v2.6Z"/><path class="cls-2" d="M101.22,142.58a2,2,0,0,1-.58-1.46,2,2,0,0,1,2-2.05,2,2,0,0,1,1.46.6,2,2,0,0,1,.61,1.45,2,2,0,0,1-.61,1.46,2.06,2.06,0,0,1-2.93,0Z"/><path class="cls-2" d="M109.84,140.48a14.52,14.52,0,0,1,0-14.57,7.79,7.79,0,0,1,11.83,0,14.5,14.5,0,0,1,0,14.56,7.8,7.8,0,0,1-11.83,0ZM112.16,128a10.52,10.52,0,0,0-1.13,5.22,10.35,10.35,0,0,0,1.15,5.22,4.19,4.19,0,0,0,7.13,0,12.79,12.79,0,0,0,0-10.47,3.78,3.78,0,0,0-3.55-2A3.87,3.87,0,0,0,112.16,128Z"/><path class="cls-2" d="M128.85,140.48a14.52,14.52,0,0,1,0-14.57,7.79,7.79,0,0,1,11.83,0,14.5,14.5,0,0,1,0,14.56,7.8,7.8,0,0,1-11.83,0ZM131.17,128a10.52,10.52,0,0,0-1.13,5.22,10.35,10.35,0,0,0,1.15,5.22,3.83,3.83,0,0,0,3.58,2,3.79,3.79,0,0,0,3.55-2,12.79,12.79,0,0,0,0-10.47,3.78,3.78,0,0,0-3.55-2A3.89,3.89,0,0,0,131.17,128Z"/><path class="cls-2" d="M147.87,140.48a14.45,14.45,0,0,1,0-14.57,7.78,7.78,0,0,1,11.82,0,14.5,14.5,0,0,1,0,14.56,7.79,7.79,0,0,1-11.82,0ZM150.19,128a12.47,12.47,0,0,0,0,10.44,3.83,3.83,0,0,0,3.58,2,3.79,3.79,0,0,0,3.55-2,12.79,12.79,0,0,0,0-10.47,3.78,3.78,0,0,0-3.55-2A3.86,3.86,0,0,0,150.19,128Z"/><path class="cls-2" d="M176.8,143h-3.26V123.66h5.08l5.83,12.13,5.83-12.13h5.06V143h-3.26V127.88l-6.74,13.4h-1.83l-6.71-13.4Z"/><path class="cls-2" d="M202.66,123.94a2.68,2.68,0,0,0-2.3,1.42l-1.53-.89a5.43,5.43,0,0,1,1.63-1.67,4.22,4.22,0,0,1,2.3-.57,3.73,3.73,0,0,1,2.48.9,3,3,0,0,1,1.06,2.44,3.31,3.31,0,0,1-.45,1.66,11.28,11.28,0,0,1-1.66,2L201.55,132h5.1v1.82H199v-1.61l3.42-3.43a20.72,20.72,0,0,0,1.63-1.82,2.29,2.29,0,0,0,.48-1.34,1.48,1.48,0,0,0-.52-1.15A1.82,1.82,0,0,0,202.66,123.94Z"/><path class="cls-2" d="M75.8,166.18a7.92,7.92,0,0,1-10.84,0,7.58,7.58,0,0,1,0-10.68,7.93,7.93,0,0,1,10.84,0,7.59,7.59,0,0,1,0,10.69ZM74,157.12a5,5,0,0,0-7.25,0,5.4,5.4,0,0,0,0,7.43,5.07,5.07,0,0,0,7.26,0,5.39,5.39,0,0,0,0-7.43Z"/><path class="cls-2" d="M92.63,158.4q0,3.58-3.12,4.51l3.78,5.26h-3.1l-3.46-4.86H83.52v4.86H81.08V153.7h5.38c2.21,0,3.79.37,4.74,1.12A4.24,4.24,0,0,1,92.63,158.4Zm-6-2.48H83.52v5.17h3a4.43,4.43,0,0,0,2.81-.64,2.57,2.57,0,0,0,.75-2.06,2.23,2.23,0,0,0-.77-1.95A5.12,5.12,0,0,0,86.63,155.92Z"/><path class="cls-2" d="M101.41,155.94v12.23H99V155.94H94.58V153.7H105.8v2.24Z"/><path class="cls-2" d="M109.36,164.88l-1.45,3.29H105.3l6.38-14.47h2.6l6.38,14.47h-2.61l-1.45-3.29Zm6.25-2.26-2.63-6-2.63,6Z"/><path class="cls-2" d="M122.67,153.7h2.44v7.06l6.62-7.06h3.11L129,160l5.9,8.13H132l-4.8-6.33-2.11,2.27v4.06h-2.44Z"/><path class="cls-2" d="M148.6,168.17h-2.48v-5.71l-5.38-8.76h2.67l4,6.58,4-6.58H154l-5.39,8.76Z"/><path class="cls-2" d="M166,153.7V156h-7.72v3.83h6.94V162h-6.94v3.87h8v2.3H155.83V153.7Z"/><path class="cls-2" d="M174.21,168.34a8.79,8.79,0,0,1-6-2.34l1.53-1.84a6.93,6.93,0,0,0,4.55,1.9,3.13,3.13,0,0,0,1.88-.51,1.58,1.58,0,0,0,.69-1.34,1.53,1.53,0,0,0-.65-1.31,7,7,0,0,0-2.25-.85,20,20,0,0,1-2.42-.7,5.31,5.31,0,0,1-1.47-.84,3.49,3.49,0,0,1-1.28-3,3.6,3.6,0,0,1,1.46-3.09,5.82,5.82,0,0,1,3.61-1.09,8.75,8.75,0,0,1,2.75.45,7.35,7.35,0,0,1,2.36,1.29l-1.3,1.84a4.94,4.94,0,0,0-1.74-1,6.63,6.63,0,0,0-2.16-.37A3.17,3.17,0,0,0,172,156a1.45,1.45,0,0,0-.69,1.32,1.52,1.52,0,0,0,.69,1.34,10,10,0,0,0,2.9,1,8,8,0,0,1,3.36,1.52,3.56,3.56,0,0,1,1.13,2.86,3.81,3.81,0,0,1-1.43,3.08A5.73,5.73,0,0,1,174.21,168.34Zm1.66,2.25a1.83,1.83,0,0,1-.64,1.38,2.33,2.33,0,0,1-1.63.59,3.2,3.2,0,0,1-1.73-.46l.54-1.18a1.68,1.68,0,0,0,.8.21.82.82,0,0,0,.63-.24.81.81,0,0,0,.23-.57.86.86,0,0,0-.24-.59.79.79,0,0,0-.6-.26,1.55,1.55,0,0,0-.61.11l.74-1.41h1.47l-.41.79A1.48,1.48,0,0,1,175.87,170.59Z"/><path class="cls-2" d="M182.55,151.61a1.52,1.52,0,0,1-.43-1.1,1.52,1.52,0,0,1,1.53-1.53,1.52,1.52,0,0,1,1.1.45,1.46,1.46,0,0,1,.45,1.08,1.5,1.5,0,0,1-.45,1.1,1.55,1.55,0,0,1-2.2,0Zm-.14,2.09h2.44v14.47h-2.44Z"/><path class="cls-2" d="M188.87,168.17V153.7h2.44v12.15h6.6v2.32Z"/><path class="cls-2" d="M104.32,190.08l-1.45,3.29h-2.61l6.38-14.47h2.6l6.38,14.47H113l-1.45-3.29Zm6.25-2.26-2.63-6-2.63,6Z"/><path class="cls-2" d="M117.63,193.37V178.9h2.44v12.15h6.6v2.32Z"/><path class="cls-2" d="M131.39,190.08l-1.45,3.29h-2.6l6.37-14.47h2.61l6.37,14.47h-2.6l-1.45-3.29Zm6.25-2.26-2.62-6-2.63,6Z"/><path class="cls-2" d="M155.55,178.9H158v14.47h-2.65l-8.19-10.56v10.56H144.7V178.9h2.45l8.4,10.81Z"/><path class="cls-3" d="M132.48,113v-5.45c0-2.83-1.81-6.46-1.81-14.52,0-5.33,10.26-13.32,10.26-13.32l9.7-6.64c6.46-7.83,4.54-10.89,14.52-10.89a63.75,63.75,0,0,1-3.63,12.7s-5.67,5.45-9.08,9.08"/><path class="cls-3" d="M165.15,62.21V58.58s-1.82-16.45,7.26-16.45l1.81,16.34s-1.81,17.58-1.81,20.07c0,3.63-20,16.28-20,25.41V113"/><path class="cls-3" d="M166.63,46.12,165.15,35c-2.38,0-7.83,2.72-7.26,10.89a72.59,72.59,0,0,1,0,12.7"/><path class="cls-3" d="M158.09,47.24l-.2-8.74c-4.88,0-7.26,4.94-7.26,9.19a147.29,147.29,0,0,1,0,16.34"/><path class="cls-3" d="M125.22,113v-5.45c0-2.83,1.82-6.46,1.82-14.52,0-5.33-10.27-13.32-10.27-13.32l-9.7-6.64c-6.46-7.83-4.54-10.89-14.52-10.89a63.75,63.75,0,0,0,3.63,12.7s5.67,5.45,9.08,9.08"/><path class="cls-3" d="M92.55,62.21V58.58s1.82-16.45-7.26-16.45L83.48,58.47s1.81,17.58,1.81,20.07c0,3.63,20,16.28,20,25.41V113"/><path class="cls-3" d="M91.07,46.12,92.55,35c2.38,0,7.83,2.72,7.26,10.89a72.59,72.59,0,0,0,0,12.7"/><path class="cls-3" d="M99.61,47.24l.2-8.74c4.88,0,7.26,4.94,7.26,9.19a147.29,147.29,0,0,0,0,16.34"/><path class="cls-3" d="M112.52,76.73c3-5.44,8.5-6.81,10.09-7.83s4.2-4.87,6.24-4.87,4.31,5.33,7.26,5.44a10.76,10.76,0,0,1,8.17,4.08l1.36,2.73"/><line class="cls-3" x1="128.85" y1="29.54" x2="128.85" y2="64.03"/><path class="cls-3" d="M128.85,56.77c10.89,0,16.33-10,16.33-18.15,0-8.32-5.44-10.89-5.44-10.89C139.51,19.11,134.37,15,128.85,15c-2.8,0-10.89,5.37-9.07,14.52,0,0-7.26,2.23-7.26,9.08S117.58,56.77,128.85,56.77Z"/><line class="cls-3" x1="128.85" y1="42.25" x2="136.11" y2="34.99"/><line class="cls-3" x1="128.85" y1="51.32" x2="119.78" y2="42.25"/></svg>