<svg id="Layer_1" data-name="Layer 1" xmlns="http://www.w3.org/2000/svg" viewBox="0 0 260.26 211.13"><defs><style>.cls-1{fill:#f7f7f7;stroke:#282828;stroke-miterlimit:10;stroke-width:2px;}.cls-2{fill:#282828;}</style></defs><rect class="cls-1" x="7.34" y="7.93" width="245.58" height="195.26"/><path class="cls-2" d="M77.67,136.81a4.31,4.31,0,0,0-3.79,1.74,8.23,8.23,0,0,0-1.24,4.7,7,7,0,0,1,2-1.45,6.14,6.14,0,0,1,2.87-.68,6,6,0,0,1,4.36,1.73,6.14,6.14,0,0,1,1.75,4.59,6,6,0,0,1-1.89,4.6A6.77,6.77,0,0,1,77,153.78a6.41,6.41,0,0,1-6.41-4.14,13.89,13.89,0,0,1-1-5.37,16.7,16.7,0,0,1,.63-5,8.15,8.15,0,0,1,1.74-3.15,7,7,0,0,1,5.29-2.27,9,9,0,0,1,5.68,2l-1.63,2.4a6,6,0,0,0-1.7-1A5,5,0,0,0,77.67,136.81ZM77.06,144a4.23,4.23,0,0,0-2.77.92,3,3,0,0,0-1.12,2.41,3.48,3.48,0,0,0,1.07,2.54A3.69,3.69,0,0,0,77,150.93a3.92,3.92,0,0,0,2.71-1,3.1,3.1,0,0,0,1.08-2.43A3.48,3.48,0,0,0,77.06,144Z"/><path class="cls-2" d="M87.43,153.17a2,2,0,0,1-.58-1.46,2,2,0,0,1,2-2.05,2,2,0,0,1,1.46.6,1.93,1.93,0,0,1,.61,1.45,2.06,2.06,0,0,1-3.53,1.46Z"/><path class="cls-2" d="M102.07,145.74V142.2h3.1v3.54h2.32v3h-2.32v4.86h-3.1V148.7H93.78v-2.88l7.1-11.58h3.57l-7,11.5Z"/><path class="cls-2" d="M112.16,151.07a14.45,14.45,0,0,1,0-14.57,7.76,7.76,0,0,1,11.82,0,14.44,14.44,0,0,1,0,14.56,7.79,7.79,0,0,1-11.82,0Zm2.32-12.52a12.49,12.49,0,0,0,0,10.45,3.84,3.84,0,0,0,3.58,2,3.79,3.79,0,0,0,3.55-2,12.79,12.79,0,0,0,0-10.47,3.78,3.78,0,0,0-3.55-2A3.87,3.87,0,0,0,114.48,138.55Z"/><path class="cls-2" d="M131.17,151.07a14.52,14.52,0,0,1,0-14.57,7.77,7.77,0,0,1,11.83,0,14.5,14.5,0,0,1,0,14.56,7.8,7.8,0,0,1-11.83,0Zm2.32-12.52a12.59,12.59,0,0,0,0,10.45,3.84,3.84,0,0,0,3.58,2,3.78,3.78,0,0,0,3.55-2,12.79,12.79,0,0,0,0-10.47,3.77,3.77,0,0,0-3.55-2A3.87,3.87,0,0,0,133.49,138.55Z"/><path class="cls-2" d="M160.1,153.56h-3.26V134.24h5.08l5.83,12.13,5.84-12.13h5v19.32h-3.26V138.47l-6.74,13.4h-1.82l-6.72-13.4Z"/><path class="cls-2" d="M187,134.59a3,3,0,0,0-2.55,1.57l-1.69-1a6.18,6.18,0,0,1,1.8-1.86,4.77,4.77,0,0,1,2.55-.62,4.14,4.14,0,0,1,2.74,1,3.35,3.35,0,0,1,1.17,2.7,3.55,3.55,0,0,1-.5,1.83,11.81,11.81,0,0,1-1.83,2.25l-2.92,3h5.65v2h-8.52v-1.78l3.78-3.8a20.14,20.14,0,0,0,1.8-2,2.53,2.53,0,0,0,.53-1.48,1.66,1.66,0,0,0-.57-1.27A2,2,0,0,0,187,134.59Z"/><path class="cls-2" d="M41.47,183.48a11.75,11.75,0,0,1-8-3.12l2-2.46a9.22,9.22,0,0,0,6.08,2.54,4.08,4.08,0,0,0,2.5-.68A2.11,2.11,0,0,0,45,178a2,2,0,0,0-.87-1.74,9.21,9.21,0,0,0-3-1.14,25.49,25.49,0,0,1-3.23-.94,6.91,6.91,0,0,1-2-1.12,4.66,4.66,0,0,1-1.71-4,4.86,4.86,0,0,1,1.95-4.14A7.9,7.9,0,0,1,41,163.47a11.78,11.78,0,0,1,3.68.61,9.94,9.94,0,0,1,3.15,1.71l-1.74,2.46A6.91,6.91,0,0,0,43.73,167a8.89,8.89,0,0,0-2.88-.49,4.27,4.27,0,0,0-2.34.58,1.92,1.92,0,0,0-.91,1.75,2.05,2.05,0,0,0,.91,1.8A14,14,0,0,0,42.39,172a10.75,10.75,0,0,1,4.48,2,4.81,4.81,0,0,1,1.51,3.83,5.08,5.08,0,0,1-1.91,4.11A7.6,7.6,0,0,1,41.47,183.48Z"/><path class="cls-2" d="M68.58,180.61a10.62,10.62,0,0,1-14.48,0,10.14,10.14,0,0,1,0-14.26,10.59,10.59,0,0,1,14.48,0,10.16,10.16,0,0,1,0,14.28ZM66.17,168.5a6.76,6.76,0,0,0-9.68,0,7.2,7.2,0,0,0,0,9.92,6.76,6.76,0,0,0,9.7,0,7.2,7.2,0,0,0,0-9.92Z"/><path class="cls-2" d="M82.09,183.48a11.75,11.75,0,0,1-8-3.12l2-2.46a9.24,9.24,0,0,0,6.08,2.54,4.08,4.08,0,0,0,2.5-.68A2.11,2.11,0,0,0,85.6,178a2,2,0,0,0-.87-1.74,9.21,9.21,0,0,0-3-1.14,25.49,25.49,0,0,1-3.23-.94,6.86,6.86,0,0,1-2-1.12,4.64,4.64,0,0,1-1.72-4,4.86,4.86,0,0,1,2-4.14,7.9,7.9,0,0,1,4.82-1.45,11.73,11.73,0,0,1,3.68.61,9.94,9.94,0,0,1,3.15,1.71l-1.74,2.46A6.86,6.86,0,0,0,84.36,167a9,9,0,0,0-2.89-.49,4.27,4.27,0,0,0-2.34.58,1.92,1.92,0,0,0-.91,1.75,2.05,2.05,0,0,0,.91,1.8A13.94,13.94,0,0,0,83,172a10.71,10.71,0,0,1,4.47,2A4.78,4.78,0,0,1,89,177.8a5.08,5.08,0,0,1-1.91,4.11A7.6,7.6,0,0,1,82.09,183.48Z"/><path class="cls-2" d="M100.47,183.26H97.15v-7.63L90,163.94h3.56l5.28,8.79,5.28-8.79h3.56l-7.18,11.69Z"/><path class="cls-2" d="M111.44,178.87l-1.94,4.39H106l8.51-19.32H118l8.51,19.32H123l-1.93-4.39Zm8.34-3-3.51-7.95-3.51,7.95Z"/><path class="cls-2" d="M129.2,183.26V163.94h3.27v16.22h8.81v3.1Z"/><path class="cls-2" d="M159.71,166.93v16.33h-3.26V166.93h-5.86v-3h15v3Z"/><path class="cls-2" d="M182.67,163.94V167h-10.3v5.11h9.25V175h-9.25v5.16H183v3.07h-13.9V163.94Z"/><path class="cls-2" d="M193.65,183.48a11.76,11.76,0,0,1-8.05-3.12l2.05-2.46a9.22,9.22,0,0,0,6.08,2.54,4.1,4.1,0,0,0,2.5-.68,2.1,2.1,0,0,0,.92-1.79,2,2,0,0,0-.87-1.74,9.23,9.23,0,0,0-3-1.14,26.26,26.26,0,0,1-3.24-.94,7,7,0,0,1-2-1.12,4.66,4.66,0,0,1-1.71-4,4.86,4.86,0,0,1,2-4.14,7.86,7.86,0,0,1,4.82-1.45,11.67,11.67,0,0,1,3.67.61,9.73,9.73,0,0,1,3.15,1.71l-1.74,2.46a6.76,6.76,0,0,0-2.32-1.27,9,9,0,0,0-2.89-.49,4.24,4.24,0,0,0-2.33.58,1.92,1.92,0,0,0-.91,1.75,2.05,2.05,0,0,0,.91,1.8,14,14,0,0,0,3.88,1.34,10.81,10.81,0,0,1,4.48,2,4.81,4.81,0,0,1,1.5,3.83,5.07,5.07,0,0,1-1.9,4.11A7.6,7.6,0,0,1,193.65,183.48Z"/><path class="cls-2" d="M204.78,161.15a2.06,2.06,0,0,1-.58-1.46,2,2,0,0,1,2.05-2.05,2,2,0,0,1,1.46.6,1.93,1.93,0,0,1,.61,1.45,2.08,2.08,0,0,1-2.07,2.07A2,2,0,0,1,204.78,161.15Zm-.19,2.79h3.26v19.32h-3.26Z"/><path class="cls-2" d="M219.68,183.48a11.76,11.76,0,0,1-8.05-3.12l2.05-2.46a9.22,9.22,0,0,0,6.08,2.54,4.1,4.1,0,0,0,2.5-.68,2.11,2.11,0,0,0,.93-1.79,2,2,0,0,0-.87-1.74,9.41,9.41,0,0,0-3-1.14,26.26,26.26,0,0,1-3.24-.94,7,7,0,0,1-2-1.12,4.66,4.66,0,0,1-1.71-4,4.86,4.86,0,0,1,2-4.14,7.86,7.86,0,0,1,4.82-1.45,11.67,11.67,0,0,1,3.67.61,9.73,9.73,0,0,1,3.15,1.71l-1.74,2.46a6.76,6.76,0,0,0-2.32-1.27,9,9,0,0,0-2.89-.49,4.26,4.26,0,0,0-2.33.58,1.92,1.92,0,0,0-.91,1.75,2.05,2.05,0,0,0,.91,1.8A14,14,0,0,0,220.6,172a10.81,10.81,0,0,1,4.48,2,4.81,4.81,0,0,1,1.5,3.83,5.07,5.07,0,0,1-1.9,4.11A7.6,7.6,0,0,1,219.68,183.48Z"/><path class="cls-2" d="M171,90l-.34,0a17.08,17.08,0,0,1-9.11-4.75,13.52,13.52,0,0,0-10.42-4.19h-.36a13.54,13.54,0,0,0-10.42,4.19A17.33,17.33,0,0,1,131.26,90a2.73,2.73,0,0,1-.7,0,17.1,17.1,0,0,1-9.1-4.75A13.52,13.52,0,0,0,111,81.06h-.35a13.54,13.54,0,0,0-10.43,4.19A17.33,17.33,0,0,1,91.15,90a2.66,2.66,0,0,1-.69,0,17.16,17.16,0,0,1-9.11-4.75A13.2,13.2,0,0,0,70.57,81.1a2.24,2.24,0,0,1-.74-4.42,17.78,17.78,0,0,1,14.69,5.4A12.75,12.75,0,0,0,90.8,85.5a12.86,12.86,0,0,0,6.29-3.42,18.1,18.1,0,0,1,13.77-5.5,18.11,18.11,0,0,1,13.77,5.5,12.75,12.75,0,0,0,6.28,3.42,12.9,12.9,0,0,0,6.29-3.42A18.12,18.12,0,0,1,151,76.58a18.09,18.09,0,0,1,13.77,5.5A12.75,12.75,0,0,0,171,85.5a12.9,12.9,0,0,0,6.29-3.42A17.78,17.78,0,0,1,192,76.68a2.24,2.24,0,1,1-.74,4.42,13.18,13.18,0,0,0-10.78,4.15A17.33,17.33,0,0,1,171.37,90Z"/><path class="cls-2" d="M171,104.05l-.34,0a17.15,17.15,0,0,1-9.11-4.75,13.52,13.52,0,0,0-10.42-4.19h-.36a13.54,13.54,0,0,0-10.42,4.19,17.21,17.21,0,0,1-9.11,4.74,2.28,2.28,0,0,1-.69,0,17.15,17.15,0,0,1-9.11-4.75A13.52,13.52,0,0,0,111,95.09h-.35a13.5,13.5,0,0,0-10.43,4.19A17.21,17.21,0,0,1,91.15,104a2.28,2.28,0,0,1-.69,0,17.15,17.15,0,0,1-9.11-4.75,13.16,13.16,0,0,0-10.78-4.15,2.24,2.24,0,0,1-.74-4.42,17.75,17.75,0,0,1,14.69,5.4,12.79,12.79,0,0,0,6.28,3.42,12.86,12.86,0,0,0,6.29-3.42,18.14,18.14,0,0,1,13.77-5.5,18.07,18.07,0,0,1,13.77,5.5,12.83,12.83,0,0,0,6.28,3.42,12.9,12.9,0,0,0,6.29-3.42A18.08,18.08,0,0,1,151,90.61a18.09,18.09,0,0,1,13.77,5.5A12.83,12.83,0,0,0,171,99.53a12.9,12.9,0,0,0,6.29-3.42A17.78,17.78,0,0,1,192,90.71a2.24,2.24,0,1,1-.74,4.42,13.18,13.18,0,0,0-10.78,4.15,17.21,17.21,0,0,1-9.11,4.74A2,2,0,0,1,171,104.05Z"/><path class="cls-2" d="M163.25,71.45c-.45,0-.89,0-1.34-.06a14.61,14.61,0,0,1-8-25.77h0a14.61,14.61,0,1,1,9.39,25.83Zm0-24.74a10.09,10.09,0,0,0-6.48,2.35h0a10.13,10.13,0,1,0,7.4-2.31C163.82,46.72,163.51,46.71,163.21,46.71Z"/><path class="cls-2" d="M161.42,28.73a8.25,8.25,0,0,0-10.07-5.84L113.51,33a8.24,8.24,0,0,0-4.2,13.23l14.14,16.92-16,13.38a2.23,2.23,0,0,0,1.85,3.91l9.42-7.47h0L128,65.13a2.25,2.25,0,0,0,.29-3.16L112.76,43.32a3.74,3.74,0,0,1,1.91-6L152.5,27.23a3.75,3.75,0,0,1,4.58,2.65,3.75,3.75,0,0,1-2.65,4.58l-28.77,7.66a2.24,2.24,0,0,0-1.14,3.61l9.55,11.44a2.61,2.61,0,0,0,.23.24l11.73,14h0l9.1,9.74h0a2.2,2.2,0,0,0,1.29-.5l.15-.12a2.25,2.25,0,0,0,.28-3.16L137.54,54.28l-.23-.23-7.1-8.5,25.37-6.75a8.23,8.23,0,0,0,5.84-10.07Z"/></svg>