<svg id="Layer_1" data-name="Layer 1" xmlns="http://www.w3.org/2000/svg" viewBox="0 0 260.26 211.13"><defs><style>.cls-1{fill:#f7f7f7;stroke-miterlimit:10;stroke-width:2px;}.cls-1,.cls-3{stroke:#282828;}.cls-2{fill:#282828;}.cls-3{fill:none;stroke-linecap:round;stroke-linejoin:round;stroke-width:2.1px;}</style></defs><rect class="cls-1" x="6.91" y="6.91" width="245.58" height="195.26"/><path class="cls-2" d="M48.18,159.1a6,6,0,0,0-5.29,2.44,11.49,11.49,0,0,0-1.74,6.56,9.81,9.81,0,0,1,2.78-2,8.57,8.57,0,0,1,4-.94A8.32,8.32,0,0,1,54,167.54,8.6,8.6,0,0,1,56.48,174a8.35,8.35,0,0,1-2.64,6.43,9.49,9.49,0,0,1-6.66,2.43q-6.49,0-9-5.79a19.19,19.19,0,0,1-1.39-7.49,23.21,23.21,0,0,1,.89-6.95,11.14,11.14,0,0,1,2.43-4.4A9.81,9.81,0,0,1,47.54,155a12.67,12.67,0,0,1,7.94,2.74l-2.28,3.36a8.72,8.72,0,0,0-2.37-1.39A7.13,7.13,0,0,0,48.18,159.1Zm-.85,10a5.9,5.9,0,0,0-3.88,1.29,4.18,4.18,0,0,0-1.56,3.36,4.84,4.84,0,0,0,1.5,3.56,5.19,5.19,0,0,0,3.79,1.48A5.47,5.47,0,0,0,51,177.5a4.35,4.35,0,0,0,1.51-3.4,4.86,4.86,0,0,0-5.14-5Z"/><path class="cls-2" d="M71.46,171.57v-4.94h4.33v4.94H79v4.14H75.79v6.79H71.46v-6.79H59.88v-4l9.92-16.18h5L65,171.57Z"/><path class="cls-2" d="M99.3,155.47v4.13H87.91v6.65a7.9,7.9,0,0,1,3.86-.93,9.86,9.86,0,0,1,6.52,2.28,7.6,7.6,0,0,1,2.75,6.17,8.35,8.35,0,0,1-2.86,6.47,10.16,10.16,0,0,1-7,2.57,11.05,11.05,0,0,1-8.68-3.63l2.43-3.32a8.67,8.67,0,0,0,.83.73,9.87,9.87,0,0,0,2.14,1.14,8.66,8.66,0,0,0,3.55.72,5.85,5.85,0,0,0,3.52-1.16,3.94,3.94,0,0,0,1.58-3.38,4,4,0,0,0-1.68-3.44,7.07,7.07,0,0,0-4.25-1.21,10,10,0,0,0-4.88,1.27l-1.93-2.08v-13Z"/><path class="cls-2" d="M129.53,182.5h-5.1l-10.85-27h5.1l8.3,20.16,8.3-20.16h5.1Z"/><path class="cls-2" d="M144.51,151.61a2.85,2.85,0,0,1-.81-2,2.73,2.73,0,0,1,.83-2,2.76,2.76,0,0,1,2-.83,2.85,2.85,0,0,1,2,.83,2.71,2.71,0,0,1,.85,2,2.89,2.89,0,0,1-4.94,2Zm-.27,3.9h4.55v27h-4.55Z"/><path class="cls-2" d="M156.28,182.5v-27h4.56v22.67h12.32v4.32Z"/><path class="cls-2" d="M178.14,182.5v-27h4.55v22.67H195v4.32Z"/><path class="cls-2" d="M203.81,176.36l-2.7,6.14h-4.87l11.9-27H213l11.89,27H220l-2.71-6.14Zm11.66-4.21L210.57,161l-4.9,11.12Z"/><line class="cls-3" x1="53.61" y1="90.56" x2="53.61" y2="123.42"/><line class="cls-3" x1="49.71" y1="96.49" x2="53.14" y2="99.93"/><line class="cls-3" x1="55.55" y1="94.73" x2="54.11" y2="96.17"/><line class="cls-3" x1="57.56" y1="102.47" x2="54.46" y2="104.76"/><line class="cls-3" x1="127.12" y1="91.41" x2="127.12" y2="123.42"/><line class="cls-3" x1="148.41" y1="90.68" x2="148.41" y2="123.42"/><polyline class="cls-3" points="111.57 123.42 111.57 90.32 163.96 90.32 163.96 123.42"/><line class="cls-3" x1="112.8" y1="100.5" x2="123.44" y2="100.5"/><line class="cls-3" x1="112.8" y1="110.69" x2="126.37" y2="110.69"/><line class="cls-3" x1="149.63" y1="100.5" x2="162.73" y2="100.5"/><line class="cls-3" x1="149.63" y1="110.69" x2="162.73" y2="110.69"/><line class="cls-3" x1="116.07" y1="115.05" x2="117.71" y2="115.05"/><line class="cls-3" x1="153.73" y1="119.93" x2="155.37" y2="119.93"/><line class="cls-3" x1="115.25" y1="55.61" x2="116.89" y2="55.61"/><line class="cls-3" x1="116.77" y1="59.1" x2="117.01" y2="59.1"/><line class="cls-3" x1="121.46" y1="97.33" x2="126.37" y2="97.33"/><line class="cls-3" x1="149.64" y1="80.14" x2="154.55" y2="80.14"/><line class="cls-3" x1="200.99" y1="58.44" x2="212.79" y2="61.82"/><line class="cls-3" x1="192.35" y1="55.96" x2="194.28" y2="56.52"/><polyline class="cls-3" points="124.14 43.59 136.51 39.97 143.22 41.89 147.2 43.03 188.62 54.89"/><line class="cls-3" x1="85.26" y1="55" x2="118.34" y2="45.3"/><line class="cls-3" x1="78.14" y1="57.09" x2="80.84" y2="56.29"/><line class="cls-3" x1="63.36" y1="61.42" x2="73.64" y2="58.41"/><polyline class="cls-3" points="59.38 66.92 136.51 44.3 215.33 66.88"/><polyline class="cls-3" points="93.45 52.3 93.45 39.65 104.84 39.65 104.84 48.38"/><line class="cls-3" x1="91.39" y1="39.64" x2="106.74" y2="39.64"/><line class="cls-3" x1="93.83" y1="43.44" x2="97.1" y2="43.44"/><line class="cls-3" x1="100.66" y1="43.41" x2="104.4" y2="43.41"/><line class="cls-3" x1="177.74" y1="80.14" x2="180.48" y2="80.14"/><line class="cls-3" x1="137.65" y1="116.79" x2="139.52" y2="116.79"/><line class="cls-3" x1="94.12" y1="47.46" x2="96.22" y2="47.46"/><rect class="cls-3" x="74.98" y="97.89" width="24.56" height="17.19"/><line class="cls-3" x1="79.36" y1="106.08" x2="82.49" y2="106.08"/><line class="cls-3" x1="92.58" y1="106.08" x2="99.13" y2="106.08"/><line class="cls-3" x1="83.16" y1="98.3" x2="83.16" y2="113.85"/><line class="cls-3" x1="90.53" y1="98.3" x2="90.53" y2="113.85"/><rect class="cls-3" x="176" y="98.4" width="24.56" height="17.19"/><line class="cls-3" x1="176.75" y1="106.58" x2="186.13" y2="106.58"/><line class="cls-3" x1="193.6" y1="106.58" x2="200.15" y2="106.58"/><line class="cls-3" x1="184.19" y1="98.81" x2="184.19" y2="114.36"/><line class="cls-3" x1="191.55" y1="98.81" x2="191.55" y2="114.36"/><line class="cls-3" x1="213.36" y1="123.95" x2="214.42" y2="123.99"/><line class="cls-3" x1="63.85" y1="123.24" x2="209.75" y2="123.93"/><line class="cls-3" x1="48.88" y1="123.17" x2="58.98" y2="123.23"/><polyline class="cls-3" points="165.13 52.96 165.13 84.79 111.09 84.79 111.09 52.24"/><polyline class="cls-3" points="204.36 84.79 170.04 84.79 170.04 54.41"/><polyline class="cls-3" points="170.04 123.27 170.04 90.52 204.36 90.52"/><polyline class="cls-3" points="106.18 53.69 106.18 84.79 68.53 84.79 68.53 90.52 106.18 90.52 106.18 123.27"/><line class="cls-3" x1="68.53" y1="64.57" x2="68.68" y2="122.45"/><line class="cls-3" x1="205.92" y1="64.57" x2="206.07" y2="122.45"/><path class="cls-3" d="M63.2,100.65c0,6.6-4.29,11.95-9.57,11.95s-9.56-5.35-9.56-11.95,4.28-18.53,9.56-18.53S63.2,94.05,63.2,100.65Z"/><line class="cls-3" x1="148.55" y1="83.48" x2="148.55" y2="48.47"/><line class="cls-3" x1="126.85" y1="84.18" x2="126.85" y2="47.07"/><line class="cls-3" x1="99.56" y1="71.9" x2="68.69" y2="72.35"/><line class="cls-3" x1="84.31" y1="84.34" x2="83.95" y2="59.82"/><line class="cls-3" x1="71.89" y1="120.23" x2="73.29" y2="120.23"/><line class="cls-3" x1="190.9" y1="71.93" x2="205.6" y2="71.93"/><line class="cls-3" x1="200.7" y1="74.73" x2="205.6" y2="74.73"/><line class="cls-3" x1="189.85" y1="59.67" x2="189.85" y2="84.88"/><line class="cls-3" x1="171.3" y1="120.23" x2="196.5" y2="120.23"/><line class="cls-3" x1="79.59" y1="120.23" x2="98.49" y2="120.23"/></svg>