<svg id="Layer_1" data-name="Layer 1" xmlns="http://www.w3.org/2000/svg" viewBox="0 0 260.26 211.13"><defs><style>.cls-1{fill:#f7f7f7;stroke:#282828;stroke-miterlimit:10;stroke-width:2px;}.cls-2{fill:#282828;}</style></defs><rect class="cls-1" x="7.34" y="7.93" width="245.58" height="195.26"/><path class="cls-2" d="M53.76,126.9v-5.56h13.6v2.9l-8.18,16.42h-3.6l8-16.36H56.72v2.6Z"/><path class="cls-2" d="M77.91,123.91a4.29,4.29,0,0,0-3.78,1.74,8.23,8.23,0,0,0-1.25,4.7,6.92,6.92,0,0,1,2-1.45,6.18,6.18,0,0,1,2.88-.68A6,6,0,0,1,82.1,130a6.14,6.14,0,0,1,1.75,4.59,6,6,0,0,1-1.89,4.6,6.77,6.77,0,0,1-4.77,1.74,6.41,6.41,0,0,1-6.41-4.15,13.8,13.8,0,0,1-1-5.36,16.7,16.7,0,0,1,.63-5,8.15,8.15,0,0,1,1.74-3.15,7,7,0,0,1,5.3-2.27,9,9,0,0,1,5.67,2l-1.63,2.4a6.25,6.25,0,0,0-1.7-1A5.07,5.07,0,0,0,77.91,123.91Zm-.61,7.19a4.23,4.23,0,0,0-2.77.92,3,3,0,0,0-1.12,2.41A3.45,3.45,0,0,0,74.49,137a3.67,3.67,0,0,0,2.7,1.06,4,4,0,0,0,2.71-.95A3.11,3.11,0,0,0,81,134.65a3.48,3.48,0,0,0-1-2.52A3.53,3.53,0,0,0,77.3,131.1Z"/><path class="cls-2" d="M86.53,126.9v-5.56h13.6v2.9L92,140.66H88.36l8-16.36H89.49v2.6Z"/><path class="cls-2" d="M101.48,140.27a2.06,2.06,0,0,1-.58-1.46,2,2,0,0,1,2-2.05,2,2,0,0,1,1.46.6,1.93,1.93,0,0,1,.61,1.45,2.08,2.08,0,0,1-2.07,2.07A2,2,0,0,1,101.48,140.27Z"/><path class="cls-2" d="M110.11,138.17a14.47,14.47,0,0,1,0-14.58,7.78,7.78,0,0,1,11.82,0,14.45,14.45,0,0,1,0,14.57,7.79,7.79,0,0,1-11.82,0Zm2.32-12.52a12.49,12.49,0,0,0,0,10.45,3.85,3.85,0,0,0,3.58,2,3.79,3.79,0,0,0,3.55-2,12.79,12.79,0,0,0,0-10.47,3.79,3.79,0,0,0-3.55-2A3.88,3.88,0,0,0,112.43,125.65Z"/><path class="cls-2" d="M129.12,138.17a14.54,14.54,0,0,1,0-14.58,7.79,7.79,0,0,1,11.83,0,14.52,14.52,0,0,1,0,14.57,7.8,7.8,0,0,1-11.83,0Zm2.32-12.52a12.59,12.59,0,0,0,0,10.45,3.86,3.86,0,0,0,3.58,2,3.78,3.78,0,0,0,3.55-2,12.79,12.79,0,0,0,0-10.47,3.78,3.78,0,0,0-3.55-2A3.88,3.88,0,0,0,131.44,125.65Z"/><path class="cls-2" d="M148.13,138.17a14.54,14.54,0,0,1,0-14.58,7.79,7.79,0,0,1,11.83,0,14.52,14.52,0,0,1,0,14.57,7.8,7.8,0,0,1-11.83,0Zm2.32-12.52a10.59,10.59,0,0,0-1.13,5.23,10.46,10.46,0,0,0,1.14,5.22,3.86,3.86,0,0,0,3.58,2,3.78,3.78,0,0,0,3.55-2,12.79,12.79,0,0,0,0-10.47,3.78,3.78,0,0,0-3.55-2A3.88,3.88,0,0,0,150.45,125.65Z"/><path class="cls-2" d="M177.06,140.66H173.8V121.34h5.08l5.84,12.13,5.83-12.13h5v19.32h-3.26V125.57L185.6,139h-1.82l-6.72-13.4Z"/><path class="cls-2" d="M202.92,121.63a2.68,2.68,0,0,0-2.3,1.42l-1.53-.89a5.54,5.54,0,0,1,1.63-1.67,4.25,4.25,0,0,1,2.31-.57,3.71,3.71,0,0,1,2.47.9,3,3,0,0,1,1.06,2.44,3.25,3.25,0,0,1-.45,1.65,10.94,10.94,0,0,1-1.66,2l-2.64,2.69h5.11v1.82h-7.7v-1.62l3.41-3.43a16.83,16.83,0,0,0,1.63-1.82,2.24,2.24,0,0,0,.48-1.33,1.52,1.52,0,0,0-.51-1.16A1.9,1.9,0,0,0,202.92,121.63Z"/><path class="cls-2" d="M64.26,153.62v12.24H61.82V153.62H57.43v-2.23H68.65v2.23Z"/><path class="cls-2" d="M82.31,163.87a7.95,7.95,0,0,1-10.84,0,7.58,7.58,0,0,1,0-10.68,7.93,7.93,0,0,1,10.84,0,7.59,7.59,0,0,1,0,10.69Zm-1.8-9.07a5.06,5.06,0,0,0-7.25,0,5.42,5.42,0,0,0,0,7.44,5.07,5.07,0,0,0,7.26,0,5.4,5.4,0,0,0,0-7.44Z"/><path class="cls-2" d="M91.9,161.62H89.33v4.24H86.89V151.39h5a7.45,7.45,0,0,1,4.8,1.26,4.77,4.77,0,0,1,1.51,3.89,4.59,4.59,0,0,1-1.54,3.85A7.54,7.54,0,0,1,91.9,161.62Zm-.08-8H89.33v5.8h2.84a3.76,3.76,0,0,0,2.76-.78,3.16,3.16,0,0,0,.74-2.27,2.37,2.37,0,0,0-.94-2.13A5.38,5.38,0,0,0,91.82,153.6Z"/><path class="cls-2" d="M100.34,165.86V151.39h2.44v12.15h6.61v2.32Z"/><path class="cls-2" d="M113.4,162.57,112,165.86h-2.6l6.37-14.47h2.61l6.38,14.47H122.1l-1.45-3.29Zm6.26-2.26-2.63-6-2.63,6Z"/><path class="cls-2" d="M128.45,165.86H126V151.39h3.81l4.37,9.09,4.36-9.09h3.79v14.47H139.9v-11.3l-5.05,10h-1.37l-5-10Z"/><path class="cls-2" d="M156.31,165.86h-2.48v-5.71l-5.38-8.76h2.67l3.95,6.58,4-6.58h2.67l-5.39,8.76Z"/><path class="cls-2" d="M173,151.39v2.3h-7.72v3.83h6.93v2.17h-6.93v3.87h8v2.3H162.83V151.39Z"/><path class="cls-2" d="M180.51,166a8.79,8.79,0,0,1-6-2.34l1.53-1.84a6.9,6.9,0,0,0,4.56,1.91,3.09,3.09,0,0,0,1.87-.51,1.6,1.6,0,0,0,.69-1.35,1.49,1.49,0,0,0-.65-1.3,6.89,6.89,0,0,0-2.25-.85,20,20,0,0,1-2.42-.7,5.86,5.86,0,0,1-1.47-.84,3.51,3.51,0,0,1-1.28-3,3.65,3.65,0,0,1,1.46-3.1,5.9,5.9,0,0,1,3.61-1.08,8.7,8.7,0,0,1,2.75.45,7.17,7.17,0,0,1,2.36,1.29l-1.3,1.84a4.78,4.78,0,0,0-1.74-1,6.65,6.65,0,0,0-2.16-.38,3.2,3.2,0,0,0-1.75.44,1.44,1.44,0,0,0-.68,1.31,1.52,1.52,0,0,0,.68,1.35,10.27,10.27,0,0,0,2.91,1,8,8,0,0,1,3.35,1.51,3.6,3.6,0,0,1,1.13,2.87,3.79,3.79,0,0,1-1.43,3.07A5.67,5.67,0,0,1,180.51,166Zm1.66,2.26a1.83,1.83,0,0,1-.64,1.38,2.33,2.33,0,0,1-1.63.59,3.31,3.31,0,0,1-1.73-.46l.54-1.18a1.68,1.68,0,0,0,.8.21.82.82,0,0,0,.63-.24.81.81,0,0,0,.23-.57.84.84,0,0,0-.24-.59.79.79,0,0,0-.6-.26,1.58,1.58,0,0,0-.61.11l.74-1.41h1.47l-.41.78A1.49,1.49,0,0,1,182.17,168.28Z"/><path class="cls-2" d="M188.15,149.3a1.54,1.54,0,0,1-.43-1.1,1.5,1.5,0,0,1,1.53-1.53,1.55,1.55,0,0,1,1.1.44,1.48,1.48,0,0,1,.45,1.09,1.54,1.54,0,0,1-1.55,1.55A1.5,1.5,0,0,1,188.15,149.3Zm-.14,2.09h2.44v14.47H188Z"/><path class="cls-2" d="M193.76,165.86V151.39h2.44v12.15h6.61v2.32Z"/><path class="cls-2" d="M105.37,187.77l-1.45,3.29h-2.6l6.37-14.47h2.61l6.37,14.47h-2.6l-1.45-3.29Zm6.25-2.26-2.63-6-2.62,6Z"/><path class="cls-2" d="M118,191.06V176.59h2.44v12.15H127v2.32Z"/><path class="cls-2" d="M131,187.77l-1.45,3.29H127l6.38-14.47H136l6.37,14.47h-2.61l-1.45-3.29Zm6.25-2.26-2.63-6-2.63,6Z"/><path class="cls-2" d="M154.49,176.59h2.45v14.47h-2.65l-8.2-10.56v10.56h-2.44V176.59h2.44l8.4,10.8Z"/><path class="cls-2" d="M127.39,113.3a1.39,1.39,0,0,1-.69-.18L70,82a1.42,1.42,0,0,1-.74-1.28,1.43,1.43,0,0,1,.81-1.24l13.12-6.18,3.13,1.53-12.53,6,53.57,29.47L181,80.8,127.39,55.36l-15,7.07.53-3.37,13.83-6.55a1.42,1.42,0,0,1,1.21,0l56.68,26.92a1.43,1.43,0,0,1,.81,1.24,1.42,1.42,0,0,1-.74,1.28l-56.67,31.17A1.38,1.38,0,0,1,127.39,113.3Z"/><path class="cls-2" d="M160,80.71a1.41,1.41,0,0,1-1.41-1.42V46.7a1.42,1.42,0,0,1,2.83,0V79.29A1.41,1.41,0,0,1,160,80.71Z"/><path class="cls-2" d="M160,62.29a14.16,14.16,0,0,1-8.82-25.24,9.81,9.81,0,0,1-1.09-4.51,9.92,9.92,0,1,1,19.83,0,9.81,9.81,0,0,1-1.09,4.51A14.16,14.16,0,0,1,160,62.29Zm0-36.84a7.1,7.1,0,0,0-7.08,7.09,7,7,0,0,0,1.3,4.07,1.43,1.43,0,0,1-.38,2,11.34,11.34,0,1,0,12.33,0,1.41,1.41,0,0,1-.38-2,7,7,0,0,0,1.3-4.07A7.1,7.1,0,0,0,160,25.45Z"/><path class="cls-2" d="M134.47,99.13a1.42,1.42,0,0,1-1.42-1.42V82.13a1.42,1.42,0,1,1,2.84,0V97.71A1.42,1.42,0,0,1,134.47,99.13Z"/><path class="cls-2" d="M135.67,92.05h-2.4a7.31,7.31,0,0,1-7.3-7.31V73.85a7.31,7.31,0,0,1,7.3-7.31h2.4a7.32,7.32,0,0,1,7.3,7.31V84.74A7.32,7.32,0,0,1,135.67,92.05Zm-2.4-22.67a4.47,4.47,0,0,0-4.47,4.47V84.74a4.47,4.47,0,0,0,4.47,4.47h2.4a4.47,4.47,0,0,0,4.47-4.47V73.85a4.47,4.47,0,0,0-4.47-4.47Z"/><path class="cls-2" d="M96.21,85a1.41,1.41,0,0,1-1.41-1.42V58a1.42,1.42,0,1,1,2.83,0v25.5A1.41,1.41,0,0,1,96.21,85Z"/><path class="cls-2" d="M111.8,70.79H80.63A1.43,1.43,0,0,1,79.35,70a1.45,1.45,0,0,1,.16-1.5l7.11-9H83.46a1.42,1.42,0,0,1-1.13-2.27l6.8-9.07H86.29a1.41,1.41,0,0,1-1.06-2.35l9.92-11.33a1.45,1.45,0,0,1,2.13,0l9.92,11.33a1.43,1.43,0,0,1,.22,1.52,1.41,1.41,0,0,1-1.29.83H103.3l6.8,9.07A1.42,1.42,0,0,1,109,59.46h-3.16l7.1,9a1.41,1.41,0,0,1-1.11,2.29ZM83.54,68h25.34l-7.1-9a1.42,1.42,0,0,1,1.11-2.3h3.24l-6.8-9.07a1.41,1.41,0,0,1,1.13-2.26H103l-6.8-7.77-6.79,7.77H92a1.41,1.41,0,0,1,1.14,2.26l-6.81,9.07h3.24a1.42,1.42,0,0,1,1.28.8,1.45,1.45,0,0,1-.16,1.5Z"/></svg>