<svg id="Layer_1" data-name="Layer 1" xmlns="http://www.w3.org/2000/svg" viewBox="0 0 141.9 79.64"><defs><style>.cls-1{fill:#282828;}</style></defs><g id="BENCH_WITH_TREES" data-name="BENCH WITH TREES"><g id="trees"><g id="tree"><path id="tree-2" data-name="tree" class="cls-1" d="M247.42,422.67a12.14,12.14,0,0,0,9.09,3.92c6.43,0,11.64-4.67,11.64-10.43,0-4.48-3.16-8.3-7.59-9.78a7.92,7.92,0,0,0,4.37-6.91c0-4.45-4-8.06-9-8.06a9.54,9.54,0,0,0-1.32.09,6.46,6.46,0,0,0,.64-2.8,7.83,7.83,0,0,0-15.65,0,6.47,6.47,0,0,0,.65,2.8,9.58,9.58,0,0,0-1.33-.09c-5,0-9,3.61-9,8.06a7.93,7.93,0,0,0,4.36,6.91c-4.43,1.48-7.58,5.3-7.58,9.78,0,5.76,5.21,10.43,11.64,10.43A12.14,12.14,0,0,0,247.42,422.67Z" transform="translate(-226.69 -381.12)"/><path id="trunk" class="cls-1" d="M250.29,460.77V428.16q-.66-.29-1.29-.63a14.62,14.62,0,0,1-1.58-.94,14.62,14.62,0,0,1-1.58.94q-.63.35-1.29.63v32.61Z" transform="translate(-226.69 -381.12)"/></g><g id="tree-3" data-name="tree"><path id="tree-4" data-name="tree" class="cls-1" d="M347.86,422.67a12.14,12.14,0,0,0,9.09,3.92c6.43,0,11.64-4.67,11.64-10.43,0-4.48-3.16-8.3-7.59-9.78a7.91,7.91,0,0,0,4.36-6.91c0-4.45-4-8.06-9-8.06a9.8,9.8,0,0,0-1.33.09,6.33,6.33,0,0,0,.65-2.8,7.83,7.83,0,0,0-15.65,0,6.33,6.33,0,0,0,.65,2.8,9.69,9.69,0,0,0-1.33-.09c-5,0-9,3.61-9,8.06a7.93,7.93,0,0,0,4.36,6.91c-4.43,1.48-7.59,5.3-7.59,9.78,0,5.76,5.22,10.43,11.65,10.43A12.16,12.16,0,0,0,347.86,422.67Z" transform="translate(-226.69 -381.12)"/><path id="trunk-2" data-name="trunk" class="cls-1" d="M350.73,460.77V428.16c-.44-.19-.88-.4-1.3-.63a15.51,15.51,0,0,1-1.57-.94,15.66,15.66,0,0,1-1.58.94,14.18,14.18,0,0,1-1.3.63v32.61Z" transform="translate(-226.69 -381.12)"/></g></g><g id="bench"><rect class="cls-1" x="42.98" y="46.14" width="55.94" height="5.77" rx="1.87"/><rect class="cls-1" x="42.98" y="55.1" width="55.94" height="5.77" rx="1.87"/><path class="cls-1" d="M276.84,424.6a1.87,1.87,0,0,1,1.86,1.86v18.31H275V426.46A1.86,1.86,0,0,1,276.84,424.6Z" transform="translate(-226.69 -381.12)"/><path class="cls-1" d="M318.44,424.6a1.86,1.86,0,0,1,1.86,1.86v18.31h-3.72V426.46A1.86,1.86,0,0,1,318.44,424.6Z" transform="translate(-226.69 -381.12)"/><path class="cls-1" d="M266.64,447.61h62a1.86,1.86,0,1,1,0,3.72h-62a1.86,1.86,0,0,1,0-3.72Z" transform="translate(-226.69 -381.12)"/><path class="cls-1" d="M325.66,460.77v-9.44h-8.9v6h3.36v-.71c0-2.34.63-3.28.93-3.37l.05,0,0,0c.36.09,1.15,1.32,1.15,4.37v3.16Z" transform="translate(-226.69 -381.12)"/><path class="cls-1" d="M269.62,460.77v-9.44h8.9v6h-3.36v-.71c0-2.34-.63-3.28-.93-3.37l-.05,0-.05,0c-.36.09-1.15,1.32-1.15,4.37v3.16Z" transform="translate(-226.69 -381.12)"/></g></g></svg>