<svg id="Layer_1" data-name="Layer 1" xmlns="http://www.w3.org/2000/svg" viewBox="0 0 103.27 92.8"><defs><style>.cls-1{fill:#282828;}</style></defs><path class="cls-1" d="M298.8,443.49a32.41,32.41,0,0,1,.67-3.38H295.8a27.92,27.92,0,0,1,.67,3.38h2.33Z" transform="translate(-246 -374.55)"/><path class="cls-1" d="M289.61,440.11h-5.08a22.1,22.1,0,0,1,1.24,1.85l.86,1c1.27.12,2.54.22,3.82.3A18,18,0,0,0,289.61,440.11Z" transform="translate(-246 -374.55)"/><path class="cls-1" d="M304.83,443.26c1.24-.08,2.47-.17,3.7-.29l1.3-1.53c.28-.45.59-.9.91-1.33h-5.08A18.06,18.06,0,0,0,304.83,443.26Z" transform="translate(-246 -374.55)"/><path class="cls-1" d="M321.51,433.42H273.76a2.23,2.23,0,1,0,0,4.46h3.43c4.79,3.79,7.46,9.07,7.46,13v16.5h1.46l3.83-4.9,3.83,4.9,3.86-4.93,3.85,4.93,3.84-4.91,3.84,4.91h1.47v-16.5c0-3.89,2.66-9.17,7.46-13h3.42a2.23,2.23,0,1,0,0-4.46ZM293.77,447.6l2.92,3.73-2.92,3.73-2.9-3.72h0Zm-3.84,4.95,2.91,3.72L289.92,460,287,456.28Zm10.61,3.72L297.63,460l-2.92-3.73,2.92-3.73Zm1.88,0,2.92-3.73,2.91,3.73L305.34,460ZM289,451.33l-2.9,3.71v-4.2a14.29,14.29,0,0,0-.41-3.35l3.31,3.83h0Zm20.15,3.73-2.91-3.73h0l3.29-3.66a13.82,13.82,0,0,0-.38,3.17Zm-4.77-3.73-2.91,3.73-2.91-3.73,2.91-3.73,2.91,3.73Zm-3.64-5.16-3.12,4-3.1-4a26,26,0,0,0-1.87-8.31h9.95A26,26,0,0,0,300.75,446.17Zm-21.27-8.29H291c1.53,2.56,2,7.06,2.05,8.26l-3.16,4L284,443.25A22.75,22.75,0,0,0,279.48,437.88ZM286.11,465v-7.46l2.9,3.71v0h0Zm7.66,0-2.9-3.72h0v0l2.9-3.71,2.92,3.73Zm7.71,0-2.91-3.73,2.91-3.73,2.91,3.73h0Zm7.68,0-2.91-3.73h0l2.91-3.73Zm2.47-22.22-6.27,7.44-3.14-4c.08-1.16.51-5.7,2-8.28H315.8A23,23,0,0,0,311.63,442.75Z" transform="translate(-246 -374.55)"/><path class="cls-1" d="M321.51,431.19a4.4,4.4,0,0,1,1.67.33c1.21-.28,2.4-.58,3.56-.91,8.77-2.42,12.43-4.89,13.54-5.77V401.52c-.09-1-3.48-5.6-13.09-10.35-9.39-4.63-21-7.63-29.55-7.63s-20.17,3-29.56,7.63c-9.61,4.75-13,9.32-13.08,10.37v23.3c1.1.88,4.77,3.35,13.54,5.77,1.16.33,2.35.63,3.55.91a4.44,4.44,0,0,1,1.67-.33h6.7V404.06h34.36v27.13Z" transform="translate(-246 -374.55)"/><rect class="cls-1" x="36.76" y="31.82" width="29.75" height="24.83"/><path class="cls-1" d="M297.64,374.55c-20.59,0-51.64,13.83-51.64,27v24.91c0,6.44,14.73,12.64,32.23,15.47a17.38,17.38,0,0,0-1.84-1.79h-2.63a4.44,4.44,0,0,1-3.82-6.74l-2-.53c-8.22-2.28-13.07-4.92-14.87-6.64l-.36-.34V401.52c0-2,3.9-7.25,14.37-12.41,9.69-4.78,21.69-7.87,30.58-7.87s20.89,3.09,30.57,7.87c10.47,5.16,14.37,10.36,14.37,12.41v24.34l-.35.34c-1.8,1.72-6.65,4.36-14.88,6.64l-2,.53a4.35,4.35,0,0,1,.64,2.28,4.46,4.46,0,0,1-4.46,4.46h-2.63A19.54,19.54,0,0,0,317,441.9c17.51-2.83,32.23-9,32.23-15.47V401.52C349.27,388.38,318.22,374.55,297.64,374.55Z" transform="translate(-246 -374.55)"/></svg>