<svg id="Layer_1" data-name="Layer 1" xmlns="http://www.w3.org/2000/svg" viewBox="0 0 73.97 73.95"><defs><style>.cls-1{fill:#282828;}</style></defs><path class="cls-1" d="M305.73,455.61h-6.94V432.5h13.87a1.16,1.16,0,0,0,1.16-1.16v-3.47h3.46a1.16,1.16,0,1,0,0-2.31H298.79V402.45h13.8l-14.53-18.4a1.14,1.14,0,0,0-.85,0l-14.52,18.4h13.79v23.11H278a1.16,1.16,0,0,0,0,2.31h3.47v3.47a1.15,1.15,0,0,0,1.15,1.16h13.87v23.11h-6.93a1.16,1.16,0,1,0,0,2.31h16.18a1.16,1.16,0,0,0,0-2.31Z" transform="translate(-260.65 -383.97)"/><path class="cls-1" d="M333.58,414a1.15,1.15,0,0,0-1.26,1l-2.21,22.07H317.28a5.78,5.78,0,0,0-5.77,5.78,1.14,1.14,0,0,0,1.15,1.15h3.26l-2.09,12.53a1.16,1.16,0,0,0,.95,1.33h.2a1.15,1.15,0,0,0,1.13-1l2.15-12.91h9.6L330,457a1.17,1.17,0,0,0,1.14,1h.19a1.15,1.15,0,0,0,1-1.33l-2.08-12.53h.94a1.15,1.15,0,0,0,1.16-1.15v-4.58l2.3-23A1.15,1.15,0,0,0,333.58,414Z" transform="translate(-260.65 -383.97)"/><path class="cls-1" d="M278,437.12H265.17L263,415.05a1.16,1.16,0,1,0-2.3.23l2.31,23v4.58a1.14,1.14,0,0,0,1.15,1.15h.95L263,456.58a1.16,1.16,0,0,0,.95,1.33h.19a1.15,1.15,0,0,0,1.14-1l2.15-12.91H277L279.16,457a1.17,1.17,0,0,0,1.14,1h.19a1.15,1.15,0,0,0,.95-1.33l-2.09-12.53h3.26a1.15,1.15,0,0,0,1.16-1.15A5.78,5.78,0,0,0,278,437.12Z" transform="translate(-260.65 -383.97)"/><path class="cls-1" d="M261.81,402.45h17.93l12.91-16.35-31.32,14.14a1.16,1.16,0,0,0,.48,2.21Z" transform="translate(-260.65 -383.97)"/><path class="cls-1" d="M333.46,402.45a1.15,1.15,0,0,0,.48-2.21L302.63,386.1l12.9,16.35Z" transform="translate(-260.65 -383.97)"/></svg>