<svg xmlns="http://www.w3.org/2000/svg" xmlns:xlink="http://www.w3.org/1999/xlink" width="135" height="135" viewBox="0 0 135 135"><defs><clipPath id="a"><rect width="135" height="135" fill="none"/></clipPath></defs><g clip-path="url(#a)"><path d="M133.994,67.5A66.494,66.494,0,1,1,67.5,1.006,66.494,66.494,0,0,1,133.994,67.5" fill="#f7f7f7"/><path d="M133.994,67.5A66.494,66.494,0,1,1,67.5,1.006,66.494,66.494,0,0,1,133.994,67.5Z" fill="none" stroke="#282828" stroke-miterlimit="10" stroke-width="2.012"/><path d="M37.851,56.7a61.633,61.633,0,0,1,2.823-12.629C44.612,26.793,54.4,21.971,67.6,21.385l.137-.006.136.006c14.957.661,23.269,7.559,26.72,22.459a62,62,0,0,1,2.972,13.413c1.227-2.533,1.685-6.479,2-9.166l.026-.219a7.045,7.045,0,0,0-1.692-4.8,6.958,6.958,0,0,1-1.677-3.905C95.547,27.6,86.3,16.344,67.686,16.344c-19.478,0-27.853,11.16-28.527,22.825a6.684,6.684,0,0,1-1.747,3.9,6.41,6.41,0,0,0-1.632,5.082A19.864,19.864,0,0,0,37.851,56.7" fill="#282828"/><path d="M67.512,78.032h-.038c-2.429-.185-6.418-2.071-10.06-5.347v.783s7.632,7.262,10.06,7.445l.016,0,.011,0,.011,0,.016,0c2.428-.183,10.059-7.445,10.059-7.445v-.783c-3.642,3.276-7.631,5.162-10.059,5.347Z" fill="#282828"/><path d="M107.294,98.907c-.329-1.661-1.438-6.637-2.47-7.918-1.352-1.68-7.166-4.918-9.079-5.939-1.59-5.677-2.154-11.017-2.672-20.806.005-.127.011-.249.016-.377l-.035.029c0-.073-.008-.143-.012-.217l-3.25,2.84a28.019,28.019,0,0,1-9.355,4.814l-.619,7.4c0,9.063-5.514,13.188-12.182,13.188C61,91.92,55.518,87.8,55.5,78.758l-.623-9.421a28.425,28.425,0,0,1-3.658-6.895c.785-15.194,15.169-13.057,24.933-21.96,8.241,13.629,8.109,19.849,8,22.147-3.681,2.306-6.88,2.851-11.511,3.016A2.947,2.947,0,1,0,70,69.879a2.878,2.878,0,0,0,.3-.03,2.937,2.937,0,0,0,2.4-1.734c9.091-.338,13.636-2.59,20.449-8.855a73.159,73.159,0,0,0-.5-8.5c-1.857-16.008-10.518-25.035-24.909-25.67-14.511.643-23.2,9.614-25.062,25.676-.213,1.771-.382,4.925-.46,6.538-.63,13.161-1.077,21.034-2.958,27.75-5.076,2.706-8.664,4.855-9.122,5.985-3.5,8.623-2.541,14.016-3.5,22.8h81.739c-.3-2.746-.676-12.915-1.076-14.938" fill="#282828"/></g></svg>