<svg id="Layer_1" data-name="Layer 1" xmlns="http://www.w3.org/2000/svg" viewBox="0 0 81.23 96.9"><defs><style>.cls-1{fill:#282828;}</style></defs><path class="cls-1" d="M268.17,412.6A61.43,61.43,0,0,1,271,400.05c3.91-17.17,13.64-22,26.75-22.54H298c14.86.65,23.12,7.51,26.55,22.32a61,61,0,0,1,2.95,13.33c1.22-2.52,1.68-6.44,2-9.11l0-.22a7,7,0,0,0-1.68-4.77,7,7,0,0,1-1.67-3.88c-.66-11.5-9.85-22.68-28.35-22.68-19.36,0-27.68,11.09-28.35,22.68a6.7,6.7,0,0,1-1.73,3.88,6.36,6.36,0,0,0-1.63,5.05A19.68,19.68,0,0,0,268.17,412.6Z" transform="translate(-257.02 -372.5)"/><path class="cls-1" d="M297.65,433.8h0c-2.41-.18-6.38-2.06-10-5.31v.78s7.59,7.21,10,7.4h.05c2.42-.19,10-7.4,10-7.4v-.78c-3.62,3.25-7.58,5.13-10,5.31Z" transform="translate(-257.02 -372.5)"/><path class="cls-1" d="M337.18,454.55c-.32-1.65-1.42-6.6-2.45-7.87-1.34-1.67-7.12-4.89-9-5.9-1.58-5.65-2.14-10.95-2.66-20.68,0-.13,0-.25,0-.38l0,0a1.48,1.48,0,0,0,0-.21l-3.23,2.82a27.74,27.74,0,0,1-9.3,4.78l-.61,7.36c0,9-5.48,13.1-12.11,13.1s-12-4.09-12.06-13.08l-.62-9.36a28.48,28.48,0,0,1-3.63-6.85c.78-15.1,15.07-13,24.78-21.83,8.19,13.55,8.06,19.73,7.95,22-3.66,2.29-6.83,2.83-11.44,3a2.93,2.93,0,1,0-2.63,4.21l.3,0A2.91,2.91,0,0,0,302.8,424c9-.34,13.56-2.58,20.33-8.8a72.18,72.18,0,0,0-.51-8.45c-1.84-15.91-10.45-24.88-24.75-25.51-14.42.64-23.05,9.56-24.91,25.52-.21,1.76-.38,4.89-.45,6.5-.63,13.08-1.07,20.9-2.94,27.58-5.05,2.68-8.61,4.82-9.07,5.94C257,455.3,258,460.66,257,469.39h81.23C338,466.67,337.58,456.56,337.18,454.55Z" transform="translate(-257.02 -372.5)"/></svg>