<svg id="Layer_1" data-name="Layer 1" xmlns="http://www.w3.org/2000/svg" viewBox="0 0 116.19 90.68"><defs><style>.cls-1{fill:#282828;}</style></defs><path class="cls-1" d="M420.6,343.22a1.38,1.38,0,0,1-.68-.18l-56.68-31.17a1.42,1.42,0,0,1,.08-2.52l13.12-6.18,3.13,1.53-12.54,6,53.57,29.46,53.57-29.46L420.6,285.28l-15,7.07.53-3.37L420,282.43a1.36,1.36,0,0,1,1.21,0l56.68,26.92a1.41,1.41,0,0,1,.07,2.52L421.29,343A1.42,1.42,0,0,1,420.6,343.22Z" transform="translate(-362.51 -252.53)"/><path class="cls-1" d="M453.19,310.63a1.42,1.42,0,0,1-1.41-1.42V276.62a1.42,1.42,0,0,1,2.83,0v32.59A1.42,1.42,0,0,1,453.19,310.63Z" transform="translate(-362.51 -252.53)"/><path class="cls-1" d="M453.19,292.21A14.16,14.16,0,0,1,444.36,267a9.92,9.92,0,1,1,18.75-4.52A9.82,9.82,0,0,1,462,267a14.16,14.16,0,0,1-8.83,25.24Zm0-36.84a7.09,7.09,0,0,0-7.08,7.08,7,7,0,0,0,1.3,4.08,1.45,1.45,0,0,1,.23,1.09,1.4,1.4,0,0,1-.62.92,11.34,11.34,0,1,0,12.34,0,1.48,1.48,0,0,1-.62-.92,1.41,1.41,0,0,1,.24-1.09,7,7,0,0,0,1.3-4.08A7.1,7.1,0,0,0,453.19,255.37Z" transform="translate(-362.51 -252.53)"/><path class="cls-1" d="M427.69,329.05a1.42,1.42,0,0,1-1.42-1.42V312.05a1.42,1.42,0,1,1,2.83,0v15.58A1.42,1.42,0,0,1,427.69,329.05Z" transform="translate(-362.51 -252.53)"/><path class="cls-1" d="M428.88,322h-2.39a7.3,7.3,0,0,1-7.3-7.3v-10.9a7.31,7.31,0,0,1,7.3-7.3h2.39a7.32,7.32,0,0,1,7.31,7.3v10.9A7.31,7.31,0,0,1,428.88,322Zm-2.39-22.67a4.48,4.48,0,0,0-4.47,4.47v10.9a4.48,4.48,0,0,0,4.47,4.47h2.39a4.48,4.48,0,0,0,4.48-4.47v-10.9a4.48,4.48,0,0,0-4.48-4.47Z" transform="translate(-362.51 -252.53)"/><path class="cls-1" d="M389.43,314.88a1.42,1.42,0,0,1-1.42-1.42V288a1.42,1.42,0,0,1,2.84,0v25.5A1.42,1.42,0,0,1,389.43,314.88Z" transform="translate(-362.51 -252.53)"/><path class="cls-1" d="M405,300.71H373.85a1.42,1.42,0,0,1-1.12-2.29l7.11-9.05h-3.16a1.41,1.41,0,0,1-1.27-.78,1.39,1.39,0,0,1,.14-1.48l6.8-9.07h-2.84a1.43,1.43,0,0,1-1.29-.83,1.41,1.41,0,0,1,.23-1.52l9.91-11.34a1.48,1.48,0,0,1,2.14,0l9.92,11.34a1.42,1.42,0,0,1-1.07,2.35h-2.83l6.8,9.07a1.41,1.41,0,0,1-1.14,2.26H399l7.1,9.05a1.39,1.39,0,0,1,.16,1.49A1.41,1.41,0,0,1,405,300.71Zm-28.26-2.83H402.1l-7.1-9.05a1.42,1.42,0,0,1,1.11-2.29h3.24l-6.8-9.07a1.41,1.41,0,0,1,1.13-2.26h2.55l-6.8-7.77-6.79,7.77h2.54a1.41,1.41,0,0,1,1.27.78,1.39,1.39,0,0,1-.14,1.48l-6.8,9.07h3.24a1.42,1.42,0,0,1,1.12,2.29Z" transform="translate(-362.51 -252.53)"/></svg>