<svg id="Layer_1" data-name="Layer 1" xmlns="http://www.w3.org/2000/svg" viewBox="0 0 94.37 99.82"><defs><style>.cls-1{fill:none;stroke:#282828;stroke-linejoin:round;stroke-width:3.63px;}</style></defs><path class="cls-1" d="M424.23,347.79v-5.45c0-2.83-1.81-6.46-1.81-14.52,0-5.33,10.26-13.33,10.26-13.33l9.7-6.63C448.85,300,446.92,297,456.9,297a63.75,63.75,0,0,1-3.63,12.7s-5.67,5.45-9.07,9.08" transform="translate(-373.42 -247.97)"/><path class="cls-1" d="M456.9,297v-3.63s-1.81-16.45,7.26-16.45L466,293.23s-1.82,17.57-1.82,20.07c0,3.63-20,16.28-20,25.41v9.08" transform="translate(-373.42 -247.97)"/><path class="cls-1" d="M458.38,280.87l-1.48-11.12c-2.38,0-7.83,2.72-7.26,10.88a72.68,72.68,0,0,1,0,12.71" transform="translate(-373.42 -247.97)"/><path class="cls-1" d="M449.84,282l-.2-8.74c-4.88,0-7.26,4.94-7.26,9.19a147.1,147.1,0,0,1,0,16.33" transform="translate(-373.42 -247.97)"/><path class="cls-1" d="M417,347.79v-5.45c0-2.83,1.82-6.46,1.82-14.52,0-5.33-10.27-13.33-10.27-13.33l-9.7-6.63C392.36,300,394.29,297,384.31,297a63.75,63.75,0,0,0,3.63,12.7s5.67,5.45,9.07,9.08" transform="translate(-373.42 -247.97)"/><path class="cls-1" d="M384.31,297v-3.63s1.81-16.45-7.26-16.45l-1.82,16.34s1.82,17.57,1.82,20.07c0,3.63,20,16.28,20,25.41v9.08" transform="translate(-373.42 -247.97)"/><path class="cls-1" d="M382.83,280.87l1.48-11.12c2.38,0,7.82,2.72,7.25,10.88a74,74,0,0,0,0,12.71" transform="translate(-373.42 -247.97)"/><path class="cls-1" d="M391.37,282l.19-8.74c4.88,0,7.26,4.94,7.26,9.19a149.73,149.73,0,0,0,0,16.33" transform="translate(-373.42 -247.97)"/><path class="cls-1" d="M404.27,311.49c3-5.45,8.51-6.81,10.09-7.83s4.2-4.88,6.24-4.88,4.31,5.33,7.26,5.45a10.76,10.76,0,0,1,8.17,4.08l1.36,2.72" transform="translate(-373.42 -247.97)"/><line class="cls-1" x1="47.19" y1="16.33" x2="47.19" y2="50.82"/><path class="cls-1" d="M420.6,291.52c10.89,0,16.34-10,16.34-18.15s-5.45-10.88-5.45-10.88c-.22-8.63-5.37-12.71-10.89-12.71-2.79,0-10.89,5.37-9.07,14.52,0,0-7.26,2.23-7.26,9.07S409.33,291.52,420.6,291.52Z" transform="translate(-373.42 -247.97)"/><line class="cls-1" x1="47.19" y1="29.04" x2="54.45" y2="21.78"/><line class="cls-1" x1="47.19" y1="38.11" x2="38.11" y2="29.04"/></svg>