<svg id="Layer_1" data-name="Layer 1" xmlns="http://www.w3.org/2000/svg" viewBox="0 0 80.2 81.53"><defs><style>.cls-1{fill:#282828;}</style></defs><path class="cls-1" d="M261.38,452.85a4.45,4.45,0,0,0-.26,8.78,15.09,15.09,0,0,0,3.74-.13l7.79-1,60.17-8,0-4.33a5.32,5.32,0,0,0,0-.69,4.46,4.46,0,0,0-5-3.8l-4.92.69a8.86,8.86,0,0,1-.34-1.35,25.8,25.8,0,0,1,0-7,57.25,57.25,0,0,1,5.25-18.36l2.81-.45a2.09,2.09,0,0,0,1.43-.85l5.36-7.07a2.23,2.23,0,0,0-3.56-2.69l-4.26,5.62-3.39.73-11.92,2.53a2.23,2.23,0,1,0,.92,4.36l7.34-1.35A65,65,0,0,0,318,435.58a30,30,0,0,0,.1,8.21c.07.41.16.8.26,1.18l-57,7.88Zm71.44,7.7v-5.81l-35.53,4.71c-.9.1-.73,2.2,0,2.24h34.2c1,0,1.25-.4,1.33-1.14Zm-50.36-44.44-6.12,12.56-13.77,2.54a3.55,3.55,0,1,0,1.28,7l15.28-2.81a3.57,3.57,0,0,0,2.84-2l5.22-10.71,9.74,6.23-5.63,13.36a3.55,3.55,0,0,0,6.55,2.76l6.68-15.83a3.58,3.58,0,0,0-1.24-4.68L291.43,417l2.86-11,3.52,7.42a3.12,3.12,0,0,0,3.62,1.9l11.47-2.72a3.12,3.12,0,1,0-1.44-6.08l-9,2.14L296,395.09c-.85-1.82-4-2.43-5.76-1.75l-16.09,6.19A3.11,3.11,0,0,0,271.9,403l1.68,12.22a3.11,3.11,0,0,0,6.17-.83l-1.34-9.8,7.84-3-3.79,14.57Zm11.36-35.06a6.52,6.52,0,1,0,8.9,2.39,6.51,6.51,0,0,0-8.9-2.39Z" transform="translate(-257.54 -380.18)"/></svg>