<svg id="Layer_1" data-name="Layer 1" xmlns="http://www.w3.org/2000/svg" viewBox="0 0 94.37 99.82"><defs><style>.cls-1{fill:none;stroke:#282828;stroke-linejoin:round;stroke-width:3.63px;}</style></defs><path class="cls-1" d="M301.27,470V464.5c0-2.83-1.82-6.46-1.82-14.52,0-5.33,10.27-13.32,10.27-13.32l9.7-6.64c6.46-7.83,4.53-10.89,14.52-10.89a64.52,64.52,0,0,1-3.63,12.7s-5.68,5.45-9.08,9.08" transform="translate(-250.45 -370.13)"/><path class="cls-1" d="M333.94,419.13V415.5s-1.82-16.45,7.26-16.45L343,415.39S341.2,433,341.2,435.46c0,3.63-20,16.28-20,25.41V470" transform="translate(-250.45 -370.13)"/><path class="cls-1" d="M335.41,403l-1.47-11.13c-2.39,0-7.83,2.72-7.26,10.89a73.88,73.88,0,0,1,0,12.7" transform="translate(-250.45 -370.13)"/><path class="cls-1" d="M326.87,404.16l-.19-8.74c-4.88,0-7.26,4.94-7.26,9.19a149.76,149.76,0,0,1,0,16.33" transform="translate(-250.45 -370.13)"/><path class="cls-1" d="M294,470V464.5c0-2.83,1.81-6.46,1.81-14.52,0-5.33-10.26-13.32-10.26-13.32l-9.7-6.64c-6.47-7.83-4.54-10.89-14.52-10.89a63.75,63.75,0,0,0,3.63,12.7s5.67,5.45,9.07,9.08" transform="translate(-250.45 -370.13)"/><path class="cls-1" d="M261.34,419.13V415.5s1.81-16.45-7.26-16.45l-1.81,16.34s1.81,17.57,1.81,20.07c0,3.63,20,16.28,20,25.41V470" transform="translate(-250.45 -370.13)"/><path class="cls-1" d="M259.86,403l1.48-11.13c2.38,0,7.83,2.72,7.26,10.89a72.59,72.59,0,0,0,0,12.7" transform="translate(-250.45 -370.13)"/><path class="cls-1" d="M268.4,404.16l.2-8.74c4.88,0,7.26,4.94,7.26,9.19a147.14,147.14,0,0,0,0,16.33" transform="translate(-250.45 -370.13)"/><path class="cls-1" d="M281.3,433.65c3-5.45,8.51-6.81,10.1-7.83s4.2-4.88,6.24-4.88,4.31,5.34,7.26,5.45a10.74,10.74,0,0,1,8.16,4.08l1.37,2.73" transform="translate(-250.45 -370.13)"/><line class="cls-1" x1="47.19" y1="16.33" x2="47.19" y2="50.82"/><path class="cls-1" d="M297.64,413.69c10.89,0,16.33-10,16.33-18.15,0-8.32-5.44-10.89-5.44-10.89-.23-8.62-5.37-12.71-10.89-12.71-2.8,0-10.89,5.37-9.08,14.52,0,0-7.26,2.23-7.26,9.08S286.37,413.69,297.64,413.69Z" transform="translate(-250.45 -370.13)"/><line class="cls-1" x1="47.19" y1="29.04" x2="54.45" y2="21.78"/><line class="cls-1" x1="47.19" y1="38.11" x2="38.11" y2="29.04"/></svg>