<svg id="Layer_1" data-name="Layer 1" xmlns="http://www.w3.org/2000/svg" viewBox="0 0 77.56 64.55"><defs><style>.cls-1{fill:#282828;}</style></defs><path class="cls-1" d="M330.13,393.82a18.82,18.82,0,0,0-16.6-4.84,19.2,19.2,0,0,0-12.39,7.47A19.22,19.22,0,0,0,288.75,389a18.85,18.85,0,0,0-16.61,4.84,21.53,21.53,0,0,0-5.27,21.71h4.23A17.52,17.52,0,0,1,275,396.65a14.31,14.31,0,0,1,10.19-4,18.06,18.06,0,0,1,2.91.25,15,15,0,0,1,11.26,8.27l.82,1.74a1.09,1.09,0,0,0,2,0l.82-1.74a15,15,0,0,1,11.27-8.27,14.86,14.86,0,0,1,13.1,3.74,17.53,17.53,0,0,1,0,24.75l-26.17,26.17-22.73-22.72h-5.65l28.38,28.37,29-29A21.52,21.52,0,0,0,330.13,393.82Z" transform="translate(-258.86 -388.67)"/><path class="cls-1" d="M294.08,430.66,288,413.11l-3.22,7.67a2.52,2.52,0,0,1-2.26,1.4H260.85a2,2,0,0,1-2-2h0a2,2,0,0,1,2-2h20.74l4.56-10.34a2.48,2.48,0,0,1,4.6.42l5.9,17.1,3.05-6.11a2.54,2.54,0,0,1,2.27-1.4h8.22a2,2,0,0,1,2,2h0a2,2,0,0,1-2,2h-7.32l-4.22,9A2.48,2.48,0,0,1,294.08,430.66Z" transform="translate(-258.86 -388.67)"/></svg>