<svg id="Layer_1" data-name="Layer 1" xmlns="http://www.w3.org/2000/svg" viewBox="0 0 111.95 100.45"><defs><style>.cls-1{fill:#282828;}</style></defs><path class="cls-1" d="M248.87,426.68h28.95V468H248.87V426.68ZM277.11,395l20.37-20.5,19.69,20.27-3,1.25a1.57,1.57,0,0,0-.95,1.45V468h-4.7V446.44a10.6,10.6,0,0,0-.84-4.14,10.67,10.67,0,0,0-5.62-5.64,10.54,10.54,0,0,0-4.09-.85h-.08a10.48,10.48,0,0,0-4.95,1.25,10.92,10.92,0,0,0-4.11,3.93,10.77,10.77,0,0,0-1.58,5.61V468H282L281,398.2a1.56,1.56,0,0,0-.77-1.32L277.11,395Zm66.22,11.72,6.41,16.15H316.38V406.74ZM346.41,468h-30V426.68h30V468Zm-41,0h-15V446.6a7.65,7.65,0,0,1,1.13-4,7.74,7.74,0,0,1,2.92-2.79,7.26,7.26,0,0,1,3.46-.88H298a7.5,7.5,0,0,1,2.89.6,7.58,7.58,0,0,1,2.36,1.6,7.29,7.29,0,0,1,1.6,2.38,7.46,7.46,0,0,1,.59,2.92V468Zm-59.66,1.57a1.57,1.57,0,0,0,1.57,1.57h32.09a1.54,1.54,0,0,1,1.09,0H348a1.57,1.57,0,0,0,1.1-.46,1.59,1.59,0,0,0,.46-1.11V426H352a1.56,1.56,0,0,0,1.3-.68,1.58,1.58,0,0,0,.16-1.46l-7.65-19.29a1.57,1.57,0,0,0-1.46-1h-28v-5.08l4.11-1.74a1.55,1.55,0,0,0,.93-1.13,1.57,1.57,0,0,0-.41-1.4L298.62,371.2a1.59,1.59,0,0,0-1.12-.48,1.62,1.62,0,0,0-1.12.46l-22.9,23.05a1.56,1.56,0,0,0,.3,2.45l4.06,2.44.06,4.48h-6.32a1.57,1.57,0,0,0,0,3.14h6.24v16.81H245.49l6.26-16.81h3.33a1.57,1.57,0,0,0,0-3.14h-4.42a1.58,1.58,0,0,0-1.47,1l-7.43,19.95a1.57,1.57,0,0,0,.18,1.44,1.59,1.59,0,0,0,1.29.67h2.5V469.6Z" transform="translate(-241.66 -370.72)"/><path class="cls-1" d="M323.87,449.06h5.65v6.54h-5.65v-6.54Zm0-9.67h5.65v6.54h-5.65v-6.54Zm8.79,9.67h5.65v6.54h-5.65v-6.54Zm0-9.67h5.65v6.54h-5.65v-6.54Zm-10.35,19.34h17.56a1.57,1.57,0,0,0,1.57-1.57V437.83a1.57,1.57,0,0,0-1.57-1.57H322.34a1.64,1.64,0,0,0-.62.13,1.63,1.63,0,0,0-1,1.47v9.64h0v9.65a1.57,1.57,0,0,0,1.57,1.57Z" transform="translate(-241.66 -370.72)"/><path class="cls-1" d="M270.56,445.93h-5.65v-6.54h5.65v6.54Zm0,9.67h-5.65v-6.54h5.65v6.54Zm-8.78-9.67h-5.65v-6.54h5.65v6.54Zm0,9.67h-5.65v-6.54h5.65v6.54Zm10.35-19.34H254.6a1.69,1.69,0,0,0-.63.13,1.53,1.53,0,0,0-.7.58,1.62,1.62,0,0,0-.28.89v9.64h0v9.65a1.57,1.57,0,0,0,.46,1.11,1.59,1.59,0,0,0,1.11.46h17.57a1.61,1.61,0,0,0,1.11-.46,1.57,1.57,0,0,0,.45-1.11V437.83a1.57,1.57,0,0,0-.45-1.11,1.61,1.61,0,0,0-1.11-.46Z" transform="translate(-241.66 -370.72)"/><path class="cls-1" d="M295.21,415.73h0a.85.85,0,0,0-.85.85v1.81a.85.85,0,0,0,.85.85h0a.85.85,0,0,0,.85-.85v-1.81a.85.85,0,0,0-.85-.85Z" transform="translate(-241.66 -370.72)"/><path class="cls-1" d="M291.71,415.73a.85.85,0,0,0-.85.85v1.81a.85.85,0,1,0,1.7,0v-1.81a.85.85,0,0,0-.85-.85Z" transform="translate(-241.66 -370.72)"/><path class="cls-1" d="M298.82,415.73h0a.85.85,0,0,0-.84.85v1.81a.85.85,0,0,0,.84.85h0a.85.85,0,0,0,.85-.85v-1.81a.85.85,0,0,0-.85-.85Z" transform="translate(-241.66 -370.72)"/><path class="cls-1" d="M302.27,415.73a.85.85,0,0,0-.85.85v1.81a.85.85,0,1,0,1.69,0v-1.81a.85.85,0,0,0-.84-.85Z" transform="translate(-241.66 -370.72)"/><path class="cls-1" d="M292.76,401a4.19,4.19,0,0,1,.34-1.67,4.31,4.31,0,0,1,1.55-1.88,4.19,4.19,0,0,1,2.39-.73,4.21,4.21,0,0,1,3,1.25h0a4.36,4.36,0,0,1,.92,1.36,4.19,4.19,0,0,1,.34,1.67v10.83h-8.57V401Zm-1.56,14h11.69a1.58,1.58,0,0,0,1.11-.45,1.61,1.61,0,0,0,.46-1.11V401a7.53,7.53,0,0,0-.58-2.89,7.45,7.45,0,0,0-1.59-2.35,7.17,7.17,0,0,0-2.36-1.59,7.35,7.35,0,0,0-5.77,0,7.41,7.41,0,0,0-4.53,6.83v12.4a1.61,1.61,0,0,0,.46,1.11,1.57,1.57,0,0,0,1.11.45Z" transform="translate(-241.66 -370.72)"/><rect class="cls-1" x="302.29" y="395.77" transform="translate(-424.97 -85.47) rotate(-39.81)"/><path class="cls-1" d="M261.8,405.17a1.54,1.54,0,1,0,1.54-1.54,1.54,1.54,0,0,0-1.54,1.54Z" transform="translate(-241.66 -370.72)"/></svg>