<svg id="Layer_1" data-name="Layer 1" xmlns="http://www.w3.org/2000/svg" viewBox="0 0 93.53 77.27"><defs><style>.cls-1{fill:#282828;}</style></defs><path class="cls-1" d="M343.65,440.06a8.66,8.66,0,0,1-1.29,4.42,12.72,12.72,0,0,0-3.21-.4,12.19,12.19,0,0,0-2.77.3l-.26.06-.24.12a5.71,5.71,0,0,0-3,3.58,9.68,9.68,0,0,0-3.93-.78,16.55,16.55,0,0,0-4.33.65c-2.51.41-5,1.08-6.24,3.11a5,5,0,0,0-.41,4.27,8.76,8.76,0,0,0,.84,1.95c-8.47,2.08-15.3,2.58-26.22,2-3.22-.16-11.1-1-11.68-6.59-.29-4.68,7.2-5.27,9.19-7,4.75-4.19-27.07-5.71-30.58-6.29-2.9-.73-7-1.85-8.68-4.71,24.84-14.66,55.45-10.3,57.72-9.95a98,98,0,0,0-57.53,4.4c2.11-3.23,7.42-5,10.54-6.13a88.84,88.84,0,0,1,14.69-3.32l.17,0c1.53-.19,3-.35,4.48-.49H281c21-1.38,32.93,1.17,42.19,3.8C332,425.55,343.65,431.87,343.65,440.06Z" transform="translate(-250.87 -382.31)"/><path class="cls-1" d="M330.59,413.77l-1.41-1.36-4-3.81L320.78,413v7c-.66-.17-1.36-.35-2.06-.51v-14.3a2.12,2.12,0,0,1-1.12-1.88V392a2.15,2.15,0,0,1,1.25-2v-.58a.9.9,0,0,1,1.79,0V390a2.15,2.15,0,0,1,1.25,2v11.31a2.11,2.11,0,0,1-1.11,1.88v4.49l4.35-4.22,4.14,6.32Z" transform="translate(-250.87 -382.31)"/><path class="cls-1" d="M316.47,418.94c-.7-.15-1.41-.3-2.16-.44L312.84,410l-9.15-7.84-5.19,4.4,4.63-8.12,8.72,5.69-.61-3.5a2.1,2.1,0,0,1-1.42-1.65l-2.17-12.69a2.14,2.14,0,0,1,.9-2.15l-.13-.77a.9.9,0,0,1,.74-1,.92.92,0,0,1,1,.74l.13.77a2.17,2.17,0,0,1,1.56,1.72l2.17,12.69a2.13,2.13,0,0,1-.77,2Z" transform="translate(-250.87 -382.31)"/><path class="cls-1" d="M340.53,424.9l-4.91-8.45-5.87,5.72-.11.68c-.66-.28-1.32-.54-1.95-.78l1.49-9.66.09-.64v0l.67-4.29a2.82,2.82,0,0,1-.55-.54,2.38,2.38,0,0,1-.44-1.73l1.55-10a2.37,2.37,0,0,1,1.77-1.92l.16-1.05a.9.9,0,0,1,1.77.27l-.16,1.06a2.08,2.08,0,0,1,.67.62,2.34,2.34,0,0,1,.43,1.74l-1.55,10a2.32,2.32,0,0,1-1.62,1.87l-1.54,10,6.68-5.33Z" transform="translate(-250.87 -382.31)"/><path class="cls-1" d="M331.51,459c-4.24,1.31-9.8.73-11.27-4.25-1-3.17,2.11-4,4.89-4.43h.05c3.05-.83,6.26-1.1,8.82,1.36C337.07,454.3,334.72,457.81,331.51,459Z" transform="translate(-250.87 -382.31)"/><path class="cls-1" d="M342.48,451c-1.75,1-4.68,2.34-6.58.58a3,3,0,0,1,1-4.88C341,445.69,347.72,447.76,342.48,451Z" transform="translate(-250.87 -382.31)"/></svg>