<svg id="Layer_1" data-name="Layer 1" xmlns="http://www.w3.org/2000/svg" viewBox="0 0 92.62 87.57"><defs><style>.cls-1{fill:#282828;}</style></defs><path class="cls-1" d="M319.75,439.37H305l13-23.27c2.09-3.74,4.49-8.78,4.49-14.51a24.43,24.43,0,1,0-48.86,0c0,5.71,2.4,10.75,4.49,14.51l13,23.27H275.52a1.81,1.81,0,0,0-1.24.5l-22.42,21.81a1.78,1.78,0,0,0,1.24,3.05h89.07a1.78,1.78,0,0,0,1.24-3.05L321,439.87A1.77,1.77,0,0,0,319.75,439.37Zm-11.53,3.55,2.65,3.23a.87.87,0,0,1,.12,1,.89.89,0,0,1-.81.52h-9.82l2.62-4.71Zm-32,0h10.43l-3.76,4.7H271.42Zm20.51,18.26H257.47l12.12-11.79h11.9l-1.69,2.12a3.22,3.22,0,0,0,2.52,5.24h14.43Zm0-9.62V455H282.32a1.42,1.42,0,0,1-1.31-.82,1.4,1.4,0,0,1,.18-1.53l7.75-9.7h4l3.46,6.21.58,1.05A3.93,3.93,0,0,0,296.75,451.56Zm-15.62-37.19c-1.88-3.38-4-7.89-4-12.78a20.88,20.88,0,1,1,41.76,0c0,4.91-2.16,9.41-4,12.78L298,444.62Zm56.67,46.81H315.57l-2.4-4.49a.92.92,0,0,1,0-.95.94.94,0,0,1,.83-.47h17.71ZM314,453.5a2.74,2.74,0,0,0-2.42,4l2,3.65h-15v-9.62a2.17,2.17,0,0,1,2.16-2.17h9.49a2.67,2.67,0,0,0,2.06-4.37l-1.72-2.1H319l10.88,10.58Zm-16-63.05a11.14,11.14,0,1,0,11.14,11.14A11.16,11.16,0,0,0,298,390.45Zm0,20.5a9.36,9.36,0,1,1,9.36-9.36A9.37,9.37,0,0,1,298,411Z" transform="translate(-251.33 -377.16)"/></svg>