<svg id="Layer_1" data-name="Layer 1" xmlns="http://www.w3.org/2000/svg" viewBox="0 0 87.14 99.18"><defs><style>.cls-1{fill:#fff;}.cls-2{fill:#231f20;}.cls-3{fill:#282828;}.cls-4{fill:none;}</style></defs><path class="cls-1" d="M274.1,442.6s-3.07,3.58-6.74,8.14c-6,7.46-13.65,17.52-12,18.68C257.92,471.28,274.1,442.6,274.1,442.6Z" transform="translate(-254.07 -371.36)"/><path class="cls-2" d="M255.62,470.53a1.42,1.42,0,0,1-.9-.28,1.5,1.5,0,0,1-.62-1.09c-.12-.84-.42-3.1,12.46-19.07,3.64-4.51,6.73-8.12,6.76-8.16a1,1,0,0,1,1.68,1.18c0,.06-3.86,6.82-8,13.49C258.29,470.47,256.55,470.53,255.62,470.53Zm10.95-17.16c-7.23,9.1-9.47,12.93-10.15,14.51C258.39,466.05,262.31,460.29,266.57,453.37Z" transform="translate(-254.07 -371.36)"/><path class="cls-3" d="M286,397.45l.31.49a5.32,5.32,0,0,1-1.66,7.34l-.2.12,15.36-2.28a22.77,22.77,0,0,1,25.87,19.18l.36,2.43a22.75,22.75,0,0,1-19.17,25.86l-42.74,6.35-7.05-47.47h0l0-.06,21.6-13.61A5.31,5.31,0,0,1,286,397.45Z" transform="translate(-254.07 -371.36)"/><path class="cls-2" d="M264.12,458.17a1.22,1.22,0,0,1-1.21-1.05l-7.05-47.47v0a1.29,1.29,0,0,1,0-.48,1.23,1.23,0,0,1,.54-.77L278,394.75a6.56,6.56,0,0,1,9,2.05l.31.49a6.5,6.5,0,0,1,.84,4.94,6.67,6.67,0,0,1-.52,1.46l12-1.78a25.08,25.08,0,0,1,3.56-.26,24.11,24.11,0,0,1,23.7,20.47l.36,2.43A24,24,0,0,1,307,451.8l-42.74,6.35ZM258.38,410l6.77,45.56,41.53-6.17a21.55,21.55,0,0,0,18.14-24.48l-.36-2.43A21.5,21.5,0,0,0,300,404.33l-15.36,2.28a1.22,1.22,0,0,1-1.32-.78,1.21,1.21,0,0,1,.49-1.46l.19-.13a4.07,4.07,0,0,0,1.29-5.64l-.31-.5a4.1,4.1,0,0,0-5.65-1.28Z" transform="translate(-254.07 -371.36)"/><path class="cls-2" d="M266.73,457.33a.78.78,0,0,1-.76-.66l-7.31-49.22a.77.77,0,0,1,.65-.87.75.75,0,0,1,.87.65l7.31,49.21a.77.77,0,0,1-.64.88Z" transform="translate(-254.07 -371.36)"/><path class="cls-4" d="M305.71,390.37a6.79,6.79,0,1,1-4.84-8.29A6.78,6.78,0,0,1,305.71,390.37Z" transform="translate(-254.07 -371.36)"/><path class="cls-3" d="M299.15,396.46a7.81,7.81,0,1,1,7.55-5.83A7.87,7.87,0,0,1,299.15,396.46Zm0-13.57a5.76,5.76,0,0,0-1.46,11.33,6.18,6.18,0,0,0,1.47.19,5.76,5.76,0,0,0,1.46-11.33A5.65,5.65,0,0,0,299.14,382.89Z" transform="translate(-254.07 -371.36)"/><path class="cls-4" d="M303.29,389.74a4.33,4.33,0,0,1-5.23,3.05" transform="translate(-254.07 -371.36)"/><path class="cls-2" d="M299.13,393.7a5,5,0,0,1-1.27-.16.77.77,0,0,1,.39-1.5,3.53,3.53,0,0,0,4.29-2.5.77.77,0,0,1,1.5.39,5.06,5.06,0,0,1-2.35,3.07A5.14,5.14,0,0,1,299.13,393.7Z" transform="translate(-254.07 -371.36)"/><circle class="cls-4" cx="334.03" cy="375.86" r="2.53" transform="translate(-407.17 129.17) rotate(-62.73)"/><path class="cls-3" d="M334,379.15a3,3,0,0,1-.84-.11,3.28,3.28,0,0,1-2-1.52,3.3,3.3,0,0,1,2.85-5,3,3,0,0,1,.84.11,3.29,3.29,0,0,1-.84,6.48Zm0-5a1.75,1.75,0,0,0-1.51,2.64,1.69,1.69,0,0,0,1.07.81,1.75,1.75,0,0,0,.89-3.39A1.74,1.74,0,0,0,334,374.1Z" transform="translate(-254.07 -371.36)"/><circle class="cls-4" cx="312.38" cy="396.14" r="2.53" transform="translate(-434.15 134.27) rotate(-64.28)"/><path class="cls-3" d="M312.38,399.44a3.32,3.32,0,0,1-.83-.11,3.3,3.3,0,0,1,.83-6.49,3.46,3.46,0,0,1,.84.11,3.3,3.3,0,0,1-.84,6.49Zm0-5.06a1.74,1.74,0,0,0-1.69,1.31,1.76,1.76,0,0,0,1.25,2.15,1.76,1.76,0,0,0,.89-3.4A1.74,1.74,0,0,0,312.38,394.38Z" transform="translate(-254.07 -371.36)"/><circle class="cls-4" cx="334.6" cy="387.7" r="2.53" transform="translate(-413.16 152.51) rotate(-64.62)"/><path class="cls-3" d="M334.6,391a3.46,3.46,0,0,1-.84-.11,3.26,3.26,0,0,1-2-1.53,3.29,3.29,0,0,1,3.68-4.85,3.32,3.32,0,0,1,2.36,4A3.3,3.3,0,0,1,334.6,391Zm0-5.05a1.75,1.75,0,0,0-1.7,1.3,1.75,1.75,0,1,0,3.39.9A1.76,1.76,0,0,0,335,386,1.61,1.61,0,0,0,334.6,386Z" transform="translate(-254.07 -371.36)"/><path class="cls-1" d="M310.73,446a1,1,0,0,1-.29-2,14.09,14.09,0,0,0,7.69-5.81,1,1,0,1,1,1.78,1A16.25,16.25,0,0,1,311,446,1.54,1.54,0,0,1,310.73,446Z" transform="translate(-254.07 -371.36)"/><circle class="cls-4" cx="331.94" cy="401.68" r="8.24" transform="translate(-349.53 -267.77) rotate(-15.54)"/><path class="cls-3" d="M331.94,411a9.5,9.5,0,0,1-2.36-.31,9.27,9.27,0,0,1,2.35-18.24,9.44,9.44,0,0,1,2.36.31A9.27,9.27,0,0,1,331.94,411Zm0-16.49a7.22,7.22,0,1,0,1.84.24A7.21,7.21,0,0,0,331.93,394.47Z" transform="translate(-254.07 -371.36)"/><path class="cls-4" d="M337,403a5.25,5.25,0,0,1-6.35,3.72" transform="translate(-254.07 -371.36)"/><path class="cls-3" d="M331.91,407.65a5.8,5.8,0,0,1-1.49-.19.77.77,0,1,1,.39-1.49,4.49,4.49,0,0,0,5.41-3.16.77.77,0,0,1,.94-.55.76.76,0,0,1,.55.94,5.89,5.89,0,0,1-2.77,3.62A6,6,0,0,1,331.91,407.65Z" transform="translate(-254.07 -371.36)"/><circle class="cls-4" cx="319.61" cy="381.77" r="9.38" transform="translate(-325.78 -297.42) rotate(-11.87)"/><path class="cls-3" d="M319.61,392.18a10.82,10.82,0,0,1-2.65-.34,10.41,10.41,0,1,1,2.65.34Zm0-18.77a8.36,8.36,0,0,0-2.11,16.44,8.35,8.35,0,0,0,4.24-16.16A8.59,8.59,0,0,0,319.6,373.41Z" transform="translate(-254.07 -371.36)"/><path class="cls-4" d="M325.7,383.9a6,6,0,0,1-7.23,4.22" transform="translate(-254.07 -371.36)"/><path class="cls-3" d="M320,389.09a6.92,6.92,0,0,1-1.68-.22.77.77,0,1,1,.4-1.49A5.21,5.21,0,0,0,325,383.7a.78.78,0,1,1,1.5.4,6.69,6.69,0,0,1-3.11,4.06A6.79,6.79,0,0,1,320,389.09Z" transform="translate(-254.07 -371.36)"/></svg>