<svg id="Layer_1" data-name="Layer 1" xmlns="http://www.w3.org/2000/svg" viewBox="0 0 88.84 94.55"><defs><style>.cls-1{fill:#282828;}</style></defs><rect class="cls-1" x="4.34" y="56.67" width="84.49" height="37.87" rx="0.63"/><path class="cls-1" d="M257.26,428.31a.63.63,0,0,0,.63.63h83.23a.63.63,0,0,0,.63-.63V415.82a.63.63,0,0,0-.63-.63H257.89a.63.63,0,0,0-.63.63ZM336,416.82a1,1,0,0,1,.84.6L340,425.9a.41.41,0,0,1-.42.59h-4.7a1,1,0,0,1-.85-.59l-3.08-8.48a.42.42,0,0,1,.42-.6Zm-12.18,0a1,1,0,0,1,.85.6l3.08,8.48a.41.41,0,0,1-.42.59h-4.7a1,1,0,0,1-.84-.59l-3.09-8.48a.42.42,0,0,1,.42-.6Zm-11.74,0a1,1,0,0,1,.85.6l3.08,8.48a.41.41,0,0,1-.42.59h-4.7a1,1,0,0,1-.84-.59L307,417.42a.42.42,0,0,1,.42-.6Zm-12.18,0a1,1,0,0,1,.85.6l3.08,8.48a.41.41,0,0,1-.41.59h-4.7a1,1,0,0,1-.85-.59l-3.09-8.48a.42.42,0,0,1,.42-.6Zm-12,0a1,1,0,0,1,.85.6l3.08,8.48a.41.41,0,0,1-.41.59h-4.7a1,1,0,0,1-.85-.59l-3.08-8.48a.41.41,0,0,1,.41-.6Zm-12.18,0a1,1,0,0,1,.85.6l3.14,8.48a.41.41,0,0,1-.41.59h-4.76a1,1,0,0,1-.85-.59l-3-8.48a.42.42,0,0,1,.42-.6Zm-11.86,0a1,1,0,0,1,.85.6l3.14,8.48a.41.41,0,0,1-.41.59h-4.77a1,1,0,0,1-.84-.59l-3.09-8.48a.42.42,0,0,1,.42-.6Z" transform="translate(-252.92 -374)"/><path class="cls-1" d="M335.45,386a.63.63,0,0,0,.37-.81l-4-10.8a.63.63,0,0,0-.81-.38L253.33,402.3a.64.64,0,0,0-.38.8l4,10.87a.63.63,0,0,0,.81.38Zm-9.83-7.75a1,1,0,0,1,.59-.84l4.4-1.58a.42.42,0,0,1,.6.42v9a1,1,0,0,1-.6.85l-4.4,1.63a.41.41,0,0,1-.59-.41Zm-11.11,4a1,1,0,0,1,.59-.84l4.4-1.58a.42.42,0,0,1,.6.41v9a1,1,0,0,1-.6.85l-4.4,1.63a.41.41,0,0,1-.59-.41ZM303,386.38a1,1,0,0,1,.6-.84L308,384a.42.42,0,0,1,.6.41v8.91a1,1,0,0,1-.59.85l-4.41,1.63a.41.41,0,0,1-.59-.41Zm-11.17,4.21a1,1,0,0,1,.59-.85l4.4-1.58a.41.41,0,0,1,.59.42v9a1,1,0,0,1-.59.85l-4.4,1.58a.41.41,0,0,1-.59-.42Zm-11.55,4a1,1,0,0,1,.59-.85l4.46-1.58a.42.42,0,0,1,.6.42v9a1,1,0,0,1-.6.85l-4.46,1.63a.41.41,0,0,1-.59-.41Zm-11,4.2a1,1,0,0,1,.59-.85l4.47-1.63a.41.41,0,0,1,.59.41v9a1,1,0,0,1-.59.85l-4.46,1.58a.42.42,0,0,1-.6-.42Zm-11.49,4a1,1,0,0,1,.6-.85l4.4-1.58a.41.41,0,0,1,.59.42v9a1,1,0,0,1-.59.85l-4.4,1.63a.41.41,0,0,1-.6-.41Z" transform="translate(-252.92 -374)"/></svg>