<svg id="Layer_1" data-name="Layer 1" xmlns="http://www.w3.org/2000/svg" viewBox="0 0 138.91 61.69"><defs><style>.cls-1,.cls-2{fill:none;}.cls-2{stroke:#282828;stroke-linecap:round;stroke-linejoin:round;stroke-width:2px;}</style></defs><path class="cls-1" d="M237.72,451.07V448.5a14.32,14.32,0,0,1-8.85-10.86,14.16,14.16,0,0,1,2.45-10.56,11.91,11.91,0,0,1-.66-3.92,12.24,12.24,0,0,1,12.24-12.23,12.18,12.18,0,0,1,11.95,9.69,12.09,12.09,0,0,1-.39,6.46,14.16,14.16,0,0,1-6.41,21.44v2.55Z" transform="translate(-228.68 -390.38)"/><path class="cls-2" d="M249.15,426.39a7,7,0,0,0,.64-4.72,7.06,7.06,0,0,0-14,1.49,7,7,0,0,0,.87,3.37,2.32,2.32,0,0,1-.47,2.67,9,9,0,0,0-2.26,7.61,9,9,0,1,0,15.52-7.67A2.34,2.34,0,0,1,249.15,426.39Z" transform="translate(-228.68 -390.38)"/><line class="cls-2" x1="14.2" y1="47.23" x2="14.2" y2="60.69"/><path class="cls-1" d="M264.3,445.64a20.27,20.27,0,0,1-2.34-.14,19.38,19.38,0,0,1-12.5-31.73,16.13,16.13,0,0,1-1.45-6.66,16.31,16.31,0,0,1,16.29-16.29,16.25,16.25,0,0,1,14.84,22.95,19.39,19.39,0,0,1-14.84,31.87Z" transform="translate(-228.68 -390.38)"/><path class="cls-2" d="M274.16,412.21a11.06,11.06,0,0,0,1-7.44,11.12,11.12,0,0,0-22,2.34,10.82,10.82,0,0,0,1.38,5.31,3.65,3.65,0,0,1-.74,4.21,14.17,14.17,0,0,0-3.56,12,14.24,14.24,0,0,0,28.28-2.37,14.13,14.13,0,0,0-3.85-9.7A3.72,3.72,0,0,1,274.16,412.21Z" transform="translate(-228.68 -390.38)"/><line class="cls-2" x1="35.62" y1="39.17" x2="35.62" y2="60.69"/><line class="cls-2" x1="35.62" y1="42.76" x2="30.3" y2="37.45"/><line class="cls-2" x1="40.93" y1="32.14" x2="35.62" y2="37.45"/><line class="cls-2" x1="35.62" y1="39.17" x2="35.62" y2="27.85"/><path class="cls-2" d="M318.33,418.28a10.68,10.68,0,0,1,7.6,3.15h0l16.93,16.94a10.77,10.77,0,0,0,7.61,3.15,5.78,5.78,0,0,1,5.78,5.78v3.25h-7.63A10.72,10.72,0,0,1,341,447.4l-15.21-15.22h0A10.72,10.72,0,0,0,318.2,429" transform="translate(-228.68 -390.38)"/><line class="cls-2" x1="57.38" y1="60.17" x2="57.38" y2="17.14"/><line class="cls-2" x1="89.52" y1="60.17" x2="89.52" y2="17.14"/><line class="cls-2" x1="89.52" y1="38.65" x2="89.52" y2="27.9"/><line class="cls-2" x1="57.38" y1="38.65" x2="89.52" y2="38.65"/><path class="cls-2" d="M318.2,418.28h-5.45A1.72,1.72,0,0,0,311,420v9" transform="translate(-228.68 -390.38)"/><polygon class="cls-2" points="73.38 6.38 57.24 17.14 89.52 17.14 73.38 6.38"/><line class="cls-2" x1="73.38" y1="6.38" x2="73.38" y2="1"/><path class="cls-2" d="M286.06,418.28h5.45a1.72,1.72,0,0,1,1.72,1.72v9" transform="translate(-228.68 -390.38)"/><line class="cls-2" x1="87.8" y1="60.17" x2="91.24" y2="60.17"/><line class="cls-2" x1="55.65" y1="60.24" x2="59.1" y2="60.24"/><line class="cls-2" x1="68" y1="60.17" x2="68" y2="38.65"/><line class="cls-2" x1="78.76" y1="60.17" x2="78.76" y2="38.65"/><line class="cls-2" x1="78.76" y1="44.26" x2="68" y2="44.26"/><line class="cls-2" x1="78.76" y1="54.57" x2="68" y2="54.57"/><line class="cls-2" x1="119.95" y1="60.17" x2="137.91" y2="60.17"/></svg>