<svg id="Layer_1" data-name="Layer 1" xmlns="http://www.w3.org/2000/svg" viewBox="0 0 91.04 91.04"><defs><style>.cls-1{fill:#282828;}</style></defs><path class="cls-1" d="M340.31,453.66a4.26,4.26,0,0,1-4.26-4.26,1.43,1.43,0,1,0-2.85,0,4.27,4.27,0,0,1-4.27,4.26,1.43,1.43,0,0,0,0,2.85,4.27,4.27,0,0,1,4.27,4.27,1.43,1.43,0,0,0,2.85,0,4.27,4.27,0,0,1,4.26-4.27,1.43,1.43,0,1,0,0-2.85Z" transform="translate(-252.12 -375.42)"/><path class="cls-1" d="M330.36,384a4.27,4.27,0,0,1,4.26,4.27,1.43,1.43,0,0,0,2.85,0,4.27,4.27,0,0,1,4.27-4.27,1.43,1.43,0,0,0,0-2.85,4.27,4.27,0,0,1-4.27-4.26,1.43,1.43,0,1,0-2.85,0,4.26,4.26,0,0,1-4.26,4.26,1.43,1.43,0,1,0,0,2.85Z" transform="translate(-252.12 -375.42)"/><path class="cls-1" d="M263.5,384a4.27,4.27,0,0,1,4.26,4.27,1.43,1.43,0,0,0,2.85,0,4.27,4.27,0,0,1,4.27-4.27,1.43,1.43,0,0,0,0-2.85,4.27,4.27,0,0,1-4.27-4.26,1.43,1.43,0,1,0-2.85,0,4.26,4.26,0,0,1-4.26,4.26,1.43,1.43,0,1,0,0,2.85Z" transform="translate(-252.12 -375.42)"/><path class="cls-1" d="M256.38,418.1a4.27,4.27,0,0,1,4.27,4.27,1.43,1.43,0,0,0,2.85,0,4.27,4.27,0,0,1,4.26-4.27,1.43,1.43,0,1,0,0-2.85A4.26,4.26,0,0,1,263.5,411a1.43,1.43,0,1,0-2.85,0,4.27,4.27,0,0,1-4.27,4.26,1.43,1.43,0,0,0,0,2.85Z" transform="translate(-252.12 -375.42)"/><path class="cls-1" d="M320,401.63a1.43,1.43,0,0,0,.36,2.81,1.41,1.41,0,0,0,.35-.05,15.17,15.17,0,0,1,6.51-.29,1.44,1.44,0,0,0,1.65-1.15,1.42,1.42,0,0,0-1.15-1.65A18.07,18.07,0,0,0,320,401.63Z" transform="translate(-252.12 -375.42)"/><circle class="cls-1" cx="64.02" cy="7.11" r="4.27"/><circle class="cls-1" cx="9.96" cy="24.18" r="4.27"/><circle class="cls-1" cx="86.78" cy="46.94" r="4.27"/><circle class="cls-1" cx="83.93" cy="21.34" r="4.27"/><circle class="cls-1" cx="55.48" cy="78.24" r="4.27"/><path class="cls-1" d="M334.65,434a1.43,1.43,0,0,0,1.39,1.13,1.53,1.53,0,0,0,.3,0,1.42,1.42,0,0,0,1.1-1.68,12.17,12.17,0,0,0-9.71-9.65,1.42,1.42,0,0,0-.44,2.81A9.34,9.34,0,0,1,334.65,434Z" transform="translate(-252.12 -375.42)"/><path class="cls-1" d="M317.93,393a1.42,1.42,0,0,0,.08,2,1.43,1.43,0,0,0,2-.08,21.72,21.72,0,0,1,7.92-5.3,1.42,1.42,0,0,0-.88-2.71A24.21,24.21,0,0,0,317.93,393Z" transform="translate(-252.12 -375.42)"/><path class="cls-1" d="M290,383.87c6.11,2.27,4.84,9.48,4.79,9.78a1.41,1.41,0,0,0,1.13,1.66l.27,0a1.42,1.42,0,0,0,1.39-1.16c.66-3.4.12-10.49-6.59-13a1.42,1.42,0,1,0-1,2.67Z" transform="translate(-252.12 -375.42)"/><path class="cls-1" d="M279.42,406.82l-6.25,13.26h0a60.6,60.6,0,0,0,5,34.93l17.43-8.22-.64-.75C288.82,438.93,278.34,426.61,279.42,406.82Z" transform="translate(-252.12 -375.42)"/><path class="cls-1" d="M269.58,427.69l-17.33,36.75a1.42,1.42,0,0,0,1.89,1.89l21.42-10.1A63.18,63.18,0,0,1,269.58,427.69Z" transform="translate(-252.12 -375.42)"/><path class="cls-1" d="M315.94,417.27a39.56,39.56,0,0,1,14.35-2,1.39,1.39,0,0,0,1.49-1.35,1.42,1.42,0,0,0-1.36-1.49A42.8,42.8,0,0,0,314,414.92c-1.24-1.45-2.55-2.89-4-4.33a34.64,34.64,0,0,1,4-3.14,1.42,1.42,0,1,0-1.55-2.38,36.92,36.92,0,0,0-4.49,3.5q-2-1.92-4-3.63c2.37-4.79,5-11.27,5-16.71a1.43,1.43,0,1,0-2.85,0c0,4.65-2.22,10.35-4.36,14.8a58,58,0,0,0-7.08-5c-5-2.93-8.48-3.5-10.29-1.69a3.36,3.36,0,0,0-.82,1.55l-.12.26c-5.26,23.94,6.91,38.23,13.58,46l1.15,1.34L320.66,435a3.36,3.36,0,0,0,1.55-.82c1.81-1.81,1.25-5.27-1.68-10.29A58.51,58.51,0,0,0,315.94,417.27ZM320.27,432l-.57.27c-2.91.45-11.15-4.4-20.07-13.31s-13.73-17.16-13.32-20.08l.27-.57c.54-.28,2.44-.29,6.71,2.2a57.27,57.27,0,0,1,7.2,5.13c-1.44,2.71-2.6,4.53-2.63,4.58a1.42,1.42,0,0,0,.43,2,1.38,1.38,0,0,0,.77.23,1.42,1.42,0,0,0,1.2-.65c.12-.19,1.15-1.81,2.45-4.23q1.64,1.44,3.25,3a32.42,32.42,0,0,0-2.34,2.67,1.43,1.43,0,0,0,.27,2,1.45,1.45,0,0,0,.86.28,1.39,1.39,0,0,0,1.13-.56s.78-1,2.1-2.38c1.12,1.16,2.19,2.31,3.21,3.47a32.78,32.78,0,0,0-4.39,2.31,1.42,1.42,0,0,0,.8,2.6,1.39,1.39,0,0,0,.78-.23,30.33,30.33,0,0,1,4.75-2.4,55.94,55.94,0,0,1,4.94,7C320.56,429.56,320.55,431.46,320.27,432Z" transform="translate(-252.12 -375.42)"/></svg>