<svg xmlns="http://www.w3.org/2000/svg" width="92.682" height="87.595" viewBox="0 0 92.682 87.595"><defs><style>.a{fill:#1e1e1e;}</style></defs><path class="a" d="M381.548,171.582h-14.8c5.032-9.041,11.9-21.37,12.955-23.268,2.09-3.745,4.489-8.78,4.489-14.514a24.428,24.428,0,1,0-48.857,0c0,5.712,2.4,10.756,4.488,14.512,1.057,1.9,7.921,14.229,12.954,23.27H337.316a1.779,1.779,0,0,0-1.238.5l-22.42,21.81a1.776,1.776,0,0,0,1.238,3.049h89.072a1.776,1.776,0,0,0,1.238-3.049l-22.42-21.81a1.779,1.779,0,0,0-1.238-.5m-11.533,3.551,2.652,3.225a.9.9,0,0,1-.694,1.47h-9.484c-.115,0-.227.008-.339.018.612-1.1,1.526-2.743,2.623-4.713Zm-31.978,0h10.426l-3.754,4.7h-11.5Zm20.508,18.259H319.268L331.386,181.6h11.9l-1.694,2.119a3.225,3.225,0,0,0,2.518,5.24h14.433Zm0-9.62v3.414H344.112a1.449,1.449,0,0,1-1.132-2.354l7.757-9.7h4.019l3.458,6.21.584,1.05a3.924,3.924,0,0,0-.253,1.379m-15.616-37.186c-1.882-3.382-4.04-7.891-4.04-12.786a20.876,20.876,0,1,1,41.753,0c0,4.916-2.158,9.414-4.038,12.784-1.383,2.476-12.659,22.734-16.839,30.244-4.181-7.509-15.458-27.764-16.836-30.242M399.6,193.392H377.369l-2.407-4.485a.964.964,0,0,1,.849-1.42h17.715Zm-23.785-7.68a2.74,2.74,0,0,0-2.414,4.035l1.956,3.645H360.32v-9.62a2.171,2.171,0,0,1,2.169-2.168h9.484a2.676,2.676,0,0,0,2.066-4.374l-1.725-2.1h8.513L391.7,185.712Zm-16.046-63.048A11.136,11.136,0,1,0,370.9,133.8a11.149,11.149,0,0,0-11.136-11.136m0,20.5a9.361,9.361,0,1,1,9.361-9.36,9.372,9.372,0,0,1-9.361,9.36" transform="translate(-313.318 -109.398)"/></svg>