<svg id="Layer_1" data-name="Layer 1" xmlns="http://www.w3.org/2000/svg" viewBox="0 0 88.53 88.53"><defs><style>.cls-1{fill:#010101;fill-rule:evenodd;}</style></defs><path class="cls-1" d="M278.28,440.3c-8.67-8.53-23.26-26.6-24.79-41a18.64,18.64,0,0,1,3.24-12.93,25.62,25.62,0,0,1,11.53-9c3.14-1.22,5.94-1,7.84,3.06l8.84,19.09c1.72,3.71-2.85,7.19-5.47,10.84-1.66,2.33-1.91,2.95-.52,5.44,1.8,3.25,5.95,8.45,10.65,13.21s10,8.85,13.21,10.66c2.49,1.38,3.11,1.14,5.44-.53,3.65-2.62,7.13-7.18,10.85-5.46l19.08,8.83c4.1,1.91,4.28,4.7,3.06,7.85a25.64,25.64,0,0,1-9,11.52,18.61,18.61,0,0,1-12.93,3.24C304.88,463.57,286.81,449,278.28,440.3Z" transform="translate(-253.37 -376.68)"/></svg>