<svg id="Layer_1" data-name="Layer 1" xmlns="http://www.w3.org/2000/svg" viewBox="0 0 74.47 112.45"><defs><style>.cls-1{fill:#131718;}</style></defs><path class="cls-1" d="M297.29,367a35.2,35.2,0,0,0-35.2,35.21c0,19.44,35.2,71.58,35.2,71.58s35.21-52.14,35.21-71.58A35.2,35.2,0,0,0,297.29,367Zm0,55.83a21.63,21.63,0,1,1,21.63-21.63A21.63,21.63,0,0,1,297.29,422.87Z" transform="translate(-260.06 -365.01)"/><path class="cls-1" d="M297.29,477.46,295.61,475c-.09-.13-8.94-13.28-17.68-28.63-11.86-20.84-17.87-35.67-17.87-44.09a37.24,37.24,0,1,1,74.47,0c0,8.42-6,23.25-17.87,44.09-8.74,15.35-17.6,28.5-17.68,28.63Zm0-108.39a33.21,33.21,0,0,0-33.17,33.18c0,7.59,6,22.14,17.32,42.06,6.41,11.26,12.88,21.32,15.85,25.85,3-4.53,9.45-14.59,15.86-25.85,11.33-19.92,17.32-34.47,17.32-42.06A33.21,33.21,0,0,0,297.29,369.07Zm0,55.83A23.59,23.59,0,1,1,306.5,423,23.52,23.52,0,0,1,297.29,424.9Zm0-43.26a19.6,19.6,0,1,0,19.6,19.6A19.62,19.62,0,0,0,297.29,381.64Z" transform="translate(-260.06 -365.01)"/></svg>