<svg id="Layer_1" data-name="Layer 1" xmlns="http://www.w3.org/2000/svg" viewBox="0 0 104.23 61.2"><defs><style>.cls-1{fill:#282828;}</style></defs><path class="cls-1" d="M320.92,425.94l-25-15.8c2.75-2.36,5.23-4.63,7.88-6.68a3,3,0,0,1,2.62,0c3.38,1.71,6.64,3.64,10,5.4,2.93,1.56,5.57,1,7-1.43s.64-5-2.06-6.83c-4.6-3.08-9.25-6.06-13.85-9.13a5.48,5.48,0,0,0-7.05.27c-6.29,4.92-13.15,9.29-18.73,14.92-4.95,5-8.5,11.36-12.82,17.33,3.23,1.43,5.65,3,8.27,3.5,2.34.42,5.37.35,7.29-.82,8.81-5.38,17.28-5.4,26,.15C313.81,429.05,317.35,428.45,320.92,425.94Z" transform="translate(-245.52 -390.35)"/><path class="cls-1" d="M330.25,426.72a6.88,6.88,0,0,0-2.47.29,51.59,51.59,0,0,0-6.52,2.62c-4.81,2.44-9.33,2.47-13.95-.38-6.52-4-13.17-4.1-19.7-.07a13.15,13.15,0,0,1-14.21.34c-4.15-2.27-9.3-3.26-13.87-1.71a62.43,62.43,0,0,0-14,6.82,1.8,1.8,0,0,0,1.51,1.62,5.33,5.33,0,0,0,2.37-.22l11.37-2.89a11.51,11.51,0,0,1,9.78,1.72c6.57,4.22,13.28,4.33,20,.42a12.58,12.58,0,0,1,13.64,0c6.74,4,13.45,3.74,20-.42,2.72-1.72,5.61-2.82,8.74-2,4.15,1.09,8.29,2.15,12.45,3.17a5.93,5.93,0,0,0,2.43.26c1.59-.27,2.15-1.41,1-2.35a15.12,15.12,0,0,0-3.39-1.75c-2.1-1-4.23-1.92-6.38-2.75C336.63,428.49,333.22,426.88,330.25,426.72Z" transform="translate(-245.52 -390.35)"/><path class="cls-1" d="M330.58,440.14a6.46,6.46,0,0,0-2.47.29,53.07,53.07,0,0,0-6.52,2.61c-4.81,2.44-9.33,2.48-13.95-.37-6.52-4-13.17-4.1-19.7-.08a13.14,13.14,0,0,1-14.21.35c-4.15-2.28-9.3-3.26-13.87-1.72a62.26,62.26,0,0,0-14,6.83,1.81,1.81,0,0,0,1.51,1.62,5.2,5.2,0,0,0,2.37-.23l11.36-2.89a11.56,11.56,0,0,1,9.79,1.72c6.57,4.22,13.28,4.34,20,.43a12.57,12.57,0,0,1,13.65,0c6.74,4,13.45,3.74,20-.41,2.72-1.73,5.61-2.83,8.74-2,4.15,1.08,8.29,2.14,12.45,3.17a6.1,6.1,0,0,0,2.43.25c1.59-.26,2.15-1.41,1-2.35a16.24,16.24,0,0,0-3.39-1.75c-2.1-1-4.23-1.91-6.38-2.74C337,441.9,333.55,440.29,330.58,440.14Z" transform="translate(-245.52 -390.35)"/><path class="cls-1" d="M271.52,408.71a11.76,11.76,0,1,0-11.84,11.82A11.61,11.61,0,0,0,271.52,408.71Z" transform="translate(-245.52 -390.35)"/></svg>