<svg xmlns="http://www.w3.org/2000/svg" xmlns:xlink="http://www.w3.org/1999/xlink" width="33" height="33" viewBox="0 0 33 33">
  <defs>
    <style>
      .cls-1 {
        fill: none;
      }

      .cls-2 {
        clip-path: url(#clip-path);
      }

      .cls-3 {
        fill-rule: evenodd;
      }
    </style>
    <clipPath id="clip-path">
      <rect id="Rectangle_99" data-name="Rectangle 99" class="cls-1" width="33" height="33"/>
    </clipPath>
  </defs>
  <g id="Group_192" data-name="Group 192" class="cls-2">
    <path id="Path_1510" data-name="Path 1510" class="cls-3" d="M9.286,23.714C6.054,20.534.613,13.8.045,8.43A6.936,6.936,0,0,1,1.252,3.611,9.582,9.582,0,0,1,5.548.245,2,2,0,0,1,8.471,1.388L11.766,8.5c.641,1.384-1.06,2.682-2.037,4.044-.621.866-.712,1.1-.2,2.027A27.085,27.085,0,0,0,13.5,19.5a27.055,27.055,0,0,0,4.925,3.971c.928.516,1.161.425,2.026-.2,1.363-.977,2.661-2.678,4.044-2.037l7.112,3.294a2,2,0,0,1,1.144,2.924,9.585,9.585,0,0,1-3.367,4.3,6.938,6.938,0,0,1-4.819,1.207c-5.368-.567-12.1-6.009-15.283-9.241"/>
  </g>
</svg>
