<svg id="Layer_1" data-name="Layer 1" xmlns="http://www.w3.org/2000/svg" viewBox="0 0 104.34 85.95"><defs><style>.cls-1{fill:#282828;fill-rule:evenodd;}</style></defs><path class="cls-1" d="M264.77,391.3,262,388.55l2.71-2.71,2.76,2.76Zm3.35,3.35-2.6-2.6,2.7-2.71,2.6,2.6Zm3.24,3.24-2.5-2.5,2.71-2.7,2.49,2.5Zm3.5,3.5-2.76-2.75,2.71-2.71,2.76,2.76Zm3.74,3.74-3-3,2.7-2.71,3,3Zm3.24,3.24-2.5-2.49,2.71-2.71,2.5,2.5Zm-2.52,4,2.52-2.53,2.76,2.76-2.53,2.52Zm-3.24-3.25,2.52-2.52,2.5,2.5-2.53,2.52Zm-3.74-3.73,2.52-2.53,3,3-2.52,2.52Zm-3.5-3.51,2.52-2.52,2.76,2.76-2.53,2.52Zm-3.25-3.24,2.53-2.52,2.49,2.5-2.52,2.52Zm-3.34-3.34,2.52-2.53,2.6,2.6-2.52,2.53Zm-3.5-3.51,2.52-2.52,2.76,2.76-2.53,2.52Zm-3.25-3.24,2.53-2.52,2.5,2.5L258,391.07Zm20.58,27.06,2.49-2.5,2.76,2.76-2.5,2.49Zm-3.25-3.24,2.5-2.5,2.5,2.5-2.5,2.49Zm-3.73-3.74,2.49-2.5,3,3-2.5,2.5Zm-3.51-3.5,2.5-2.5,2.76,2.76-2.5,2.49Zm-3.24-3.25,2.5-2.49,2.5,2.49-2.5,2.5ZM259,398.56l2.49-2.5,2.6,2.6-2.49,2.5Zm-3.51-3.5,2.5-2.5,2.76,2.76-2.5,2.49Zm-3.24-3.25,2.5-2.49,2.5,2.49-2.5,2.5Zm20.37,27.27,2.7-2.71,2.76,2.76-2.71,2.7Zm-3.25-3.24,2.71-2.71,2.5,2.5-2.71,2.7Zm-3.73-3.74,2.7-2.71,3,3-2.7,2.7Zm-3.51-3.5,2.71-2.71,2.76,2.76-2.71,2.7Zm-3.24-3.25,2.71-2.7,2.49,2.5-2.7,2.7ZM255.56,402l2.7-2.71,2.6,2.6-2.7,2.71Zm-3.51-3.5,2.71-2.71,2.76,2.76-2.71,2.7Zm-3.24-3.25,2.71-2.7,2.49,2.5-2.7,2.7Zm17.31,23.84,2.52-2.52,2.5,2.5-2.53,2.52Zm-3.74-3.74,2.52-2.52,3,3-2.52,2.52Zm-3.5-3.5,2.52-2.52,2.76,2.76-2.53,2.52Zm-3.25-3.24,2.53-2.52,2.49,2.5-2.52,2.52Zm-3.34-3.34,2.52-2.53,2.6,2.6-2.52,2.53Zm-3.5-3.51,2.52-2.52,2.76,2.76-2.53,2.52Zm14.34-17.52.84.85-2.7,2.7-2.5-2.5,1.36-1.35A19.55,19.55,0,0,1,263.13,384.25Zm6.51,2.19-1.42,1.41-2.76-2.75.23-.23A26.38,26.38,0,0,1,269.64,386.44Zm4.19,2.5-2.26,2.26-2.6-2.6,1.65-1.66A31.46,31.46,0,0,1,273.83,388.94Zm3.56,2.92-2.58,2.58-2.5-2.5,2.38-2.37C275.61,390.27,276.51,391,277.39,391.86Zm3.35,3.66-2.43,2.42-2.76-2.75,2.59-2.59A33.56,33.56,0,0,1,280.74,395.52Zm3,4.51-1.65,1.65-3-3,2.33-2.33A30.34,30.34,0,0,1,283.7,400Zm1.95,4.53-.36.36-2.5-2.49,1.42-1.42c.32.65.61,1.31.87,2S285.48,404,285.65,404.56Zm1.05,6-1.36,1.35-2.75-2.75,2.7-2.71,1.1,1.11A18.29,18.29,0,0,1,286.7,410.52Zm-.14,2.57-.47-.47.58-.58C286.64,412.39,286.61,412.74,286.56,413.09Zm-1.69,4.85-2.05-2.05,2.52-2.53,1,1A12.32,12.32,0,0,1,284.87,417.94Zm-3.17,3.32-2.12-2.13,2.49-2.5,2.2,2.2a10.91,10.91,0,0,1-2.57,2.43Zm-5,1.9-.58-.58,2.7-2.71,1.95,1.95A12.66,12.66,0,0,1,276.71,423.16Zm-6.88-.34-.47-.47,2.52-2.53,2.76,2.76-.77.76a18.76,18.76,0,0,1-3-.31Q270.34,422.94,269.83,422.82Zm-5.46-2,1-1,2.39,2.39A25.48,25.48,0,0,1,264.37,420.85ZM259.72,418l1.91-1.91,3,3-1.25,1.25A31.62,31.62,0,0,1,259.72,418ZM256,414.78l2.17-2.17,2.76,2.75-2,2A32.16,32.16,0,0,1,256,414.78Zm-3-3.45,2-2,2.5,2.49L255.22,414A33.44,33.44,0,0,1,252.93,411.33Zm-2.63-4.07,1.24-1.24,2.6,2.6-1.84,1.85A28.85,28.85,0,0,1,250.3,407.26Zm-1.89-4.38,2.39,2.4-1,1A25.6,25.6,0,0,1,248.41,402.88Zm-1.11-6.11.77-.76,2.5,2.5L248,401l-.21-.22c-.08-.34-.15-.67-.21-1A20,20,0,0,1,247.3,396.77Zm1.53-6.9,1.94,1.94-2.7,2.71-.58-.58A12.5,12.5,0,0,1,248.83,389.87Zm3-3.49,2.19,2.19-2.49,2.5-2.13-2.13a10,10,0,0,1,1.32-1.59A10.14,10.14,0,0,1,251.82,386.38Zm4.48-2.06,1,1-2.52,2.53-2.06-2.06A12,12,0,0,1,256.3,384.32Zm2.31-.34-.58.58-.47-.47C257.9,384,258.25,384,258.61,384Zm47.2,55c-1.27-1.06-2.51-2.21-3.73-3.42a57,57,0,0,1-8.24-10.37,42.13,42.13,0,0,1-4.9-11c-.16-.58-.3-1.16-.42-1.73a4.1,4.1,0,0,0,0-.41,14,14,0,0,1-3.9,9.24A13.53,13.53,0,0,1,277,425a42.3,42.3,0,0,1,11,4.9,56.54,56.54,0,0,1,10.37,8.24q2.12,2.11,3.93,4.34Zm-56.4-52.89c3.47-3.47,8.59-4.59,14.08-3.59A30.36,30.36,0,0,1,278,390c.46.41.91.84,1.35,1.28,6.32,6.32,7.48,9.72,10,18.11.4,1.35.57,2.82,1,4.39a40.74,40.74,0,0,0,4.74,10.63,55.16,55.16,0,0,0,8,10.1c7.64,7.64,15.58,15,23.22,22.63a1.9,1.9,0,0,1,0,2.67l-3.2,3.2a1.9,1.9,0,0,1-2.67,0c-7.74-7.87-15.37-16.08-23.13-23.84a55.66,55.66,0,0,0-10.1-8,41,41,0,0,0-10.63-4.73,28.42,28.42,0,0,0-3.75-.77c-6.57-.86-13.22-4.54-18.25-9.57a30.89,30.89,0,0,1-8.79-15.9C244.82,394.64,245.94,389.52,249.41,386.05Z" transform="translate(-245.47 -377.97)"/><path class="cls-1" d="M340.61,401.81l2.76-2.76,2.71,2.7-2.76,2.76Zm-3.34,3.34,2.6-2.6,2.7,2.7-2.6,2.61ZM334,408.39l2.49-2.49,2.71,2.7-2.5,2.5Zm-3.51,3.5,2.76-2.75,2.71,2.7-2.76,2.76Zm-3.73,3.74,3-3,2.7,2.7-3,3Zm-3.25,3.25,2.5-2.5,2.71,2.7-2.5,2.5Zm-4-2.53,2.52,2.53-2.75,2.75-2.53-2.52Zm3.24-3.24,2.53,2.52-2.5,2.5-2.52-2.52Zm3.74-3.74,2.53,2.52-3,3-2.52-2.52Zm3.5-3.5,2.53,2.52-2.76,2.76-2.52-2.52Zm3.25-3.24,2.52,2.52-2.5,2.5-2.52-2.52Zm3.34-3.35,2.52,2.53-2.6,2.6L334,401.88Zm3.5-3.5,2.53,2.52-2.76,2.76-2.52-2.52Zm3.24-3.24,2.53,2.52-2.5,2.5L340.85,395Zm-27,20.57,2.5,2.5L316,418.36l-2.5-2.49Zm3.24-3.24,2.5,2.5-2.5,2.49-2.5-2.49Zm3.74-3.74,2.5,2.5-3,3-2.49-2.5Zm3.5-3.5,2.5,2.5-2.76,2.75-2.5-2.5Zm3.24-3.24,2.5,2.49-2.5,2.5-2.49-2.5Zm3.35-3.35,2.5,2.5-2.6,2.6-2.5-2.5Zm3.5-3.5,2.5,2.5-2.76,2.75-2.5-2.49Zm3.24-3.24,2.5,2.49-2.5,2.5-2.49-2.5Zm-27.26,20.36,2.7,2.71-2.75,2.75-2.71-2.7Zm3.24-3.24,2.71,2.7-2.5,2.5-2.71-2.7Zm3.74-3.74,2.7,2.7-3,3-2.7-2.71Zm3.5-3.5,2.71,2.7-2.76,2.76-2.71-2.71Zm3.24-3.24,2.71,2.7-2.5,2.5-2.7-2.71Zm3.35-3.35,2.7,2.71-2.6,2.6-2.7-2.71Zm3.5-3.5,2.71,2.7-2.76,2.76-2.71-2.7Zm3.24-3.24,2.71,2.7-2.5,2.5-2.7-2.71Zm-23.84,17.3,2.53,2.52-2.5,2.5-2.52-2.52Zm3.74-3.74,2.53,2.52-3,3-2.52-2.52Zm3.5-3.5,2.53,2.52-2.76,2.76-2.52-2.52Zm3.25-3.24,2.52,2.52-2.5,2.5-2.52-2.52Zm3.34-3.35,2.52,2.53-2.6,2.6L324,391.92Zm3.5-3.5,2.53,2.52-2.76,2.76-2.52-2.52Zm17.52,14.35-.84.84-2.7-2.71,2.49-2.49,1.36,1.36A18.52,18.52,0,0,1,347.66,400.17Zm-2.18,6.5-1.42-1.42,2.76-2.75.22.22A25.49,25.49,0,0,1,345.48,406.67Zm-2.5,4.19-2.26-2.26,2.6-2.6,1.65,1.66A29.57,29.57,0,0,1,343,410.86Zm-2.93,3.56-2.57-2.58,2.49-2.49,2.38,2.37A31.94,31.94,0,0,1,340.05,414.42Zm-3.65,3.35L334,415.34l2.76-2.75,2.59,2.59A35.15,35.15,0,0,1,336.4,417.77Zm-4.51,3-1.65-1.66,3-3,2.32,2.32A30.79,30.79,0,0,1,331.89,420.74Zm-4.54,1.95-.36-.36,2.5-2.5,1.42,1.42c-.66.32-1.31.61-2,.87S327.88,422.52,327.35,422.69Zm-6,1.05L320,422.38l2.76-2.76,2.7,2.71-1.1,1.1A20.92,20.92,0,0,1,321.4,423.74Zm-2.57-.15.47-.47.58.58C319.52,423.68,319.17,423.64,318.83,423.59ZM314,421.91l2.06-2.06,2.52,2.53-1,1A12,12,0,0,1,314,421.91Zm-3.31-3.17,2.13-2.13,2.49,2.5-2.19,2.19a9.18,9.18,0,0,1-1.11-1A10,10,0,0,1,310.66,418.74Zm-1.9-5,.58-.58,2.7,2.71-1.94,1.94A12.5,12.5,0,0,1,308.76,413.74Zm.34-6.87.47-.48,2.52,2.53-2.75,2.75-.77-.76a20,20,0,0,1,.32-3C309,407.54,309,407.21,309.1,406.87Zm2-5.47,1,1-2.39,2.39A26.94,26.94,0,0,1,311.06,401.4Zm2.84-4.64,1.91,1.91-3,3-1.24-1.24A29.57,29.57,0,0,1,313.9,396.76Zm3.23-3.77,2.18,2.18-2.76,2.75-2-2A35.15,35.15,0,0,1,317.13,393Zm3.46-3,2,2-2.5,2.5-2.16-2.16A31.94,31.94,0,0,1,320.59,390Zm4.06-2.62,1.25,1.24-2.6,2.6-1.85-1.85A29.57,29.57,0,0,1,324.65,387.34Zm4.38-1.9-2.39,2.39-1-1A26.89,26.89,0,0,1,329,385.44Zm6.11-1.1.77.76-2.5,2.5-2.52-2.52.21-.22q.51-.12,1-.21A18.76,18.76,0,0,1,335.14,384.34Zm6.91,1.52-1.95,1.95-2.7-2.71.58-.58A12.91,12.91,0,0,1,342.05,385.86Zm3.49,3-2.2,2.2-2.49-2.5,2.12-2.12a10.52,10.52,0,0,1,1.6,1.31A11.33,11.33,0,0,1,345.54,388.85Zm2.06,4.48-1,1-2.52-2.53,2.05-2.05A12.32,12.32,0,0,1,347.6,393.33Zm.34,2.31-.58-.58.47-.47C347.88,394.94,347.91,395.29,347.94,395.64Zm-55,47.2q1.61-1.9,3.43-3.72a57.33,57.33,0,0,1,10.36-8.25,42.67,42.67,0,0,1,11-4.9c.58-.16,1.16-.3,1.73-.42a3,3,0,0,0,.4,0,14,14,0,0,1-9.23-3.91,13.55,13.55,0,0,1-3.73-7.56,42.74,42.74,0,0,1-4.89,11,57.29,57.29,0,0,1-8.25,10.37c-1.4,1.4-2.85,2.71-4.33,3.93Zm52.9-56.4c3.46,3.47,4.58,8.6,3.59,14.08A30.48,30.48,0,0,1,342,415.08c-.42.45-.84.9-1.29,1.35-6.32,6.32-9.71,7.47-18.11,10-1.34.39-2.82.57-4.39,1a41.38,41.38,0,0,0-10.63,4.74,55.59,55.59,0,0,0-10.1,8c-7.64,7.65-15,15.58-22.62,23.22a1.88,1.88,0,0,1-2.67,0l-3.2-3.2a1.88,1.88,0,0,1,0-2.67c7.86-7.74,16.08-15.36,23.84-23.12a55.59,55.59,0,0,0,8-10.1,41,41,0,0,0,4.74-10.63,28.48,28.48,0,0,0,.76-3.76c.87-6.57,4.55-13.22,9.57-18.24a30.93,30.93,0,0,1,15.91-8.8C337.27,381.86,342.4,383,345.87,386.44Z" transform="translate(-245.47 -377.97)"/><path class="cls-1" d="M301.19,378.8a8,8,0,0,1,3.91,10l-.14,0h0a6.72,6.72,0,0,1-4.43-8.42h0a6.84,6.84,0,0,1,.67-1.48m-5.09,15a8,8,0,0,1-6.4-8.61,6.75,6.75,0,0,1,6.45,8.45C296.13,393.66,296.12,393.72,296.1,393.77ZM293.77,379a7.93,7.93,0,0,1,6.54-.54,8.3,8.3,0,0,0-.69,1.58h0a7.66,7.66,0,0,0,5.06,9.59h0a7.88,7.88,0,0,1-3.2,3.3,8,8,0,0,1-4.47,1v0a7.66,7.66,0,0,0-5.47-9.37,7.45,7.45,0,0,0-1.73-.25A8,8,0,0,1,293.77,379Z" transform="translate(-245.47 -377.97)"/></svg>