<svg id="Layer_1" data-name="Layer 1" xmlns="http://www.w3.org/2000/svg" viewBox="0 0 111.95 100.45"><defs><style>.cls-1{fill:#282828;}</style></defs><path class="cls-1" d="M371.83,303.61h28.95V345H371.83V303.61ZM400.07,272l20.37-20.5,19.69,20.26-3,1.26a1.56,1.56,0,0,0-1,1.44V302a.31.31,0,0,0,0,.1V345h-4.71v-21.6a10.56,10.56,0,0,0-3.11-7.52,10.7,10.7,0,0,0-3.35-2.26,10.5,10.5,0,0,0-4.09-.85h-.08a10.44,10.44,0,0,0-4.94,1.25,10.91,10.91,0,0,0-5.7,9.54V345H405l-1.07-69.84a1.59,1.59,0,0,0-.76-1.32L400.07,272Zm66.22,11.71,6.41,16.15H439.34V283.67Zm3.08,61.3h-30V303.61h30V345Zm-41,0h-15V323.53a7.76,7.76,0,0,1,4.05-6.78,7.25,7.25,0,0,1,3.45-.88h.06a7.42,7.42,0,0,1,2.88.6,7.49,7.49,0,0,1,4.56,6.9V345Zm-59.66,1.56a1.57,1.57,0,0,0,1.57,1.57h32.08a1.72,1.72,0,0,0,.55-.1,1.62,1.62,0,0,0,.54.1h67.5a1.59,1.59,0,0,0,1.11-.46,1.57,1.57,0,0,0,.46-1.11V303H475a1.57,1.57,0,0,0,1.46-2.15l-7.66-19.29a1.56,1.56,0,0,0-1.45-1h-28v-5.08l4.12-1.75a1.57,1.57,0,0,0,.51-2.53l-22.39-23.05a1.61,1.61,0,0,0-1.11-.48,1.57,1.57,0,0,0-1.12.47l-22.91,23.05a1.56,1.56,0,0,0-.44,1.3,1.53,1.53,0,0,0,.75,1.14l4.05,2.44.07,4.49h-6.33a1.57,1.57,0,0,0,0,3.13h6.24v16.81H368.45l6.27-16.81H378a1.57,1.57,0,1,0,0-3.13h-4.41a1.56,1.56,0,0,0-1.47,1l-7.43,19.95a1.56,1.56,0,0,0,1.47,2.11h2.5v42.92Z" transform="translate(-364.63 -247.65)"/><path class="cls-1" d="M446.84,326h5.65v6.54h-5.65V326Zm0-9.66h5.65v6.53h-5.65v-6.53Zm8.78,9.66h5.65v6.54h-5.65V326Zm0-9.66h5.65v6.53h-5.65v-6.53Zm-10.35,19.33h17.57a1.55,1.55,0,0,0,1.11-.46,1.57,1.57,0,0,0,.46-1.1V314.76a1.57,1.57,0,0,0-1.57-1.57H445.31a1.6,1.6,0,0,0-.62.13,1.58,1.58,0,0,0-1,1.48v9.63h0v9.66a1.55,1.55,0,0,0,1.56,1.56Z" transform="translate(-364.63 -247.65)"/><path class="cls-1" d="M393.53,322.86h-5.65v-6.53h5.65v6.53Zm0,9.67h-5.65V326h5.65v6.54Zm-8.79-9.67h-5.65v-6.53h5.65v6.53Zm0,9.67h-5.65V326h5.65v6.54Zm10.35-19.34H377.56a1.64,1.64,0,0,0-.62.13,1.58,1.58,0,0,0-1,1.48v9.63h0v9.66a1.57,1.57,0,0,0,.46,1.1,1.53,1.53,0,0,0,1.1.46h17.57a1.53,1.53,0,0,0,1.11-.46,1.57,1.57,0,0,0,.46-1.1V314.76a1.59,1.59,0,0,0-.46-1.11,1.57,1.57,0,0,0-1.11-.46Z" transform="translate(-364.63 -247.65)"/><path class="cls-1" d="M418.17,292.67h0a.85.85,0,0,0-.84.84v1.81a.85.85,0,0,0,.84.85h0a.85.85,0,0,0,.85-.85v-1.81a.85.85,0,0,0-.85-.84Z" transform="translate(-364.63 -247.65)"/><path class="cls-1" d="M414.67,292.67a.85.85,0,0,0-.84.84v1.81a.85.85,0,1,0,1.69,0v-1.81a.85.85,0,0,0-.85-.84Z" transform="translate(-364.63 -247.65)"/><path class="cls-1" d="M421.79,292.67h0a.85.85,0,0,0-.85.84v1.81a.85.85,0,0,0,.85.85h0a.85.85,0,0,0,.85-.85v-1.81a.85.85,0,0,0-.85-.84Z" transform="translate(-364.63 -247.65)"/><path class="cls-1" d="M425.23,292.67a.85.85,0,0,0-.85.84v1.81a.85.85,0,1,0,1.7,0v-1.81a.85.85,0,0,0-.85-.84Z" transform="translate(-364.63 -247.65)"/><path class="cls-1" d="M415.73,278a4.28,4.28,0,0,1,4.28-4.28,4.35,4.35,0,0,1,1.66.33,4.29,4.29,0,0,1,1.37.92h0a4.21,4.21,0,0,1,1.25,3v10.83h-8.56V278Zm-1.57,14h11.7a1.61,1.61,0,0,0,1.11-.46,1.58,1.58,0,0,0,.45-1.11V278a7.42,7.42,0,0,0-10.3-6.83A7.38,7.38,0,0,0,412.6,278v12.4a1.58,1.58,0,0,0,.45,1.11,1.61,1.61,0,0,0,1.11.46Z" transform="translate(-364.63 -247.65)"/><rect class="cls-1" x="425.25" y="272.71" transform="translate(-440.65 87.79) rotate(-39.81)"/><path class="cls-1" d="M384.77,282.1a1.54,1.54,0,1,0,1.54-1.54,1.54,1.54,0,0,0-1.54,1.54Z" transform="translate(-364.63 -247.65)"/></svg>