<svg id="Layer_1" data-name="Layer 1" xmlns="http://www.w3.org/2000/svg" viewBox="0 0 79.2 63.01"><defs><style>.cls-1{fill:#282828;}</style></defs><path class="cls-1" d="M282.55,396.68c.95-3.63,3.09-7.24,5.39-7.24,3.09,0,5.9,6.52,5.9,10.84,0,4-2.36,5.5-5.13,5.74v4.52C288.21,405.43,285.78,399.11,282.55,396.68Zm44.37,12c-5.4,0-10.31,12.52-10.31,20.83,0,7.6,4.12,10.58,9,11v9.27h2.69v-9.27c4.84-.45,9-3.43,9-11C337.24,421.22,332.32,408.7,326.92,408.7Zm-51,43.75,17.78-47.58h-.59l-20.8,47.58Zm3.55-24.66h1.42v-7.05c3.81-.34,7.05-2.6,7.05-8.38,0-6.31-3.86-15.83-8.11-15.83-3.61,0-6.94,6.88-7.86,12.82,2.66,2.24,4.87,6.66,6.2,11.32l.61.07v2.34A34.12,34.12,0,0,1,279.47,427.79Zm21.18,24.66h14.53l-14.54-47.58h-6.41l-15.08,47.58h21.5Zm11.81-55.77c-.95-3.63-3.09-7.24-5.39-7.24-3.09,0-5.9,6.52-5.9,10.84,0,4,2.36,5.5,5.13,5.74v4.52C306.79,405.43,309.23,399.11,312.46,396.68ZM267,449.83h2.69v-9.27c4.84-.45,9-3.43,9-11,0-8.31-4.92-20.83-10.32-20.83S258,421.22,258,429.53c0,7.6,4.12,10.58,9,11Zm56.05-40.28c-.87-6-4.23-13-7.88-13-4.25,0-8.11,9.52-8.11,15.83,0,5.78,3.24,8,7.05,8.38v7.05h1.69c.08-1.08.22-2.21.42-3.36v-3.69a8.66,8.66,0,0,0,.89-.12C318.41,416.12,320.52,411.84,323.06,409.55ZM322,452.45,302,404.87h-.69l17.14,47.58Z" transform="translate(-258.04 -389.44)"/></svg>