<svg id="Layer_1" data-name="Layer 1" xmlns="http://www.w3.org/2000/svg" viewBox="0 0 116.19 90.68"><defs><style>.cls-1{fill:#282828;}</style></defs><path class="cls-1" d="M297.64,466.29a1.36,1.36,0,0,1-.68-.18l-56.68-31.17a1.41,1.41,0,0,1,.07-2.52l13.13-6.19,3.13,1.54-12.54,6,53.57,29.46,53.57-29.46-53.57-25.45-15,7.08.53-3.37L297,405.5a1.38,1.38,0,0,1,1.22,0l56.67,26.92a1.42,1.42,0,0,1,.08,2.52l-56.68,31.17A1.38,1.38,0,0,1,297.64,466.29Z" transform="translate(-239.54 -375.6)"/><path class="cls-1" d="M330.23,433.7a1.42,1.42,0,0,1-1.42-1.42V399.69a1.42,1.42,0,1,1,2.83,0v32.59A1.42,1.42,0,0,1,330.23,433.7Z" transform="translate(-239.54 -375.6)"/><path class="cls-1" d="M330.23,415.28A14.17,14.17,0,0,1,321.4,390a9.78,9.78,0,0,1-1.09-4.51,9.92,9.92,0,0,1,19.84,0,9.79,9.79,0,0,1-1.1,4.51,14.16,14.16,0,0,1-8.82,25.25Zm0-36.84a7.1,7.1,0,0,0-7.09,7.08,7,7,0,0,0,1.3,4.08,1.46,1.46,0,0,1,.24,1.09,1.48,1.48,0,0,1-.62.92,11.33,11.33,0,1,0,12.34,0,1.43,1.43,0,0,1-.39-2,7,7,0,0,0,1.3-4.08A7.09,7.09,0,0,0,330.23,378.44Z" transform="translate(-239.54 -375.6)"/><path class="cls-1" d="M304.72,452.12a1.42,1.42,0,0,1-1.41-1.42V435.11a1.42,1.42,0,0,1,2.83,0V450.7A1.42,1.42,0,0,1,304.72,452.12Z" transform="translate(-239.54 -375.6)"/><path class="cls-1" d="M305.92,445h-2.39a7.32,7.32,0,0,1-7.31-7.3v-10.9a7.31,7.31,0,0,1,7.31-7.3h2.39a7.3,7.3,0,0,1,7.3,7.3v10.9A7.31,7.31,0,0,1,305.92,445Zm-2.39-22.67a4.48,4.48,0,0,0-4.48,4.47v10.9a4.48,4.48,0,0,0,4.48,4.47h2.39a4.47,4.47,0,0,0,4.47-4.47v-10.9a4.47,4.47,0,0,0-4.47-4.47Z" transform="translate(-239.54 -375.6)"/><path class="cls-1" d="M266.47,438a1.42,1.42,0,0,1-1.42-1.42V411a1.42,1.42,0,1,1,2.83,0v25.5A1.42,1.42,0,0,1,266.47,438Z" transform="translate(-239.54 -375.6)"/><path class="cls-1" d="M282.05,423.78H250.88a1.42,1.42,0,0,1-1.11-2.29l7.1-9.05h-3.16a1.41,1.41,0,0,1-1.13-2.26l6.8-9.07h-2.83a1.42,1.42,0,0,1-1.07-2.35l9.92-11.34a1.47,1.47,0,0,1,2.13,0l9.92,11.34a1.42,1.42,0,0,1-1.07,2.35h-2.83l6.8,9.07a1.41,1.41,0,0,1-1.13,2.26h-3.16l7.11,9.05a1.42,1.42,0,0,1-1.12,2.29Zm-28.26-2.84h25.35l-7.11-9a1.42,1.42,0,0,1,1.11-2.29h3.24l-6.8-9.07a1.42,1.42,0,0,1,1.14-2.27h2.54l-6.79-7.76-6.8,7.76h2.54a1.42,1.42,0,0,1,1.14,2.27l-6.8,9.07h3.24a1.41,1.41,0,0,1,1.27.8,1.39,1.39,0,0,1-.16,1.49Z" transform="translate(-239.54 -375.6)"/></svg>